<?xml version="1.0" encoding="utf-8" standalone="no"?>
<!DOCTYPE svg PUBLIC "-//W3C//DTD SVG 1.1//EN"
  "http://www.w3.org/Graphics/SVG/1.1/DTD/svg11.dtd">
<!-- Created with matplotlib (https://matplotlib.org/) -->
<svg height="360pt" version="1.1" viewBox="0 0 432 360" width="432pt" xmlns="http://www.w3.org/2000/svg" xmlns:xlink="http://www.w3.org/1999/xlink">
 <defs>
  <style type="text/css">
*{stroke-linecap:butt;stroke-linejoin:round;}
  </style>
 </defs>
 <g id="figure_1">
  <g id="patch_1">
   <path d="M 0 360 
L 432 360 
L 432 0 
L 0 0 
z
" style="fill:#ffffff;"/>
  </g>
  <g id="axes_1">
   <g id="patch_2">
    <path d="M 54 315 
L 388.8 315 
L 388.8 43.2 
L 54 43.2 
z
" style="fill:#ffffff;"/>
   </g>
   <g id="patch_3">
    <path clip-path="url(#p3e3434e096)" d="M 69.218182 315 
L 70.232734 315 
L 70.232734 314.579777 
L 69.218182 314.579777 
z
" style="fill:#1f77b4;"/>
   </g>
   <g id="patch_4">
    <path clip-path="url(#p3e3434e096)" d="M 70.232749 315 
L 71.247285 315 
L 71.247285 315 
L 70.232749 315 
z
" style="fill:#1f77b4;"/>
   </g>
   <g id="patch_5">
    <path clip-path="url(#p3e3434e096)" d="M 71.247269 315 
L 72.261821 315 
L 72.261821 315 
L 71.247269 315 
z
" style="fill:#1f77b4;"/>
   </g>
   <g id="patch_6">
    <path clip-path="url(#p3e3434e096)" d="M 72.261821 315 
L 73.276357 315 
L 73.276357 315 
L 72.261821 315 
z
" style="fill:#1f77b4;"/>
   </g>
   <g id="patch_7">
    <path clip-path="url(#p3e3434e096)" d="M 73.276357 315 
L 74.290909 315 
L 74.290909 315 
L 73.276357 315 
z
" style="fill:#1f77b4;"/>
   </g>
   <g id="patch_8">
    <path clip-path="url(#p3e3434e096)" d="M 74.290909 315 
L 75.305461 315 
L 75.305461 315 
L 74.290909 315 
z
" style="fill:#1f77b4;"/>
   </g>
   <g id="patch_9">
    <path clip-path="url(#p3e3434e096)" d="M 75.305476 315 
L 76.320012 315 
L 76.320012 315 
L 75.305476 315 
z
" style="fill:#1f77b4;"/>
   </g>
   <g id="patch_10">
    <path clip-path="url(#p3e3434e096)" d="M 76.319996 315 
L 77.334548 315 
L 77.334548 315 
L 76.319996 315 
z
" style="fill:#1f77b4;"/>
   </g>
   <g id="patch_11">
    <path clip-path="url(#p3e3434e096)" d="M 77.334548 315 
L 78.349084 315 
L 78.349084 315 
L 77.334548 315 
z
" style="fill:#1f77b4;"/>
   </g>
   <g id="patch_12">
    <path clip-path="url(#p3e3434e096)" d="M 78.349084 315 
L 79.363636 315 
L 79.363636 315 
L 78.349084 315 
z
" style="fill:#1f77b4;"/>
   </g>
   <g id="patch_13">
    <path clip-path="url(#p3e3434e096)" d="M 79.363636 315 
L 80.378188 315 
L 80.378188 315 
L 79.363636 315 
z
" style="fill:#1f77b4;"/>
   </g>
   <g id="patch_14">
    <path clip-path="url(#p3e3434e096)" d="M 80.378203 315 
L 81.392739 315 
L 81.392739 315 
L 80.378203 315 
z
" style="fill:#1f77b4;"/>
   </g>
   <g id="patch_15">
    <path clip-path="url(#p3e3434e096)" d="M 81.392723 315 
L 82.407275 315 
L 82.407275 315 
L 81.392723 315 
z
" style="fill:#1f77b4;"/>
   </g>
   <g id="patch_16">
    <path clip-path="url(#p3e3434e096)" d="M 82.407275 315 
L 83.421811 315 
L 83.421811 315 
L 82.407275 315 
z
" style="fill:#1f77b4;"/>
   </g>
   <g id="patch_17">
    <path clip-path="url(#p3e3434e096)" d="M 83.421811 315 
L 84.436363 315 
L 84.436363 315 
L 83.421811 315 
z
" style="fill:#1f77b4;"/>
   </g>
   <g id="patch_18">
    <path clip-path="url(#p3e3434e096)" d="M 84.436363 315 
L 85.450915 315 
L 85.450915 315 
L 84.436363 315 
z
" style="fill:#1f77b4;"/>
   </g>
   <g id="patch_19">
    <path clip-path="url(#p3e3434e096)" d="M 85.45093 315 
L 86.465466 315 
L 86.465466 315 
L 85.45093 315 
z
" style="fill:#1f77b4;"/>
   </g>
   <g id="patch_20">
    <path clip-path="url(#p3e3434e096)" d="M 86.46545 315 
L 87.480002 315 
L 87.480002 315 
L 86.46545 315 
z
" style="fill:#1f77b4;"/>
   </g>
   <g id="patch_21">
    <path clip-path="url(#p3e3434e096)" d="M 87.480002 315 
L 88.494538 315 
L 88.494538 315 
L 87.480002 315 
z
" style="fill:#1f77b4;"/>
   </g>
   <g id="patch_22">
    <path clip-path="url(#p3e3434e096)" d="M 88.494538 315 
L 89.50909 315 
L 89.50909 315 
L 88.494538 315 
z
" style="fill:#1f77b4;"/>
   </g>
   <g id="patch_23">
    <path clip-path="url(#p3e3434e096)" d="M 89.50909 315 
L 90.523642 315 
L 90.523642 315 
L 89.50909 315 
z
" style="fill:#1f77b4;"/>
   </g>
   <g id="patch_24">
    <path clip-path="url(#p3e3434e096)" d="M 90.523657 315 
L 91.538193 315 
L 91.538193 315 
L 90.523657 315 
z
" style="fill:#1f77b4;"/>
   </g>
   <g id="patch_25">
    <path clip-path="url(#p3e3434e096)" d="M 91.538177 315 
L 92.552729 315 
L 92.552729 315 
L 91.538177 315 
z
" style="fill:#1f77b4;"/>
   </g>
   <g id="patch_26">
    <path clip-path="url(#p3e3434e096)" d="M 92.552729 315 
L 93.567265 315 
L 93.567265 315 
L 92.552729 315 
z
" style="fill:#1f77b4;"/>
   </g>
   <g id="patch_27">
    <path clip-path="url(#p3e3434e096)" d="M 93.567265 315 
L 94.581817 315 
L 94.581817 315 
L 93.567265 315 
z
" style="fill:#1f77b4;"/>
   </g>
   <g id="patch_28">
    <path clip-path="url(#p3e3434e096)" d="M 94.581817 315 
L 95.596369 315 
L 95.596369 314.579777 
L 94.581817 314.579777 
z
" style="fill:#1f77b4;"/>
   </g>
   <g id="patch_29">
    <path clip-path="url(#p3e3434e096)" d="M 95.596384 315 
L 96.61092 315 
L 96.61092 315 
L 95.596384 315 
z
" style="fill:#1f77b4;"/>
   </g>
   <g id="patch_30">
    <path clip-path="url(#p3e3434e096)" d="M 96.610905 315 
L 97.625456 315 
L 97.625456 314.579777 
L 96.610905 314.579777 
z
" style="fill:#1f77b4;"/>
   </g>
   <g id="patch_31">
    <path clip-path="url(#p3e3434e096)" d="M 97.625456 315 
L 98.639992 315 
L 98.639992 315 
L 97.625456 315 
z
" style="fill:#1f77b4;"/>
   </g>
   <g id="patch_32">
    <path clip-path="url(#p3e3434e096)" d="M 98.639992 315 
L 99.654544 315 
L 99.654544 314.159555 
L 98.639992 314.159555 
z
" style="fill:#1f77b4;"/>
   </g>
   <g id="patch_33">
    <path clip-path="url(#p3e3434e096)" d="M 99.654544 315 
L 100.669096 315 
L 100.669096 315 
L 99.654544 315 
z
" style="fill:#1f77b4;"/>
   </g>
   <g id="patch_34">
    <path clip-path="url(#p3e3434e096)" d="M 100.669111 315 
L 101.683647 315 
L 101.683647 315 
L 100.669111 315 
z
" style="fill:#1f77b4;"/>
   </g>
   <g id="patch_35">
    <path clip-path="url(#p3e3434e096)" d="M 101.683632 315 
L 102.698183 315 
L 102.698183 315 
L 101.683632 315 
z
" style="fill:#1f77b4;"/>
   </g>
   <g id="patch_36">
    <path clip-path="url(#p3e3434e096)" d="M 102.698183 315 
L 103.712735 315 
L 103.712735 315 
L 102.698183 315 
z
" style="fill:#1f77b4;"/>
   </g>
   <g id="patch_37">
    <path clip-path="url(#p3e3434e096)" d="M 103.712735 315 
L 104.727271 315 
L 104.727271 313.739332 
L 103.712735 313.739332 
z
" style="fill:#1f77b4;"/>
   </g>
   <g id="patch_38">
    <path clip-path="url(#p3e3434e096)" d="M 104.727271 315 
L 105.741823 315 
L 105.741823 315 
L 104.727271 315 
z
" style="fill:#1f77b4;"/>
   </g>
   <g id="patch_39">
    <path clip-path="url(#p3e3434e096)" d="M 105.741838 315 
L 106.756374 315 
L 106.756374 314.579777 
L 105.741838 314.579777 
z
" style="fill:#1f77b4;"/>
   </g>
   <g id="patch_40">
    <path clip-path="url(#p3e3434e096)" d="M 106.756359 315 
L 107.77091 315 
L 107.77091 315 
L 106.756359 315 
z
" style="fill:#1f77b4;"/>
   </g>
   <g id="patch_41">
    <path clip-path="url(#p3e3434e096)" d="M 107.77091 315 
L 108.785462 315 
L 108.785462 315 
L 107.77091 315 
z
" style="fill:#1f77b4;"/>
   </g>
   <g id="patch_42">
    <path clip-path="url(#p3e3434e096)" d="M 108.785462 315 
L 109.799998 315 
L 109.799998 315 
L 108.785462 315 
z
" style="fill:#1f77b4;"/>
   </g>
   <g id="patch_43">
    <path clip-path="url(#p3e3434e096)" d="M 109.799998 315 
L 110.81455 315 
L 110.81455 314.579777 
L 109.799998 314.579777 
z
" style="fill:#1f77b4;"/>
   </g>
   <g id="patch_44">
    <path clip-path="url(#p3e3434e096)" d="M 110.814565 315 
L 111.829101 315 
L 111.829101 315 
L 110.814565 315 
z
" style="fill:#1f77b4;"/>
   </g>
   <g id="patch_45">
    <path clip-path="url(#p3e3434e096)" d="M 111.829086 315 
L 112.843637 315 
L 112.843637 315 
L 111.829086 315 
z
" style="fill:#1f77b4;"/>
   </g>
   <g id="patch_46">
    <path clip-path="url(#p3e3434e096)" d="M 112.843637 315 
L 113.858189 315 
L 113.858189 315 
L 112.843637 315 
z
" style="fill:#1f77b4;"/>
   </g>
   <g id="patch_47">
    <path clip-path="url(#p3e3434e096)" d="M 113.858189 315 
L 114.872725 315 
L 114.872725 314.579777 
L 113.858189 314.579777 
z
" style="fill:#1f77b4;"/>
   </g>
   <g id="patch_48">
    <path clip-path="url(#p3e3434e096)" d="M 114.872725 315 
L 115.887277 315 
L 115.887277 315 
L 114.872725 315 
z
" style="fill:#1f77b4;"/>
   </g>
   <g id="patch_49">
    <path clip-path="url(#p3e3434e096)" d="M 115.887277 315 
L 116.901828 315 
L 116.901828 315 
L 115.887277 315 
z
" style="fill:#1f77b4;"/>
   </g>
   <g id="patch_50">
    <path clip-path="url(#p3e3434e096)" d="M 116.901813 315 
L 117.916364 315 
L 117.916364 315 
L 116.901813 315 
z
" style="fill:#1f77b4;"/>
   </g>
   <g id="patch_51">
    <path clip-path="url(#p3e3434e096)" d="M 117.916364 315 
L 118.930916 315 
L 118.930916 315 
L 117.916364 315 
z
" style="fill:#1f77b4;"/>
   </g>
   <g id="patch_52">
    <path clip-path="url(#p3e3434e096)" d="M 118.9309 315 
L 119.945452 315 
L 119.945452 315 
L 118.9309 315 
z
" style="fill:#1f77b4;"/>
   </g>
   <g id="patch_53">
    <path clip-path="url(#p3e3434e096)" d="M 119.945452 315 
L 120.960004 315 
L 120.960004 315 
L 119.945452 315 
z
" style="fill:#1f77b4;"/>
   </g>
   <g id="patch_54">
    <path clip-path="url(#p3e3434e096)" d="M 120.960004 315 
L 121.974555 315 
L 121.974555 314.579777 
L 120.960004 314.579777 
z
" style="fill:#1f77b4;"/>
   </g>
   <g id="patch_55">
    <path clip-path="url(#p3e3434e096)" d="M 121.97454 315 
L 122.989091 315 
L 122.989091 315 
L 121.97454 315 
z
" style="fill:#1f77b4;"/>
   </g>
   <g id="patch_56">
    <path clip-path="url(#p3e3434e096)" d="M 122.989091 315 
L 124.003643 315 
L 124.003643 315 
L 122.989091 315 
z
" style="fill:#1f77b4;"/>
   </g>
   <g id="patch_57">
    <path clip-path="url(#p3e3434e096)" d="M 124.003627 315 
L 125.018179 315 
L 125.018179 315 
L 124.003627 315 
z
" style="fill:#1f77b4;"/>
   </g>
   <g id="patch_58">
    <path clip-path="url(#p3e3434e096)" d="M 125.018179 315 
L 126.032731 315 
L 126.032731 315 
L 125.018179 315 
z
" style="fill:#1f77b4;"/>
   </g>
   <g id="patch_59">
    <path clip-path="url(#p3e3434e096)" d="M 126.032731 315 
L 127.047282 315 
L 127.047282 315 
L 126.032731 315 
z
" style="fill:#1f77b4;"/>
   </g>
   <g id="patch_60">
    <path clip-path="url(#p3e3434e096)" d="M 127.047267 315 
L 128.061818 315 
L 128.061818 315 
L 127.047267 315 
z
" style="fill:#1f77b4;"/>
   </g>
   <g id="patch_61">
    <path clip-path="url(#p3e3434e096)" d="M 128.061818 315 
L 129.07637 315 
L 129.07637 315 
L 128.061818 315 
z
" style="fill:#1f77b4;"/>
   </g>
   <g id="patch_62">
    <path clip-path="url(#p3e3434e096)" d="M 129.076354 315 
L 130.090906 315 
L 130.090906 315 
L 129.076354 315 
z
" style="fill:#1f77b4;"/>
   </g>
   <g id="patch_63">
    <path clip-path="url(#p3e3434e096)" d="M 130.090906 315 
L 131.105458 315 
L 131.105458 314.159555 
L 130.090906 314.159555 
z
" style="fill:#1f77b4;"/>
   </g>
   <g id="patch_64">
    <path clip-path="url(#p3e3434e096)" d="M 131.105458 315 
L 132.120009 315 
L 132.120009 314.579777 
L 131.105458 314.579777 
z
" style="fill:#1f77b4;"/>
   </g>
   <g id="patch_65">
    <path clip-path="url(#p3e3434e096)" d="M 132.119994 315 
L 133.134545 315 
L 133.134545 315 
L 132.119994 315 
z
" style="fill:#1f77b4;"/>
   </g>
   <g id="patch_66">
    <path clip-path="url(#p3e3434e096)" d="M 133.134545 315 
L 134.149097 315 
L 134.149097 314.579777 
L 133.134545 314.579777 
z
" style="fill:#1f77b4;"/>
   </g>
   <g id="patch_67">
    <path clip-path="url(#p3e3434e096)" d="M 134.149081 315 
L 135.163633 315 
L 135.163633 315 
L 134.149081 315 
z
" style="fill:#1f77b4;"/>
   </g>
   <g id="patch_68">
    <path clip-path="url(#p3e3434e096)" d="M 135.163633 315 
L 136.178185 315 
L 136.178185 314.579777 
L 135.163633 314.579777 
z
" style="fill:#1f77b4;"/>
   </g>
   <g id="patch_69">
    <path clip-path="url(#p3e3434e096)" d="M 136.178185 315 
L 137.192736 315 
L 137.192736 315 
L 136.178185 315 
z
" style="fill:#1f77b4;"/>
   </g>
   <g id="patch_70">
    <path clip-path="url(#p3e3434e096)" d="M 137.192721 315 
L 138.207272 315 
L 138.207272 315 
L 137.192721 315 
z
" style="fill:#1f77b4;"/>
   </g>
   <g id="patch_71">
    <path clip-path="url(#p3e3434e096)" d="M 138.207272 315 
L 139.221824 315 
L 139.221824 315 
L 138.207272 315 
z
" style="fill:#1f77b4;"/>
   </g>
   <g id="patch_72">
    <path clip-path="url(#p3e3434e096)" d="M 139.221808 315 
L 140.23636 315 
L 140.23636 315 
L 139.221808 315 
z
" style="fill:#1f77b4;"/>
   </g>
   <g id="patch_73">
    <path clip-path="url(#p3e3434e096)" d="M 140.23636 315 
L 141.250912 315 
L 141.250912 315 
L 140.23636 315 
z
" style="fill:#1f77b4;"/>
   </g>
   <g id="patch_74">
    <path clip-path="url(#p3e3434e096)" d="M 141.250912 315 
L 142.265463 315 
L 142.265463 314.579777 
L 141.250912 314.579777 
z
" style="fill:#1f77b4;"/>
   </g>
   <g id="patch_75">
    <path clip-path="url(#p3e3434e096)" d="M 142.265448 315 
L 143.279999 315 
L 143.279999 315 
L 142.265448 315 
z
" style="fill:#1f77b4;"/>
   </g>
   <g id="patch_76">
    <path clip-path="url(#p3e3434e096)" d="M 143.279999 315 
L 144.294551 315 
L 144.294551 315 
L 143.279999 315 
z
" style="fill:#1f77b4;"/>
   </g>
   <g id="patch_77">
    <path clip-path="url(#p3e3434e096)" d="M 144.294535 315 
L 145.309087 315 
L 145.309087 315 
L 144.294535 315 
z
" style="fill:#1f77b4;"/>
   </g>
   <g id="patch_78">
    <path clip-path="url(#p3e3434e096)" d="M 145.309087 315 
L 146.323639 315 
L 146.323639 315 
L 145.309087 315 
z
" style="fill:#1f77b4;"/>
   </g>
   <g id="patch_79">
    <path clip-path="url(#p3e3434e096)" d="M 146.323639 315 
L 147.33819 315 
L 147.33819 315 
L 146.323639 315 
z
" style="fill:#1f77b4;"/>
   </g>
   <g id="patch_80">
    <path clip-path="url(#p3e3434e096)" d="M 147.338175 315 
L 148.352726 315 
L 148.352726 314.579777 
L 147.338175 314.579777 
z
" style="fill:#1f77b4;"/>
   </g>
   <g id="patch_81">
    <path clip-path="url(#p3e3434e096)" d="M 148.352726 315 
L 149.367278 315 
L 149.367278 315 
L 148.352726 315 
z
" style="fill:#1f77b4;"/>
   </g>
   <g id="patch_82">
    <path clip-path="url(#p3e3434e096)" d="M 149.36727 315 
L 150.381822 315 
L 150.381822 313.739332 
L 149.36727 313.739332 
z
" style="fill:#1f77b4;"/>
   </g>
   <g id="patch_83">
    <path clip-path="url(#p3e3434e096)" d="M 150.381814 315 
L 151.396366 315 
L 151.396366 314.579777 
L 150.381814 314.579777 
z
" style="fill:#1f77b4;"/>
   </g>
   <g id="patch_84">
    <path clip-path="url(#p3e3434e096)" d="M 151.396366 315 
L 152.410917 315 
L 152.410917 313.739332 
L 151.396366 313.739332 
z
" style="fill:#1f77b4;"/>
   </g>
   <g id="patch_85">
    <path clip-path="url(#p3e3434e096)" d="M 152.410902 315 
L 153.425453 315 
L 153.425453 314.159555 
L 152.410902 314.159555 
z
" style="fill:#1f77b4;"/>
   </g>
   <g id="patch_86">
    <path clip-path="url(#p3e3434e096)" d="M 153.425453 315 
L 154.440005 315 
L 154.440005 313.739332 
L 153.425453 313.739332 
z
" style="fill:#1f77b4;"/>
   </g>
   <g id="patch_87">
    <path clip-path="url(#p3e3434e096)" d="M 154.439997 315 
L 155.454549 315 
L 155.454549 315 
L 154.439997 315 
z
" style="fill:#1f77b4;"/>
   </g>
   <g id="patch_88">
    <path clip-path="url(#p3e3434e096)" d="M 155.454541 315 
L 156.469093 315 
L 156.469093 315 
L 155.454541 315 
z
" style="fill:#1f77b4;"/>
   </g>
   <g id="patch_89">
    <path clip-path="url(#p3e3434e096)" d="M 156.469093 315 
L 157.483644 315 
L 157.483644 314.579777 
L 156.469093 314.579777 
z
" style="fill:#1f77b4;"/>
   </g>
   <g id="patch_90">
    <path clip-path="url(#p3e3434e096)" d="M 157.483629 315 
L 158.49818 315 
L 158.49818 314.159555 
L 157.483629 314.159555 
z
" style="fill:#1f77b4;"/>
   </g>
   <g id="patch_91">
    <path clip-path="url(#p3e3434e096)" d="M 158.49818 315 
L 159.512732 315 
L 159.512732 313.739332 
L 158.49818 313.739332 
z
" style="fill:#1f77b4;"/>
   </g>
   <g id="patch_92">
    <path clip-path="url(#p3e3434e096)" d="M 159.512724 315 
L 160.527276 315 
L 160.527276 312.898887 
L 159.512724 312.898887 
z
" style="fill:#1f77b4;"/>
   </g>
   <g id="patch_93">
    <path clip-path="url(#p3e3434e096)" d="M 160.527268 315 
L 161.54182 315 
L 161.54182 314.159555 
L 160.527268 314.159555 
z
" style="fill:#1f77b4;"/>
   </g>
   <g id="patch_94">
    <path clip-path="url(#p3e3434e096)" d="M 161.54182 315 
L 162.556371 315 
L 162.556371 313.319109 
L 161.54182 313.319109 
z
" style="fill:#1f77b4;"/>
   </g>
   <g id="patch_95">
    <path clip-path="url(#p3e3434e096)" d="M 162.556356 315 
L 163.570907 315 
L 163.570907 313.319109 
L 162.556356 313.319109 
z
" style="fill:#1f77b4;"/>
   </g>
   <g id="patch_96">
    <path clip-path="url(#p3e3434e096)" d="M 163.570907 315 
L 164.585459 315 
L 164.585459 315 
L 163.570907 315 
z
" style="fill:#1f77b4;"/>
   </g>
   <g id="patch_97">
    <path clip-path="url(#p3e3434e096)" d="M 164.585451 315 
L 165.600003 315 
L 165.600003 314.579777 
L 164.585451 314.579777 
z
" style="fill:#1f77b4;"/>
   </g>
   <g id="patch_98">
    <path clip-path="url(#p3e3434e096)" d="M 165.599995 315 
L 166.614547 315 
L 166.614547 312.478664 
L 165.599995 312.478664 
z
" style="fill:#1f77b4;"/>
   </g>
   <g id="patch_99">
    <path clip-path="url(#p3e3434e096)" d="M 166.614547 315 
L 167.629098 315 
L 167.629098 312.058442 
L 166.614547 312.058442 
z
" style="fill:#1f77b4;"/>
   </g>
   <g id="patch_100">
    <path clip-path="url(#p3e3434e096)" d="M 167.629083 315 
L 168.643634 315 
L 168.643634 314.159555 
L 167.629083 314.159555 
z
" style="fill:#1f77b4;"/>
   </g>
   <g id="patch_101">
    <path clip-path="url(#p3e3434e096)" d="M 168.643634 315 
L 169.658186 315 
L 169.658186 313.739332 
L 168.643634 313.739332 
z
" style="fill:#1f77b4;"/>
   </g>
   <g id="patch_102">
    <path clip-path="url(#p3e3434e096)" d="M 169.658178 315 
L 170.67273 315 
L 170.67273 312.898887 
L 169.658178 312.898887 
z
" style="fill:#1f77b4;"/>
   </g>
   <g id="patch_103">
    <path clip-path="url(#p3e3434e096)" d="M 170.672722 315 
L 171.687274 315 
L 171.687274 313.739332 
L 170.672722 313.739332 
z
" style="fill:#1f77b4;"/>
   </g>
   <g id="patch_104">
    <path clip-path="url(#p3e3434e096)" d="M 171.687274 315 
L 172.701825 315 
L 172.701825 312.898887 
L 171.687274 312.898887 
z
" style="fill:#1f77b4;"/>
   </g>
   <g id="patch_105">
    <path clip-path="url(#p3e3434e096)" d="M 172.70181 315 
L 173.716361 315 
L 173.716361 312.898887 
L 172.70181 312.898887 
z
" style="fill:#1f77b4;"/>
   </g>
   <g id="patch_106">
    <path clip-path="url(#p3e3434e096)" d="M 173.716361 315 
L 174.730913 315 
L 174.730913 312.898887 
L 173.716361 312.898887 
z
" style="fill:#1f77b4;"/>
   </g>
   <g id="patch_107">
    <path clip-path="url(#p3e3434e096)" d="M 174.730905 315 
L 175.745457 315 
L 175.745457 312.058442 
L 174.730905 312.058442 
z
" style="fill:#1f77b4;"/>
   </g>
   <g id="patch_108">
    <path clip-path="url(#p3e3434e096)" d="M 175.745449 315 
L 176.760001 315 
L 176.760001 314.159555 
L 175.745449 314.159555 
z
" style="fill:#1f77b4;"/>
   </g>
   <g id="patch_109">
    <path clip-path="url(#p3e3434e096)" d="M 176.760001 315 
L 177.774552 315 
L 177.774552 311.638219 
L 176.760001 311.638219 
z
" style="fill:#1f77b4;"/>
   </g>
   <g id="patch_110">
    <path clip-path="url(#p3e3434e096)" d="M 177.774537 315 
L 178.789088 315 
L 178.789088 310.797774 
L 177.774537 310.797774 
z
" style="fill:#1f77b4;"/>
   </g>
   <g id="patch_111">
    <path clip-path="url(#p3e3434e096)" d="M 178.789088 315 
L 179.80364 315 
L 179.80364 312.898887 
L 178.789088 312.898887 
z
" style="fill:#1f77b4;"/>
   </g>
   <g id="patch_112">
    <path clip-path="url(#p3e3434e096)" d="M 179.80364 315 
L 180.818192 315 
L 180.818192 309.957328 
L 179.80364 309.957328 
z
" style="fill:#1f77b4;"/>
   </g>
   <g id="patch_113">
    <path clip-path="url(#p3e3434e096)" d="M 180.818176 315 
L 181.832728 315 
L 181.832728 311.217996 
L 180.818176 311.217996 
z
" style="fill:#1f77b4;"/>
   </g>
   <g id="patch_114">
    <path clip-path="url(#p3e3434e096)" d="M 181.832724 315 
L 182.847276 315 
L 182.847276 313.319109 
L 181.832724 313.319109 
z
" style="fill:#1f77b4;"/>
   </g>
   <g id="patch_115">
    <path clip-path="url(#p3e3434e096)" d="M 182.847272 315 
L 183.861823 315 
L 183.861823 309.537106 
L 182.847272 309.537106 
z
" style="fill:#1f77b4;"/>
   </g>
   <g id="patch_116">
    <path clip-path="url(#p3e3434e096)" d="M 183.861815 315 
L 184.876367 315 
L 184.876367 310.797774 
L 183.861815 310.797774 
z
" style="fill:#1f77b4;"/>
   </g>
   <g id="patch_117">
    <path clip-path="url(#p3e3434e096)" d="M 184.876359 315 
L 185.890911 315 
L 185.890911 311.217996 
L 184.876359 311.217996 
z
" style="fill:#1f77b4;"/>
   </g>
   <g id="patch_118">
    <path clip-path="url(#p3e3434e096)" d="M 185.890907 315 
L 186.905459 315 
L 186.905459 312.058442 
L 185.890907 312.058442 
z
" style="fill:#1f77b4;"/>
   </g>
   <g id="patch_119">
    <path clip-path="url(#p3e3434e096)" d="M 186.905451 315 
L 187.920003 315 
L 187.920003 309.116883 
L 186.905451 309.116883 
z
" style="fill:#1f77b4;"/>
   </g>
   <g id="patch_120">
    <path clip-path="url(#p3e3434e096)" d="M 187.919999 315 
L 188.93455 315 
L 188.93455 308.276438 
L 187.919999 308.276438 
z
" style="fill:#1f77b4;"/>
   </g>
   <g id="patch_121">
    <path clip-path="url(#p3e3434e096)" d="M 188.934542 315 
L 189.949094 315 
L 189.949094 308.276438 
L 188.934542 308.276438 
z
" style="fill:#1f77b4;"/>
   </g>
   <g id="patch_122">
    <path clip-path="url(#p3e3434e096)" d="M 189.949086 315 
L 190.963638 315 
L 190.963638 307.435993 
L 189.949086 307.435993 
z
" style="fill:#1f77b4;"/>
   </g>
   <g id="patch_123">
    <path clip-path="url(#p3e3434e096)" d="M 190.963634 315 
L 191.978186 315 
L 191.978186 308.276438 
L 190.963634 308.276438 
z
" style="fill:#1f77b4;"/>
   </g>
   <g id="patch_124">
    <path clip-path="url(#p3e3434e096)" d="M 191.978178 315 
L 192.99273 315 
L 192.99273 308.276438 
L 191.978178 308.276438 
z
" style="fill:#1f77b4;"/>
   </g>
   <g id="patch_125">
    <path clip-path="url(#p3e3434e096)" d="M 192.992726 315 
L 194.007277 315 
L 194.007277 311.638219 
L 192.992726 311.638219 
z
" style="fill:#1f77b4;"/>
   </g>
   <g id="patch_126">
    <path clip-path="url(#p3e3434e096)" d="M 194.007269 315 
L 195.021821 315 
L 195.021821 300.71243 
L 194.007269 300.71243 
z
" style="fill:#1f77b4;"/>
   </g>
   <g id="patch_127">
    <path clip-path="url(#p3e3434e096)" d="M 195.021813 315 
L 196.036365 315 
L 196.036365 304.494434 
L 195.021813 304.494434 
z
" style="fill:#1f77b4;"/>
   </g>
   <g id="patch_128">
    <path clip-path="url(#p3e3434e096)" d="M 196.036361 315 
L 197.050913 315 
L 197.050913 303.233766 
L 196.036361 303.233766 
z
" style="fill:#1f77b4;"/>
   </g>
   <g id="patch_129">
    <path clip-path="url(#p3e3434e096)" d="M 197.050905 315 
L 198.065457 315 
L 198.065457 302.393321 
L 197.050905 302.393321 
z
" style="fill:#1f77b4;"/>
   </g>
   <g id="patch_130">
    <path clip-path="url(#p3e3434e096)" d="M 198.065453 315 
L 199.080004 315 
L 199.080004 299.03154 
L 198.065453 299.03154 
z
" style="fill:#1f77b4;"/>
   </g>
   <g id="patch_131">
    <path clip-path="url(#p3e3434e096)" d="M 199.079996 315 
L 200.094548 315 
L 200.094548 302.393321 
L 199.079996 302.393321 
z
" style="fill:#1f77b4;"/>
   </g>
   <g id="patch_132">
    <path clip-path="url(#p3e3434e096)" d="M 200.09454 315 
L 201.109092 315 
L 201.109092 304.494434 
L 200.09454 304.494434 
z
" style="fill:#1f77b4;"/>
   </g>
   <g id="patch_133">
    <path clip-path="url(#p3e3434e096)" d="M 201.109088 315 
L 202.12364 315 
L 202.12364 299.451763 
L 201.109088 299.451763 
z
" style="fill:#1f77b4;"/>
   </g>
   <g id="patch_134">
    <path clip-path="url(#p3e3434e096)" d="M 202.123636 315 
L 203.138188 315 
L 203.138188 298.611317 
L 202.123636 298.611317 
z
" style="fill:#1f77b4;"/>
   </g>
   <g id="patch_135">
    <path clip-path="url(#p3e3434e096)" d="M 203.13818 315 
L 204.152731 315 
L 204.152731 296.930427 
L 203.13818 296.930427 
z
" style="fill:#1f77b4;"/>
   </g>
   <g id="patch_136">
    <path clip-path="url(#p3e3434e096)" d="M 204.152723 315 
L 205.167275 315 
L 205.167275 294.409091 
L 204.152723 294.409091 
z
" style="fill:#1f77b4;"/>
   </g>
   <g id="patch_137">
    <path clip-path="url(#p3e3434e096)" d="M 205.167267 315 
L 206.181819 315 
L 206.181819 292.307978 
L 205.167267 292.307978 
z
" style="fill:#1f77b4;"/>
   </g>
   <g id="patch_138">
    <path clip-path="url(#p3e3434e096)" d="M 206.181815 315 
L 207.196367 315 
L 207.196367 289.786642 
L 206.181815 289.786642 
z
" style="fill:#1f77b4;"/>
   </g>
   <g id="patch_139">
    <path clip-path="url(#p3e3434e096)" d="M 207.196363 315 
L 208.210915 315 
L 208.210915 293.568646 
L 207.196363 293.568646 
z
" style="fill:#1f77b4;"/>
   </g>
   <g id="patch_140">
    <path clip-path="url(#p3e3434e096)" d="M 208.210907 315 
L 209.225458 315 
L 209.225458 286.424861 
L 208.210907 286.424861 
z
" style="fill:#1f77b4;"/>
   </g>
   <g id="patch_141">
    <path clip-path="url(#p3e3434e096)" d="M 209.22545 315 
L 210.240002 315 
L 210.240002 287.685529 
L 209.22545 287.685529 
z
" style="fill:#1f77b4;"/>
   </g>
   <g id="patch_142">
    <path clip-path="url(#p3e3434e096)" d="M 210.239994 315 
L 211.254546 315 
L 211.254546 276.75974 
L 210.239994 276.75974 
z
" style="fill:#1f77b4;"/>
   </g>
   <g id="patch_143">
    <path clip-path="url(#p3e3434e096)" d="M 211.254542 315 
L 212.269094 315 
L 212.269094 278.860853 
L 211.254542 278.860853 
z
" style="fill:#1f77b4;"/>
   </g>
   <g id="patch_144">
    <path clip-path="url(#p3e3434e096)" d="M 212.26909 315 
L 213.283642 315 
L 213.283642 272.977737 
L 212.26909 272.977737 
z
" style="fill:#1f77b4;"/>
   </g>
   <g id="patch_145">
    <path clip-path="url(#p3e3434e096)" d="M 213.283634 315 
L 214.298185 315 
L 214.298185 267.935065 
L 213.283634 267.935065 
z
" style="fill:#1f77b4;"/>
   </g>
   <g id="patch_146">
    <path clip-path="url(#p3e3434e096)" d="M 214.298177 315 
L 215.312729 315 
L 215.312729 263.312616 
L 214.298177 263.312616 
z
" style="fill:#1f77b4;"/>
   </g>
   <g id="patch_147">
    <path clip-path="url(#p3e3434e096)" d="M 215.312725 315 
L 216.327277 315 
L 216.327277 261.631725 
L 215.312725 261.631725 
z
" style="fill:#1f77b4;"/>
   </g>
   <g id="patch_148">
    <path clip-path="url(#p3e3434e096)" d="M 216.327269 315 
L 217.341821 315 
L 217.341821 259.950835 
L 216.327269 259.950835 
z
" style="fill:#1f77b4;"/>
   </g>
   <g id="patch_149">
    <path clip-path="url(#p3e3434e096)" d="M 217.341817 315 
L 218.356369 315 
L 218.356369 259.11039 
L 217.341817 259.11039 
z
" style="fill:#1f77b4;"/>
   </g>
   <g id="patch_150">
    <path clip-path="url(#p3e3434e096)" d="M 218.356361 315 
L 219.370912 315 
L 219.370912 253.647495 
L 218.356361 253.647495 
z
" style="fill:#1f77b4;"/>
   </g>
   <g id="patch_151">
    <path clip-path="url(#p3e3434e096)" d="M 219.370904 315 
L 220.385456 315 
L 220.385456 253.227273 
L 219.370904 253.227273 
z
" style="fill:#1f77b4;"/>
   </g>
   <g id="patch_152">
    <path clip-path="url(#p3e3434e096)" d="M 220.385452 315 
L 221.400004 315 
L 221.400004 246.503711 
L 220.385452 246.503711 
z
" style="fill:#1f77b4;"/>
   </g>
   <g id="patch_153">
    <path clip-path="url(#p3e3434e096)" d="M 221.399996 315 
L 222.414548 315 
L 222.414548 236.83859 
L 221.399996 236.83859 
z
" style="fill:#1f77b4;"/>
   </g>
   <g id="patch_154">
    <path clip-path="url(#p3e3434e096)" d="M 222.414544 315 
L 223.429096 315 
L 223.429096 235.157699 
L 222.414544 235.157699 
z
" style="fill:#1f77b4;"/>
   </g>
   <g id="patch_155">
    <path clip-path="url(#p3e3434e096)" d="M 223.429088 315 
L 224.443639 315 
L 224.443639 240.200371 
L 223.429088 240.200371 
z
" style="fill:#1f77b4;"/>
   </g>
   <g id="patch_156">
    <path clip-path="url(#p3e3434e096)" d="M 224.443631 315 
L 225.458183 315 
L 225.458183 241.040816 
L 224.443631 241.040816 
z
" style="fill:#1f77b4;"/>
   </g>
   <g id="patch_157">
    <path clip-path="url(#p3e3434e096)" d="M 225.458179 315 
L 226.472731 315 
L 226.472731 222.130798 
L 225.458179 222.130798 
z
" style="fill:#1f77b4;"/>
   </g>
   <g id="patch_158">
    <path clip-path="url(#p3e3434e096)" d="M 226.472723 315 
L 227.487275 315 
L 227.487275 214.146568 
L 226.472723 214.146568 
z
" style="fill:#1f77b4;"/>
   </g>
   <g id="patch_159">
    <path clip-path="url(#p3e3434e096)" d="M 227.487271 315 
L 228.501823 315 
L 228.501823 207.002783 
L 227.487271 207.002783 
z
" style="fill:#1f77b4;"/>
   </g>
   <g id="patch_160">
    <path clip-path="url(#p3e3434e096)" d="M 228.501815 315 
L 229.516366 315 
L 229.516366 197.757885 
L 228.501815 197.757885 
z
" style="fill:#1f77b4;"/>
   </g>
   <g id="patch_161">
    <path clip-path="url(#p3e3434e096)" d="M 229.51636 315 
L 230.530912 315 
L 230.530912 197.337662 
L 229.51636 197.337662 
z
" style="fill:#1f77b4;"/>
   </g>
   <g id="patch_162">
    <path clip-path="url(#p3e3434e096)" d="M 230.530906 315 
L 231.545458 315 
L 231.545458 196.497217 
L 230.530906 196.497217 
z
" style="fill:#1f77b4;"/>
   </g>
   <g id="patch_163">
    <path clip-path="url(#p3e3434e096)" d="M 231.545452 315 
L 232.560004 315 
L 232.560004 174.64564 
L 231.545452 174.64564 
z
" style="fill:#1f77b4;"/>
   </g>
   <g id="patch_164">
    <path clip-path="url(#p3e3434e096)" d="M 232.559997 315 
L 233.574549 315 
L 233.574549 165.820965 
L 232.559997 165.820965 
z
" style="fill:#1f77b4;"/>
   </g>
   <g id="patch_165">
    <path clip-path="url(#p3e3434e096)" d="M 233.574542 315 
L 234.589093 315 
L 234.589093 164.980519 
L 233.574542 164.980519 
z
" style="fill:#1f77b4;"/>
   </g>
   <g id="patch_166">
    <path clip-path="url(#p3e3434e096)" d="M 234.589087 315 
L 235.603639 315 
L 235.603639 160.778293 
L 234.589087 160.778293 
z
" style="fill:#1f77b4;"/>
   </g>
   <g id="patch_167">
    <path clip-path="url(#p3e3434e096)" d="M 235.603633 315 
L 236.618185 315 
L 236.618185 128.841373 
L 235.603633 128.841373 
z
" style="fill:#1f77b4;"/>
   </g>
   <g id="patch_168">
    <path clip-path="url(#p3e3434e096)" d="M 236.618179 315 
L 237.632731 315 
L 237.632731 130.942486 
L 236.618179 130.942486 
z
" style="fill:#1f77b4;"/>
   </g>
   <g id="patch_169">
    <path clip-path="url(#p3e3434e096)" d="M 237.632724 315 
L 238.647276 315 
L 238.647276 114.974026 
L 237.632724 114.974026 
z
" style="fill:#1f77b4;"/>
   </g>
   <g id="patch_170">
    <path clip-path="url(#p3e3434e096)" d="M 238.64727 315 
L 239.661821 315 
L 239.661821 130.522263 
L 238.64727 130.522263 
z
" style="fill:#1f77b4;"/>
   </g>
   <g id="patch_171">
    <path clip-path="url(#p3e3434e096)" d="M 239.661815 315 
L 240.676367 315 
L 240.676367 101.947124 
L 239.661815 101.947124 
z
" style="fill:#1f77b4;"/>
   </g>
   <g id="patch_172">
    <path clip-path="url(#p3e3434e096)" d="M 240.67636 315 
L 241.690912 315 
L 241.690912 95.223562 
L 240.67636 95.223562 
z
" style="fill:#1f77b4;"/>
   </g>
   <g id="patch_173">
    <path clip-path="url(#p3e3434e096)" d="M 241.690906 315 
L 242.705458 315 
L 242.705458 87.659555 
L 241.690906 87.659555 
z
" style="fill:#1f77b4;"/>
   </g>
   <g id="patch_174">
    <path clip-path="url(#p3e3434e096)" d="M 242.705451 315 
L 243.720003 315 
L 243.720003 104.048237 
L 242.705451 104.048237 
z
" style="fill:#1f77b4;"/>
   </g>
   <g id="patch_175">
    <path clip-path="url(#p3e3434e096)" d="M 243.719997 315 
L 244.734548 315 
L 244.734548 80.51577 
L 243.719997 80.51577 
z
" style="fill:#1f77b4;"/>
   </g>
   <g id="patch_176">
    <path clip-path="url(#p3e3434e096)" d="M 244.734542 315 
L 245.749094 315 
L 245.749094 56.142857 
L 244.734542 56.142857 
z
" style="fill:#1f77b4;"/>
   </g>
   <g id="patch_177">
    <path clip-path="url(#p3e3434e096)" d="M 245.749088 315 
L 246.763639 315 
L 246.763639 87.239332 
L 245.749088 87.239332 
z
" style="fill:#1f77b4;"/>
   </g>
   <g id="patch_178">
    <path clip-path="url(#p3e3434e096)" d="M 246.763633 315 
L 247.778185 315 
L 247.778185 89.760668 
L 246.763633 89.760668 
z
" style="fill:#1f77b4;"/>
   </g>
   <g id="patch_179">
    <path clip-path="url(#p3e3434e096)" d="M 247.778179 315 
L 248.79273 315 
L 248.79273 92.702226 
L 247.778179 92.702226 
z
" style="fill:#1f77b4;"/>
   </g>
   <g id="patch_180">
    <path clip-path="url(#p3e3434e096)" d="M 248.792724 315 
L 249.807276 315 
L 249.807276 96.48423 
L 248.792724 96.48423 
z
" style="fill:#1f77b4;"/>
   </g>
   <g id="patch_181">
    <path clip-path="url(#p3e3434e096)" d="M 249.807269 315 
L 250.821821 315 
L 250.821821 97.744898 
L 249.807269 97.744898 
z
" style="fill:#1f77b4;"/>
   </g>
   <g id="patch_182">
    <path clip-path="url(#p3e3434e096)" d="M 250.821815 315 
L 251.836367 315 
L 251.836367 93.962894 
L 250.821815 93.962894 
z
" style="fill:#1f77b4;"/>
   </g>
   <g id="patch_183">
    <path clip-path="url(#p3e3434e096)" d="M 251.836361 315 
L 252.850912 315 
L 252.850912 113.293135 
L 251.836361 113.293135 
z
" style="fill:#1f77b4;"/>
   </g>
   <g id="patch_184">
    <path clip-path="url(#p3e3434e096)" d="M 252.850906 315 
L 253.865458 315 
L 253.865458 127.580705 
L 252.850906 127.580705 
z
" style="fill:#1f77b4;"/>
   </g>
   <g id="patch_185">
    <path clip-path="url(#p3e3434e096)" d="M 253.865452 315 
L 254.880003 315 
L 254.880003 133.043599 
L 253.865452 133.043599 
z
" style="fill:#1f77b4;"/>
   </g>
   <g id="patch_186">
    <path clip-path="url(#p3e3434e096)" d="M 254.879996 315 
L 255.894548 315 
L 255.894548 136.825603 
L 254.879996 136.825603 
z
" style="fill:#1f77b4;"/>
   </g>
   <g id="patch_187">
    <path clip-path="url(#p3e3434e096)" d="M 255.894542 315 
L 256.909094 315 
L 256.909094 154.895176 
L 255.894542 154.895176 
z
" style="fill:#1f77b4;"/>
   </g>
   <g id="patch_188">
    <path clip-path="url(#p3e3434e096)" d="M 256.909088 315 
L 257.92364 315 
L 257.92364 151.953618 
L 256.909088 151.953618 
z
" style="fill:#1f77b4;"/>
   </g>
   <g id="patch_189">
    <path clip-path="url(#p3e3434e096)" d="M 257.923633 315 
L 258.938185 315 
L 258.938185 170.863636 
L 257.923633 170.863636 
z
" style="fill:#1f77b4;"/>
   </g>
   <g id="patch_190">
    <path clip-path="url(#p3e3434e096)" d="M 258.938179 315 
L 259.95273 315 
L 259.95273 188.512987 
L 258.938179 188.512987 
z
" style="fill:#1f77b4;"/>
   </g>
   <g id="patch_191">
    <path clip-path="url(#p3e3434e096)" d="M 259.952724 315 
L 260.967276 315 
L 260.967276 193.555659 
L 259.952724 193.555659 
z
" style="fill:#1f77b4;"/>
   </g>
   <g id="patch_192">
    <path clip-path="url(#p3e3434e096)" d="M 260.967269 315 
L 261.981821 315 
L 261.981821 203.641002 
L 260.967269 203.641002 
z
" style="fill:#1f77b4;"/>
   </g>
   <g id="patch_193">
    <path clip-path="url(#p3e3434e096)" d="M 261.981815 315 
L 262.996367 315 
L 262.996367 206.58256 
L 261.981815 206.58256 
z
" style="fill:#1f77b4;"/>
   </g>
   <g id="patch_194">
    <path clip-path="url(#p3e3434e096)" d="M 262.996361 315 
L 264.010912 315 
L 264.010912 238.519481 
L 262.996361 238.519481 
z
" style="fill:#1f77b4;"/>
   </g>
   <g id="patch_195">
    <path clip-path="url(#p3e3434e096)" d="M 264.010908 315 
L 265.025459 315 
L 265.025459 234.737477 
L 264.010908 234.737477 
z
" style="fill:#1f77b4;"/>
   </g>
   <g id="patch_196">
    <path clip-path="url(#p3e3434e096)" d="M 265.025451 315 
L 266.040003 315 
L 266.040003 243.982375 
L 265.025451 243.982375 
z
" style="fill:#1f77b4;"/>
   </g>
   <g id="patch_197">
    <path clip-path="url(#p3e3434e096)" d="M 266.039995 315 
L 267.054547 315 
L 267.054547 241.881262 
L 266.039995 241.881262 
z
" style="fill:#1f77b4;"/>
   </g>
   <g id="patch_198">
    <path clip-path="url(#p3e3434e096)" d="M 267.054543 315 
L 268.069095 315 
L 268.069095 257.009276 
L 267.054543 257.009276 
z
" style="fill:#1f77b4;"/>
   </g>
   <g id="patch_199">
    <path clip-path="url(#p3e3434e096)" d="M 268.069087 315 
L 269.083639 315 
L 269.083639 262.892393 
L 268.069087 262.892393 
z
" style="fill:#1f77b4;"/>
   </g>
   <g id="patch_200">
    <path clip-path="url(#p3e3434e096)" d="M 269.083635 315 
L 270.098186 315 
L 270.098186 269.195733 
L 269.083635 269.195733 
z
" style="fill:#1f77b4;"/>
   </g>
   <g id="patch_201">
    <path clip-path="url(#p3e3434e096)" d="M 270.098178 315 
L 271.11273 315 
L 271.11273 270.876623 
L 270.098178 270.876623 
z
" style="fill:#1f77b4;"/>
   </g>
   <g id="patch_202">
    <path clip-path="url(#p3e3434e096)" d="M 271.112724 315 
L 272.127276 315 
L 272.127276 279.281076 
L 271.112724 279.281076 
z
" style="fill:#1f77b4;"/>
   </g>
   <g id="patch_203">
    <path clip-path="url(#p3e3434e096)" d="M 272.12727 315 
L 273.141822 315 
L 273.141822 278.860853 
L 272.12727 278.860853 
z
" style="fill:#1f77b4;"/>
   </g>
   <g id="patch_204">
    <path clip-path="url(#p3e3434e096)" d="M 273.141814 315 
L 274.156366 315 
L 274.156366 281.382189 
L 273.141814 281.382189 
z
" style="fill:#1f77b4;"/>
   </g>
   <g id="patch_205">
    <path clip-path="url(#p3e3434e096)" d="M 274.156362 315 
L 275.170913 315 
L 275.170913 277.600186 
L 274.156362 277.600186 
z
" style="fill:#1f77b4;"/>
   </g>
   <g id="patch_206">
    <path clip-path="url(#p3e3434e096)" d="M 275.170906 315 
L 276.185457 315 
L 276.185457 288.525974 
L 275.170906 288.525974 
z
" style="fill:#1f77b4;"/>
   </g>
   <g id="patch_207">
    <path clip-path="url(#p3e3434e096)" d="M 276.185451 315 
L 277.200003 315 
L 277.200003 292.7282 
L 276.185451 292.7282 
z
" style="fill:#1f77b4;"/>
   </g>
   <g id="patch_208">
    <path clip-path="url(#p3e3434e096)" d="M 277.199997 315 
L 278.214549 315 
L 278.214549 295.669759 
L 277.199997 295.669759 
z
" style="fill:#1f77b4;"/>
   </g>
   <g id="patch_209">
    <path clip-path="url(#p3e3434e096)" d="M 278.214541 315 
L 279.229093 315 
L 279.229093 292.307978 
L 278.214541 292.307978 
z
" style="fill:#1f77b4;"/>
   </g>
   <g id="patch_210">
    <path clip-path="url(#p3e3434e096)" d="M 279.229089 315 
L 280.24364 315 
L 280.24364 303.233766 
L 279.229089 303.233766 
z
" style="fill:#1f77b4;"/>
   </g>
   <g id="patch_211">
    <path clip-path="url(#p3e3434e096)" d="M 280.243633 315 
L 281.258184 315 
L 281.258184 298.611317 
L 280.243633 298.611317 
z
" style="fill:#1f77b4;"/>
   </g>
   <g id="patch_212">
    <path clip-path="url(#p3e3434e096)" d="M 281.25818 315 
L 282.272732 315 
L 282.272732 305.334879 
L 281.25818 305.334879 
z
" style="fill:#1f77b4;"/>
   </g>
   <g id="patch_213">
    <path clip-path="url(#p3e3434e096)" d="M 282.272724 315 
L 283.287276 315 
L 283.287276 305.755102 
L 282.272724 305.755102 
z
" style="fill:#1f77b4;"/>
   </g>
   <g id="patch_214">
    <path clip-path="url(#p3e3434e096)" d="M 283.287268 315 
L 284.30182 315 
L 284.30182 304.074212 
L 283.287268 304.074212 
z
" style="fill:#1f77b4;"/>
   </g>
   <g id="patch_215">
    <path clip-path="url(#p3e3434e096)" d="M 284.301816 315 
L 285.316367 315 
L 285.316367 302.393321 
L 284.301816 302.393321 
z
" style="fill:#1f77b4;"/>
   </g>
   <g id="patch_216">
    <path clip-path="url(#p3e3434e096)" d="M 285.31636 315 
L 286.330911 315 
L 286.330911 306.175325 
L 285.31636 306.175325 
z
" style="fill:#1f77b4;"/>
   </g>
   <g id="patch_217">
    <path clip-path="url(#p3e3434e096)" d="M 286.330907 315 
L 287.345459 315 
L 287.345459 305.755102 
L 286.330907 305.755102 
z
" style="fill:#1f77b4;"/>
   </g>
   <g id="patch_218">
    <path clip-path="url(#p3e3434e096)" d="M 287.345451 315 
L 288.360003 315 
L 288.360003 307.856215 
L 287.345451 307.856215 
z
" style="fill:#1f77b4;"/>
   </g>
   <g id="patch_219">
    <path clip-path="url(#p3e3434e096)" d="M 288.359995 315 
L 289.374547 315 
L 289.374547 307.435993 
L 288.359995 307.435993 
z
" style="fill:#1f77b4;"/>
   </g>
   <g id="patch_220">
    <path clip-path="url(#p3e3434e096)" d="M 289.374543 315 
L 290.389094 315 
L 290.389094 308.276438 
L 289.374543 308.276438 
z
" style="fill:#1f77b4;"/>
   </g>
   <g id="patch_221">
    <path clip-path="url(#p3e3434e096)" d="M 290.38909 315 
L 291.403642 315 
L 291.403642 309.116883 
L 290.38909 309.116883 
z
" style="fill:#1f77b4;"/>
   </g>
   <g id="patch_222">
    <path clip-path="url(#p3e3434e096)" d="M 291.403634 315 
L 292.418186 315 
L 292.418186 310.377551 
L 291.403634 310.377551 
z
" style="fill:#1f77b4;"/>
   </g>
   <g id="patch_223">
    <path clip-path="url(#p3e3434e096)" d="M 292.418178 315 
L 293.43273 315 
L 293.43273 310.377551 
L 292.418178 310.377551 
z
" style="fill:#1f77b4;"/>
   </g>
   <g id="patch_224">
    <path clip-path="url(#p3e3434e096)" d="M 293.432722 315 
L 294.447274 315 
L 294.447274 311.638219 
L 293.432722 311.638219 
z
" style="fill:#1f77b4;"/>
   </g>
   <g id="patch_225">
    <path clip-path="url(#p3e3434e096)" d="M 294.44727 315 
L 295.461821 315 
L 295.461821 309.116883 
L 294.44727 309.116883 
z
" style="fill:#1f77b4;"/>
   </g>
   <g id="patch_226">
    <path clip-path="url(#p3e3434e096)" d="M 295.461817 315 
L 296.476369 315 
L 296.476369 310.797774 
L 295.461817 310.797774 
z
" style="fill:#1f77b4;"/>
   </g>
   <g id="patch_227">
    <path clip-path="url(#p3e3434e096)" d="M 296.476361 315 
L 297.490913 315 
L 297.490913 309.957328 
L 296.476361 309.957328 
z
" style="fill:#1f77b4;"/>
   </g>
   <g id="patch_228">
    <path clip-path="url(#p3e3434e096)" d="M 297.490905 315 
L 298.505457 315 
L 298.505457 313.739332 
L 297.490905 313.739332 
z
" style="fill:#1f77b4;"/>
   </g>
   <g id="patch_229">
    <path clip-path="url(#p3e3434e096)" d="M 298.505449 315 
L 299.520001 315 
L 299.520001 312.898887 
L 298.505449 312.898887 
z
" style="fill:#1f77b4;"/>
   </g>
   <g id="patch_230">
    <path clip-path="url(#p3e3434e096)" d="M 299.519997 315 
L 300.534548 315 
L 300.534548 312.898887 
L 299.519997 312.898887 
z
" style="fill:#1f77b4;"/>
   </g>
   <g id="patch_231">
    <path clip-path="url(#p3e3434e096)" d="M 300.534545 315 
L 301.549096 315 
L 301.549096 314.579777 
L 300.534545 314.579777 
z
" style="fill:#1f77b4;"/>
   </g>
   <g id="patch_232">
    <path clip-path="url(#p3e3434e096)" d="M 301.549088 315 
L 302.56364 315 
L 302.56364 312.478664 
L 301.549088 312.478664 
z
" style="fill:#1f77b4;"/>
   </g>
   <g id="patch_233">
    <path clip-path="url(#p3e3434e096)" d="M 302.563632 315 
L 303.578184 315 
L 303.578184 313.739332 
L 302.563632 313.739332 
z
" style="fill:#1f77b4;"/>
   </g>
   <g id="patch_234">
    <path clip-path="url(#p3e3434e096)" d="M 303.578176 315 
L 304.592728 315 
L 304.592728 313.319109 
L 303.578176 313.319109 
z
" style="fill:#1f77b4;"/>
   </g>
   <g id="patch_235">
    <path clip-path="url(#p3e3434e096)" d="M 304.592724 315 
L 305.607275 315 
L 305.607275 313.319109 
L 304.592724 313.319109 
z
" style="fill:#1f77b4;"/>
   </g>
   <g id="patch_236">
    <path clip-path="url(#p3e3434e096)" d="M 305.607272 315 
L 306.621823 315 
L 306.621823 314.159555 
L 305.607272 314.159555 
z
" style="fill:#1f77b4;"/>
   </g>
   <g id="patch_237">
    <path clip-path="url(#p3e3434e096)" d="M 306.621815 315 
L 307.636367 315 
L 307.636367 313.739332 
L 306.621815 313.739332 
z
" style="fill:#1f77b4;"/>
   </g>
   <g id="patch_238">
    <path clip-path="url(#p3e3434e096)" d="M 307.636359 315 
L 308.650911 315 
L 308.650911 313.739332 
L 307.636359 313.739332 
z
" style="fill:#1f77b4;"/>
   </g>
   <g id="patch_239">
    <path clip-path="url(#p3e3434e096)" d="M 308.650907 315 
L 309.665459 315 
L 309.665459 314.579777 
L 308.650907 314.579777 
z
" style="fill:#1f77b4;"/>
   </g>
   <g id="patch_240">
    <path clip-path="url(#p3e3434e096)" d="M 309.665451 315 
L 310.680002 315 
L 310.680002 312.478664 
L 309.665451 312.478664 
z
" style="fill:#1f77b4;"/>
   </g>
   <g id="patch_241">
    <path clip-path="url(#p3e3434e096)" d="M 310.679999 315 
L 311.69455 315 
L 311.69455 314.579777 
L 310.679999 314.579777 
z
" style="fill:#1f77b4;"/>
   </g>
   <g id="patch_242">
    <path clip-path="url(#p3e3434e096)" d="M 311.694542 315 
L 312.709094 315 
L 312.709094 315 
L 311.694542 315 
z
" style="fill:#1f77b4;"/>
   </g>
   <g id="patch_243">
    <path clip-path="url(#p3e3434e096)" d="M 312.709086 315 
L 313.723638 315 
L 313.723638 314.579777 
L 312.709086 314.579777 
z
" style="fill:#1f77b4;"/>
   </g>
   <g id="patch_244">
    <path clip-path="url(#p3e3434e096)" d="M 313.72363 315 
L 314.738182 315 
L 314.738182 315 
L 313.72363 315 
z
" style="fill:#1f77b4;"/>
   </g>
   <g id="patch_245">
    <path clip-path="url(#p3e3434e096)" d="M 314.738182 315 
L 315.752733 315 
L 315.752733 314.579777 
L 314.738182 314.579777 
z
" style="fill:#1f77b4;"/>
   </g>
   <g id="patch_246">
    <path clip-path="url(#p3e3434e096)" d="M 315.752718 315 
L 316.767269 315 
L 316.767269 314.159555 
L 315.752718 314.159555 
z
" style="fill:#1f77b4;"/>
   </g>
   <g id="patch_247">
    <path clip-path="url(#p3e3434e096)" d="M 316.767269 315 
L 317.781821 315 
L 317.781821 314.159555 
L 316.767269 314.159555 
z
" style="fill:#1f77b4;"/>
   </g>
   <g id="patch_248">
    <path clip-path="url(#p3e3434e096)" d="M 317.781821 315 
L 318.796373 315 
L 318.796373 315 
L 317.781821 315 
z
" style="fill:#1f77b4;"/>
   </g>
   <g id="patch_249">
    <path clip-path="url(#p3e3434e096)" d="M 318.796357 315 
L 319.810909 315 
L 319.810909 315 
L 318.796357 315 
z
" style="fill:#1f77b4;"/>
   </g>
   <g id="patch_250">
    <path clip-path="url(#p3e3434e096)" d="M 319.810909 315 
L 320.82546 315 
L 320.82546 314.579777 
L 319.810909 314.579777 
z
" style="fill:#1f77b4;"/>
   </g>
   <g id="patch_251">
    <path clip-path="url(#p3e3434e096)" d="M 320.825445 315 
L 321.839996 315 
L 321.839996 314.579777 
L 320.825445 314.579777 
z
" style="fill:#1f77b4;"/>
   </g>
   <g id="patch_252">
    <path clip-path="url(#p3e3434e096)" d="M 321.839996 315 
L 322.854548 315 
L 322.854548 314.159555 
L 321.839996 314.159555 
z
" style="fill:#1f77b4;"/>
   </g>
   <g id="patch_253">
    <path clip-path="url(#p3e3434e096)" d="M 322.854548 315 
L 323.8691 315 
L 323.8691 315 
L 322.854548 315 
z
" style="fill:#1f77b4;"/>
   </g>
   <g id="patch_254">
    <path clip-path="url(#p3e3434e096)" d="M 323.869084 315 
L 324.883636 315 
L 324.883636 315 
L 323.869084 315 
z
" style="fill:#1f77b4;"/>
   </g>
   <g id="patch_255">
    <path clip-path="url(#p3e3434e096)" d="M 324.883636 315 
L 325.898187 315 
L 325.898187 314.159555 
L 324.883636 314.159555 
z
" style="fill:#1f77b4;"/>
   </g>
   <g id="patch_256">
    <path clip-path="url(#p3e3434e096)" d="M 325.898172 315 
L 326.912723 315 
L 326.912723 315 
L 325.898172 315 
z
" style="fill:#1f77b4;"/>
   </g>
   <g id="patch_257">
    <path clip-path="url(#p3e3434e096)" d="M 326.912723 315 
L 327.927275 315 
L 327.927275 315 
L 326.912723 315 
z
" style="fill:#1f77b4;"/>
   </g>
   <g id="patch_258">
    <path clip-path="url(#p3e3434e096)" d="M 327.927275 315 
L 328.941827 315 
L 328.941827 314.579777 
L 327.927275 314.579777 
z
" style="fill:#1f77b4;"/>
   </g>
   <g id="patch_259">
    <path clip-path="url(#p3e3434e096)" d="M 328.941811 315 
L 329.956363 315 
L 329.956363 315 
L 328.941811 315 
z
" style="fill:#1f77b4;"/>
   </g>
   <g id="patch_260">
    <path clip-path="url(#p3e3434e096)" d="M 329.956363 315 
L 330.970914 315 
L 330.970914 315 
L 329.956363 315 
z
" style="fill:#1f77b4;"/>
   </g>
   <g id="patch_261">
    <path clip-path="url(#p3e3434e096)" d="M 330.970907 315 
L 331.985458 315 
L 331.985458 315 
L 330.970907 315 
z
" style="fill:#1f77b4;"/>
   </g>
   <g id="patch_262">
    <path clip-path="url(#p3e3434e096)" d="M 331.98545 315 
L 333.000002 315 
L 333.000002 315 
L 331.98545 315 
z
" style="fill:#1f77b4;"/>
   </g>
   <g id="patch_263">
    <path clip-path="url(#p3e3434e096)" d="M 333.000002 315 
L 334.014554 315 
L 334.014554 314.579777 
L 333.000002 314.579777 
z
" style="fill:#1f77b4;"/>
   </g>
   <g id="patch_264">
    <path clip-path="url(#p3e3434e096)" d="M 334.014538 315 
L 335.02909 315 
L 335.02909 315 
L 334.014538 315 
z
" style="fill:#1f77b4;"/>
   </g>
   <g id="patch_265">
    <path clip-path="url(#p3e3434e096)" d="M 335.02909 315 
L 336.043641 315 
L 336.043641 315 
L 335.02909 315 
z
" style="fill:#1f77b4;"/>
   </g>
   <g id="patch_266">
    <path clip-path="url(#p3e3434e096)" d="M 336.043634 315 
L 337.058185 315 
L 337.058185 315 
L 336.043634 315 
z
" style="fill:#1f77b4;"/>
   </g>
   <g id="patch_267">
    <path clip-path="url(#p3e3434e096)" d="M 337.058177 315 
L 338.072729 315 
L 338.072729 315 
L 337.058177 315 
z
" style="fill:#1f77b4;"/>
   </g>
   <g id="patch_268">
    <path clip-path="url(#p3e3434e096)" d="M 338.072729 315 
L 339.087281 315 
L 339.087281 315 
L 338.072729 315 
z
" style="fill:#1f77b4;"/>
   </g>
   <g id="patch_269">
    <path clip-path="url(#p3e3434e096)" d="M 339.087265 315 
L 340.101817 315 
L 340.101817 315 
L 339.087265 315 
z
" style="fill:#1f77b4;"/>
   </g>
   <g id="patch_270">
    <path clip-path="url(#p3e3434e096)" d="M 340.101817 315 
L 341.116368 315 
L 341.116368 315 
L 340.101817 315 
z
" style="fill:#1f77b4;"/>
   </g>
   <g id="patch_271">
    <path clip-path="url(#p3e3434e096)" d="M 341.116361 315 
L 342.130912 315 
L 342.130912 315 
L 341.116361 315 
z
" style="fill:#1f77b4;"/>
   </g>
   <g id="patch_272">
    <path clip-path="url(#p3e3434e096)" d="M 342.130904 315 
L 343.145456 315 
L 343.145456 314.159555 
L 342.130904 314.159555 
z
" style="fill:#1f77b4;"/>
   </g>
   <g id="patch_273">
    <path clip-path="url(#p3e3434e096)" d="M 343.145456 315 
L 344.160008 315 
L 344.160008 314.579777 
L 343.145456 314.579777 
z
" style="fill:#1f77b4;"/>
   </g>
   <g id="patch_274">
    <path clip-path="url(#p3e3434e096)" d="M 344.159992 315 
L 345.174544 315 
L 345.174544 314.579777 
L 344.159992 314.579777 
z
" style="fill:#1f77b4;"/>
   </g>
   <g id="patch_275">
    <path clip-path="url(#p3e3434e096)" d="M 345.174544 315 
L 346.189095 315 
L 346.189095 315 
L 345.174544 315 
z
" style="fill:#1f77b4;"/>
   </g>
   <g id="patch_276">
    <path clip-path="url(#p3e3434e096)" d="M 346.189088 315 
L 347.203639 315 
L 347.203639 315 
L 346.189088 315 
z
" style="fill:#1f77b4;"/>
   </g>
   <g id="patch_277">
    <path clip-path="url(#p3e3434e096)" d="M 347.203631 315 
L 348.218183 315 
L 348.218183 315 
L 347.203631 315 
z
" style="fill:#1f77b4;"/>
   </g>
   <g id="patch_278">
    <path clip-path="url(#p3e3434e096)" d="M 348.218183 315 
L 349.232735 315 
L 349.232735 315 
L 348.218183 315 
z
" style="fill:#1f77b4;"/>
   </g>
   <g id="patch_279">
    <path clip-path="url(#p3e3434e096)" d="M 349.232719 315 
L 350.247271 315 
L 350.247271 315 
L 349.232719 315 
z
" style="fill:#1f77b4;"/>
   </g>
   <g id="patch_280">
    <path clip-path="url(#p3e3434e096)" d="M 350.247271 315 
L 351.261823 315 
L 351.261823 314.579777 
L 350.247271 314.579777 
z
" style="fill:#1f77b4;"/>
   </g>
   <g id="patch_281">
    <path clip-path="url(#p3e3434e096)" d="M 351.261815 315 
L 352.276366 315 
L 352.276366 315 
L 351.261815 315 
z
" style="fill:#1f77b4;"/>
   </g>
   <g id="patch_282">
    <path clip-path="url(#p3e3434e096)" d="M 352.276358 315 
L 353.29091 315 
L 353.29091 314.579777 
L 352.276358 314.579777 
z
" style="fill:#1f77b4;"/>
   </g>
   <g id="patch_283">
    <path clip-path="url(#p3e3434e096)" d="M 353.29091 315 
L 354.305462 315 
L 354.305462 315 
L 353.29091 315 
z
" style="fill:#1f77b4;"/>
   </g>
   <g id="patch_284">
    <path clip-path="url(#p3e3434e096)" d="M 354.305446 315 
L 355.319998 315 
L 355.319998 315 
L 354.305446 315 
z
" style="fill:#1f77b4;"/>
   </g>
   <g id="patch_285">
    <path clip-path="url(#p3e3434e096)" d="M 355.319998 315 
L 356.33455 315 
L 356.33455 315 
L 355.319998 315 
z
" style="fill:#1f77b4;"/>
   </g>
   <g id="patch_286">
    <path clip-path="url(#p3e3434e096)" d="M 356.334542 315 
L 357.349093 315 
L 357.349093 315 
L 356.334542 315 
z
" style="fill:#1f77b4;"/>
   </g>
   <g id="patch_287">
    <path clip-path="url(#p3e3434e096)" d="M 357.349085 315 
L 358.363637 315 
L 358.363637 315 
L 357.349085 315 
z
" style="fill:#1f77b4;"/>
   </g>
   <g id="patch_288">
    <path clip-path="url(#p3e3434e096)" d="M 358.363637 315 
L 359.378189 315 
L 359.378189 315 
L 358.363637 315 
z
" style="fill:#1f77b4;"/>
   </g>
   <g id="patch_289">
    <path clip-path="url(#p3e3434e096)" d="M 359.378173 315 
L 360.392725 315 
L 360.392725 315 
L 359.378173 315 
z
" style="fill:#1f77b4;"/>
   </g>
   <g id="patch_290">
    <path clip-path="url(#p3e3434e096)" d="M 360.392725 315 
L 361.407277 315 
L 361.407277 315 
L 360.392725 315 
z
" style="fill:#1f77b4;"/>
   </g>
   <g id="patch_291">
    <path clip-path="url(#p3e3434e096)" d="M 361.407277 315 
L 362.421828 315 
L 362.421828 315 
L 361.407277 315 
z
" style="fill:#1f77b4;"/>
   </g>
   <g id="patch_292">
    <path clip-path="url(#p3e3434e096)" d="M 362.421812 315 
L 363.436364 315 
L 363.436364 315 
L 362.421812 315 
z
" style="fill:#1f77b4;"/>
   </g>
   <g id="patch_293">
    <path clip-path="url(#p3e3434e096)" d="M 363.436364 315 
L 364.450916 315 
L 364.450916 315 
L 363.436364 315 
z
" style="fill:#1f77b4;"/>
   </g>
   <g id="patch_294">
    <path clip-path="url(#p3e3434e096)" d="M 364.4509 315 
L 365.465452 315 
L 365.465452 315 
L 364.4509 315 
z
" style="fill:#1f77b4;"/>
   </g>
   <g id="patch_295">
    <path clip-path="url(#p3e3434e096)" d="M 365.465452 315 
L 366.480004 315 
L 366.480004 315 
L 365.465452 315 
z
" style="fill:#1f77b4;"/>
   </g>
   <g id="patch_296">
    <path clip-path="url(#p3e3434e096)" d="M 366.480004 315 
L 367.494555 315 
L 367.494555 315 
L 366.480004 315 
z
" style="fill:#1f77b4;"/>
   </g>
   <g id="patch_297">
    <path clip-path="url(#p3e3434e096)" d="M 367.494539 315 
L 368.509091 315 
L 368.509091 315 
L 367.494539 315 
z
" style="fill:#1f77b4;"/>
   </g>
   <g id="patch_298">
    <path clip-path="url(#p3e3434e096)" d="M 368.509091 315 
L 369.523643 315 
L 369.523643 315 
L 368.509091 315 
z
" style="fill:#1f77b4;"/>
   </g>
   <g id="patch_299">
    <path clip-path="url(#p3e3434e096)" d="M 369.523627 315 
L 370.538179 315 
L 370.538179 315 
L 369.523627 315 
z
" style="fill:#1f77b4;"/>
   </g>
   <g id="patch_300">
    <path clip-path="url(#p3e3434e096)" d="M 370.538179 315 
L 371.552731 315 
L 371.552731 315 
L 370.538179 315 
z
" style="fill:#1f77b4;"/>
   </g>
   <g id="patch_301">
    <path clip-path="url(#p3e3434e096)" d="M 371.552731 315 
L 372.567282 315 
L 372.567282 315 
L 371.552731 315 
z
" style="fill:#1f77b4;"/>
   </g>
   <g id="patch_302">
    <path clip-path="url(#p3e3434e096)" d="M 372.567266 315 
L 373.581818 315 
L 373.581818 314.579777 
L 372.567266 314.579777 
z
" style="fill:#1f77b4;"/>
   </g>
   <g id="matplotlib.axis_1">
    <g id="xtick_1">
     <g id="line2d_1">
      <defs>
       <path d="M 0 0 
L 0 3.5 
" id="m509bfa8a7d" style="stroke:#000000;stroke-width:0.8;"/>
      </defs>
      <g>
       <use style="stroke:#000000;stroke-width:0.8;" x="114.558453" xlink:href="#m509bfa8a7d" y="315"/>
      </g>
     </g>
     <g id="text_1">
      <!-- 1.0 -->
      <defs>
       <path d="M 10.59375 35.5 
L 73.1875 35.5 
L 73.1875 27.203125 
L 10.59375 27.203125 
z
" id="DejaVuSans-8722"/>
       <path d="M 12.40625 8.296875 
L 28.515625 8.296875 
L 28.515625 63.921875 
L 10.984375 60.40625 
L 10.984375 69.390625 
L 28.421875 72.90625 
L 38.28125 72.90625 
L 38.28125 8.296875 
L 54.390625 8.296875 
L 54.390625 0 
L 12.40625 0 
z
" id="DejaVuSans-49"/>
       <path d="M 10.6875 12.40625 
L 21 12.40625 
L 21 0 
L 10.6875 0 
z
" id="DejaVuSans-46"/>
       <path d="M 31.78125 66.40625 
Q 24.171875 66.40625 20.328125 58.90625 
Q 16.5 51.421875 16.5 36.375 
Q 16.5 21.390625 20.328125 13.890625 
Q 24.171875 6.390625 31.78125 6.390625 
Q 39.453125 6.390625 43.28125 13.890625 
Q 47.125 21.390625 47.125 36.375 
Q 47.125 51.421875 43.28125 58.90625 
Q 39.453125 66.40625 31.78125 66.40625 
z
M 31.78125 74.21875 
Q 44.046875 74.21875 50.515625 64.515625 
Q 56.984375 54.828125 56.984375 36.375 
Q 56.984375 17.96875 50.515625 8.265625 
Q 44.046875 -1.421875 31.78125 -1.421875 
Q 19.53125 -1.421875 13.0625 8.265625 
Q 6.59375 17.96875 6.59375 36.375 
Q 6.59375 54.828125 13.0625 64.515625 
Q 19.53125 74.21875 31.78125 74.21875 
z
" id="DejaVuSans-48"/>
      </defs>
      <g transform="translate(98.774625 331.877969)scale(0.13 -0.13)">
       <use xlink:href="#DejaVuSans-8722"/>
       <use x="83.789062" xlink:href="#DejaVuSans-49"/>
       <use x="147.412109" xlink:href="#DejaVuSans-46"/>
       <use x="179.199219" xlink:href="#DejaVuSans-48"/>
      </g>
     </g>
    </g>
    <g id="xtick_2">
     <g id="line2d_2">
      <g>
       <use style="stroke:#000000;stroke-width:0.8;" x="180.847177" xlink:href="#m509bfa8a7d" y="315"/>
      </g>
     </g>
     <g id="text_2">
      <!-- 0.5 -->
      <defs>
       <path d="M 10.796875 72.90625 
L 49.515625 72.90625 
L 49.515625 64.59375 
L 19.828125 64.59375 
L 19.828125 46.734375 
Q 21.96875 47.46875 24.109375 47.828125 
Q 26.265625 48.1875 28.421875 48.1875 
Q 40.625 48.1875 47.75 41.5 
Q 54.890625 34.8125 54.890625 23.390625 
Q 54.890625 11.625 47.5625 5.09375 
Q 40.234375 -1.421875 26.90625 -1.421875 
Q 22.3125 -1.421875 17.546875 -0.640625 
Q 12.796875 0.140625 7.71875 1.703125 
L 7.71875 11.625 
Q 12.109375 9.234375 16.796875 8.0625 
Q 21.484375 6.890625 26.703125 6.890625 
Q 35.15625 6.890625 40.078125 11.328125 
Q 45.015625 15.765625 45.015625 23.390625 
Q 45.015625 31 40.078125 35.4375 
Q 35.15625 39.890625 26.703125 39.890625 
Q 22.75 39.890625 18.8125 39.015625 
Q 14.890625 38.140625 10.796875 36.28125 
z
" id="DejaVuSans-53"/>
      </defs>
      <g transform="translate(165.063349 331.877969)scale(0.13 -0.13)">
       <use xlink:href="#DejaVuSans-8722"/>
       <use x="83.789062" xlink:href="#DejaVuSans-48"/>
       <use x="147.412109" xlink:href="#DejaVuSans-46"/>
       <use x="179.199219" xlink:href="#DejaVuSans-53"/>
      </g>
     </g>
    </g>
    <g id="xtick_3">
     <g id="line2d_3">
      <g>
       <use style="stroke:#000000;stroke-width:0.8;" x="247.135901" xlink:href="#m509bfa8a7d" y="315"/>
      </g>
     </g>
     <g id="text_3">
      <!-- 0.0 -->
      <g transform="translate(236.79887 331.877969)scale(0.13 -0.13)">
       <use xlink:href="#DejaVuSans-48"/>
       <use x="63.623047" xlink:href="#DejaVuSans-46"/>
       <use x="95.410156" xlink:href="#DejaVuSans-48"/>
      </g>
     </g>
    </g>
    <g id="xtick_4">
     <g id="line2d_4">
      <g>
       <use style="stroke:#000000;stroke-width:0.8;" x="313.424625" xlink:href="#m509bfa8a7d" y="315"/>
      </g>
     </g>
     <g id="text_4">
      <!-- 0.5 -->
      <g transform="translate(303.087594 331.877969)scale(0.13 -0.13)">
       <use xlink:href="#DejaVuSans-48"/>
       <use x="63.623047" xlink:href="#DejaVuSans-46"/>
       <use x="95.410156" xlink:href="#DejaVuSans-53"/>
      </g>
     </g>
    </g>
    <g id="xtick_5">
     <g id="line2d_5">
      <g>
       <use style="stroke:#000000;stroke-width:0.8;" x="379.713349" xlink:href="#m509bfa8a7d" y="315"/>
      </g>
     </g>
     <g id="text_5">
      <!-- 1.0 -->
      <g transform="translate(369.376318 331.877969)scale(0.13 -0.13)">
       <use xlink:href="#DejaVuSans-49"/>
       <use x="63.623047" xlink:href="#DejaVuSans-46"/>
       <use x="95.410156" xlink:href="#DejaVuSans-48"/>
      </g>
     </g>
    </g>
    <g id="text_6">
     <!-- Weight value -->
     <defs>
      <path d="M 3.328125 72.90625 
L 13.28125 72.90625 
L 28.609375 11.28125 
L 43.890625 72.90625 
L 54.984375 72.90625 
L 70.3125 11.28125 
L 85.59375 72.90625 
L 95.609375 72.90625 
L 77.296875 0 
L 64.890625 0 
L 49.515625 63.28125 
L 33.984375 0 
L 21.578125 0 
z
" id="DejaVuSans-87"/>
      <path d="M 56.203125 29.59375 
L 56.203125 25.203125 
L 14.890625 25.203125 
Q 15.484375 15.921875 20.484375 11.0625 
Q 25.484375 6.203125 34.421875 6.203125 
Q 39.59375 6.203125 44.453125 7.46875 
Q 49.3125 8.734375 54.109375 11.28125 
L 54.109375 2.78125 
Q 49.265625 0.734375 44.1875 -0.34375 
Q 39.109375 -1.421875 33.890625 -1.421875 
Q 20.796875 -1.421875 13.15625 6.1875 
Q 5.515625 13.8125 5.515625 26.8125 
Q 5.515625 40.234375 12.765625 48.109375 
Q 20.015625 56 32.328125 56 
Q 43.359375 56 49.78125 48.890625 
Q 56.203125 41.796875 56.203125 29.59375 
z
M 47.21875 32.234375 
Q 47.125 39.59375 43.09375 43.984375 
Q 39.0625 48.390625 32.421875 48.390625 
Q 24.90625 48.390625 20.390625 44.140625 
Q 15.875 39.890625 15.1875 32.171875 
z
" id="DejaVuSans-101"/>
      <path d="M 9.421875 54.6875 
L 18.40625 54.6875 
L 18.40625 0 
L 9.421875 0 
z
M 9.421875 75.984375 
L 18.40625 75.984375 
L 18.40625 64.59375 
L 9.421875 64.59375 
z
" id="DejaVuSans-105"/>
      <path d="M 45.40625 27.984375 
Q 45.40625 37.75 41.375 43.109375 
Q 37.359375 48.484375 30.078125 48.484375 
Q 22.859375 48.484375 18.828125 43.109375 
Q 14.796875 37.75 14.796875 27.984375 
Q 14.796875 18.265625 18.828125 12.890625 
Q 22.859375 7.515625 30.078125 7.515625 
Q 37.359375 7.515625 41.375 12.890625 
Q 45.40625 18.265625 45.40625 27.984375 
z
M 54.390625 6.78125 
Q 54.390625 -7.171875 48.1875 -13.984375 
Q 42 -20.796875 29.203125 -20.796875 
Q 24.46875 -20.796875 20.265625 -20.09375 
Q 16.0625 -19.390625 12.109375 -17.921875 
L 12.109375 -9.1875 
Q 16.0625 -11.328125 19.921875 -12.34375 
Q 23.78125 -13.375 27.78125 -13.375 
Q 36.625 -13.375 41.015625 -8.765625 
Q 45.40625 -4.15625 45.40625 5.171875 
L 45.40625 9.625 
Q 42.625 4.78125 38.28125 2.390625 
Q 33.9375 0 27.875 0 
Q 17.828125 0 11.671875 7.65625 
Q 5.515625 15.328125 5.515625 27.984375 
Q 5.515625 40.671875 11.671875 48.328125 
Q 17.828125 56 27.875 56 
Q 33.9375 56 38.28125 53.609375 
Q 42.625 51.21875 45.40625 46.390625 
L 45.40625 54.6875 
L 54.390625 54.6875 
z
" id="DejaVuSans-103"/>
      <path d="M 54.890625 33.015625 
L 54.890625 0 
L 45.90625 0 
L 45.90625 32.71875 
Q 45.90625 40.484375 42.875 44.328125 
Q 39.84375 48.1875 33.796875 48.1875 
Q 26.515625 48.1875 22.3125 43.546875 
Q 18.109375 38.921875 18.109375 30.90625 
L 18.109375 0 
L 9.078125 0 
L 9.078125 75.984375 
L 18.109375 75.984375 
L 18.109375 46.1875 
Q 21.34375 51.125 25.703125 53.5625 
Q 30.078125 56 35.796875 56 
Q 45.21875 56 50.046875 50.171875 
Q 54.890625 44.34375 54.890625 33.015625 
z
" id="DejaVuSans-104"/>
      <path d="M 18.3125 70.21875 
L 18.3125 54.6875 
L 36.8125 54.6875 
L 36.8125 47.703125 
L 18.3125 47.703125 
L 18.3125 18.015625 
Q 18.3125 11.328125 20.140625 9.421875 
Q 21.96875 7.515625 27.59375 7.515625 
L 36.8125 7.515625 
L 36.8125 0 
L 27.59375 0 
Q 17.1875 0 13.234375 3.875 
Q 9.28125 7.765625 9.28125 18.015625 
L 9.28125 47.703125 
L 2.6875 47.703125 
L 2.6875 54.6875 
L 9.28125 54.6875 
L 9.28125 70.21875 
z
" id="DejaVuSans-116"/>
      <path id="DejaVuSans-32"/>
      <path d="M 2.984375 54.6875 
L 12.5 54.6875 
L 29.59375 8.796875 
L 46.6875 54.6875 
L 56.203125 54.6875 
L 35.6875 0 
L 23.484375 0 
z
" id="DejaVuSans-118"/>
      <path d="M 34.28125 27.484375 
Q 23.390625 27.484375 19.1875 25 
Q 14.984375 22.515625 14.984375 16.5 
Q 14.984375 11.71875 18.140625 8.90625 
Q 21.296875 6.109375 26.703125 6.109375 
Q 34.1875 6.109375 38.703125 11.40625 
Q 43.21875 16.703125 43.21875 25.484375 
L 43.21875 27.484375 
z
M 52.203125 31.203125 
L 52.203125 0 
L 43.21875 0 
L 43.21875 8.296875 
Q 40.140625 3.328125 35.546875 0.953125 
Q 30.953125 -1.421875 24.3125 -1.421875 
Q 15.921875 -1.421875 10.953125 3.296875 
Q 6 8.015625 6 15.921875 
Q 6 25.140625 12.171875 29.828125 
Q 18.359375 34.515625 30.609375 34.515625 
L 43.21875 34.515625 
L 43.21875 35.40625 
Q 43.21875 41.609375 39.140625 45 
Q 35.0625 48.390625 27.6875 48.390625 
Q 23 48.390625 18.546875 47.265625 
Q 14.109375 46.140625 10.015625 43.890625 
L 10.015625 52.203125 
Q 14.9375 54.109375 19.578125 55.046875 
Q 24.21875 56 28.609375 56 
Q 40.484375 56 46.34375 49.84375 
Q 52.203125 43.703125 52.203125 31.203125 
z
" id="DejaVuSans-97"/>
      <path d="M 9.421875 75.984375 
L 18.40625 75.984375 
L 18.40625 0 
L 9.421875 0 
z
" id="DejaVuSans-108"/>
      <path d="M 8.5 21.578125 
L 8.5 54.6875 
L 17.484375 54.6875 
L 17.484375 21.921875 
Q 17.484375 14.15625 20.5 10.265625 
Q 23.53125 6.390625 29.59375 6.390625 
Q 36.859375 6.390625 41.078125 11.03125 
Q 45.3125 15.671875 45.3125 23.6875 
L 45.3125 54.6875 
L 54.296875 54.6875 
L 54.296875 0 
L 45.3125 0 
L 45.3125 8.40625 
Q 42.046875 3.421875 37.71875 1 
Q 33.40625 -1.421875 27.6875 -1.421875 
Q 18.265625 -1.421875 13.375 4.4375 
Q 8.5 10.296875 8.5 21.578125 
z
M 31.109375 56 
z
" id="DejaVuSans-117"/>
     </defs>
     <g transform="translate(178.557891 348.459531)scale(0.13 -0.13)">
      <use xlink:href="#DejaVuSans-87"/>
      <use x="98.798828" xlink:href="#DejaVuSans-101"/>
      <use x="160.322266" xlink:href="#DejaVuSans-105"/>
      <use x="188.105469" xlink:href="#DejaVuSans-103"/>
      <use x="251.582031" xlink:href="#DejaVuSans-104"/>
      <use x="314.960938" xlink:href="#DejaVuSans-116"/>
      <use x="354.169922" xlink:href="#DejaVuSans-32"/>
      <use x="385.957031" xlink:href="#DejaVuSans-118"/>
      <use x="445.136719" xlink:href="#DejaVuSans-97"/>
      <use x="506.416016" xlink:href="#DejaVuSans-108"/>
      <use x="534.199219" xlink:href="#DejaVuSans-117"/>
      <use x="597.578125" xlink:href="#DejaVuSans-101"/>
     </g>
    </g>
   </g>
   <g id="matplotlib.axis_2">
    <g id="ytick_1">
     <g id="line2d_6">
      <defs>
       <path d="M 0 0 
L -3.5 0 
" id="ma504b822fc" style="stroke:#000000;stroke-width:0.8;"/>
      </defs>
      <g>
       <use style="stroke:#000000;stroke-width:0.8;" x="54" xlink:href="#ma504b822fc" y="315"/>
      </g>
     </g>
     <g id="text_7">
      <!-- 0 -->
      <g transform="translate(38.72875 319.938984)scale(0.13 -0.13)">
       <use xlink:href="#DejaVuSans-48"/>
      </g>
     </g>
    </g>
    <g id="ytick_2">
     <g id="line2d_7">
      <g>
       <use style="stroke:#000000;stroke-width:0.8;" x="54" xlink:href="#ma504b822fc" y="272.977737"/>
      </g>
     </g>
     <g id="text_8">
      <!-- 100 -->
      <g transform="translate(22.18625 277.916721)scale(0.13 -0.13)">
       <use xlink:href="#DejaVuSans-49"/>
       <use x="63.623047" xlink:href="#DejaVuSans-48"/>
       <use x="127.246094" xlink:href="#DejaVuSans-48"/>
      </g>
     </g>
    </g>
    <g id="ytick_3">
     <g id="line2d_8">
      <g>
       <use style="stroke:#000000;stroke-width:0.8;" x="54" xlink:href="#ma504b822fc" y="230.955473"/>
      </g>
     </g>
     <g id="text_9">
      <!-- 200 -->
      <defs>
       <path d="M 19.1875 8.296875 
L 53.609375 8.296875 
L 53.609375 0 
L 7.328125 0 
L 7.328125 8.296875 
Q 12.9375 14.109375 22.625 23.890625 
Q 32.328125 33.6875 34.8125 36.53125 
Q 39.546875 41.84375 41.421875 45.53125 
Q 43.3125 49.21875 43.3125 52.78125 
Q 43.3125 58.59375 39.234375 62.25 
Q 35.15625 65.921875 28.609375 65.921875 
Q 23.96875 65.921875 18.8125 64.3125 
Q 13.671875 62.703125 7.8125 59.421875 
L 7.8125 69.390625 
Q 13.765625 71.78125 18.9375 73 
Q 24.125 74.21875 28.421875 74.21875 
Q 39.75 74.21875 46.484375 68.546875 
Q 53.21875 62.890625 53.21875 53.421875 
Q 53.21875 48.921875 51.53125 44.890625 
Q 49.859375 40.875 45.40625 35.40625 
Q 44.1875 33.984375 37.640625 27.21875 
Q 31.109375 20.453125 19.1875 8.296875 
z
" id="DejaVuSans-50"/>
      </defs>
      <g transform="translate(22.18625 235.894457)scale(0.13 -0.13)">
       <use xlink:href="#DejaVuSans-50"/>
       <use x="63.623047" xlink:href="#DejaVuSans-48"/>
       <use x="127.246094" xlink:href="#DejaVuSans-48"/>
      </g>
     </g>
    </g>
    <g id="ytick_4">
     <g id="line2d_9">
      <g>
       <use style="stroke:#000000;stroke-width:0.8;" x="54" xlink:href="#ma504b822fc" y="188.93321"/>
      </g>
     </g>
     <g id="text_10">
      <!-- 300 -->
      <defs>
       <path d="M 40.578125 39.3125 
Q 47.65625 37.796875 51.625 33 
Q 55.609375 28.21875 55.609375 21.1875 
Q 55.609375 10.40625 48.1875 4.484375 
Q 40.765625 -1.421875 27.09375 -1.421875 
Q 22.515625 -1.421875 17.65625 -0.515625 
Q 12.796875 0.390625 7.625 2.203125 
L 7.625 11.71875 
Q 11.71875 9.328125 16.59375 8.109375 
Q 21.484375 6.890625 26.8125 6.890625 
Q 36.078125 6.890625 40.9375 10.546875 
Q 45.796875 14.203125 45.796875 21.1875 
Q 45.796875 27.640625 41.28125 31.265625 
Q 36.765625 34.90625 28.71875 34.90625 
L 20.21875 34.90625 
L 20.21875 43.015625 
L 29.109375 43.015625 
Q 36.375 43.015625 40.234375 45.921875 
Q 44.09375 48.828125 44.09375 54.296875 
Q 44.09375 59.90625 40.109375 62.90625 
Q 36.140625 65.921875 28.71875 65.921875 
Q 24.65625 65.921875 20.015625 65.03125 
Q 15.375 64.15625 9.8125 62.3125 
L 9.8125 71.09375 
Q 15.4375 72.65625 20.34375 73.4375 
Q 25.25 74.21875 29.59375 74.21875 
Q 40.828125 74.21875 47.359375 69.109375 
Q 53.90625 64.015625 53.90625 55.328125 
Q 53.90625 49.265625 50.4375 45.09375 
Q 46.96875 40.921875 40.578125 39.3125 
z
" id="DejaVuSans-51"/>
      </defs>
      <g transform="translate(22.18625 193.872194)scale(0.13 -0.13)">
       <use xlink:href="#DejaVuSans-51"/>
       <use x="63.623047" xlink:href="#DejaVuSans-48"/>
       <use x="127.246094" xlink:href="#DejaVuSans-48"/>
      </g>
     </g>
    </g>
    <g id="ytick_5">
     <g id="line2d_10">
      <g>
       <use style="stroke:#000000;stroke-width:0.8;" x="54" xlink:href="#ma504b822fc" y="146.910946"/>
      </g>
     </g>
     <g id="text_11">
      <!-- 400 -->
      <defs>
       <path d="M 37.796875 64.3125 
L 12.890625 25.390625 
L 37.796875 25.390625 
z
M 35.203125 72.90625 
L 47.609375 72.90625 
L 47.609375 25.390625 
L 58.015625 25.390625 
L 58.015625 17.1875 
L 47.609375 17.1875 
L 47.609375 0 
L 37.796875 0 
L 37.796875 17.1875 
L 4.890625 17.1875 
L 4.890625 26.703125 
z
" id="DejaVuSans-52"/>
      </defs>
      <g transform="translate(22.18625 151.849931)scale(0.13 -0.13)">
       <use xlink:href="#DejaVuSans-52"/>
       <use x="63.623047" xlink:href="#DejaVuSans-48"/>
       <use x="127.246094" xlink:href="#DejaVuSans-48"/>
      </g>
     </g>
    </g>
    <g id="ytick_6">
     <g id="line2d_11">
      <g>
       <use style="stroke:#000000;stroke-width:0.8;" x="54" xlink:href="#ma504b822fc" y="104.888683"/>
      </g>
     </g>
     <g id="text_12">
      <!-- 500 -->
      <g transform="translate(22.18625 109.827667)scale(0.13 -0.13)">
       <use xlink:href="#DejaVuSans-53"/>
       <use x="63.623047" xlink:href="#DejaVuSans-48"/>
       <use x="127.246094" xlink:href="#DejaVuSans-48"/>
      </g>
     </g>
    </g>
    <g id="ytick_7">
     <g id="line2d_12">
      <g>
       <use style="stroke:#000000;stroke-width:0.8;" x="54" xlink:href="#ma504b822fc" y="62.866419"/>
      </g>
     </g>
     <g id="text_13">
      <!-- 600 -->
      <defs>
       <path d="M 33.015625 40.375 
Q 26.375 40.375 22.484375 35.828125 
Q 18.609375 31.296875 18.609375 23.390625 
Q 18.609375 15.53125 22.484375 10.953125 
Q 26.375 6.390625 33.015625 6.390625 
Q 39.65625 6.390625 43.53125 10.953125 
Q 47.40625 15.53125 47.40625 23.390625 
Q 47.40625 31.296875 43.53125 35.828125 
Q 39.65625 40.375 33.015625 40.375 
z
M 52.59375 71.296875 
L 52.59375 62.3125 
Q 48.875 64.0625 45.09375 64.984375 
Q 41.3125 65.921875 37.59375 65.921875 
Q 27.828125 65.921875 22.671875 59.328125 
Q 17.53125 52.734375 16.796875 39.40625 
Q 19.671875 43.65625 24.015625 45.921875 
Q 28.375 48.1875 33.59375 48.1875 
Q 44.578125 48.1875 50.953125 41.515625 
Q 57.328125 34.859375 57.328125 23.390625 
Q 57.328125 12.15625 50.6875 5.359375 
Q 44.046875 -1.421875 33.015625 -1.421875 
Q 20.359375 -1.421875 13.671875 8.265625 
Q 6.984375 17.96875 6.984375 36.375 
Q 6.984375 53.65625 15.1875 63.9375 
Q 23.390625 74.21875 37.203125 74.21875 
Q 40.921875 74.21875 44.703125 73.484375 
Q 48.484375 72.75 52.59375 71.296875 
z
" id="DejaVuSans-54"/>
      </defs>
      <g transform="translate(22.18625 67.805404)scale(0.13 -0.13)">
       <use xlink:href="#DejaVuSans-54"/>
       <use x="63.623047" xlink:href="#DejaVuSans-48"/>
       <use x="127.246094" xlink:href="#DejaVuSans-48"/>
      </g>
     </g>
    </g>
    <g id="text_14">
     <!-- Count -->
     <defs>
      <path d="M 64.40625 67.28125 
L 64.40625 56.890625 
Q 59.421875 61.53125 53.78125 63.8125 
Q 48.140625 66.109375 41.796875 66.109375 
Q 29.296875 66.109375 22.65625 58.46875 
Q 16.015625 50.828125 16.015625 36.375 
Q 16.015625 21.96875 22.65625 14.328125 
Q 29.296875 6.6875 41.796875 6.6875 
Q 48.140625 6.6875 53.78125 8.984375 
Q 59.421875 11.28125 64.40625 15.921875 
L 64.40625 5.609375 
Q 59.234375 2.09375 53.4375 0.328125 
Q 47.65625 -1.421875 41.21875 -1.421875 
Q 24.65625 -1.421875 15.125 8.703125 
Q 5.609375 18.84375 5.609375 36.375 
Q 5.609375 53.953125 15.125 64.078125 
Q 24.65625 74.21875 41.21875 74.21875 
Q 47.75 74.21875 53.53125 72.484375 
Q 59.328125 70.75 64.40625 67.28125 
z
" id="DejaVuSans-67"/>
      <path d="M 30.609375 48.390625 
Q 23.390625 48.390625 19.1875 42.75 
Q 14.984375 37.109375 14.984375 27.296875 
Q 14.984375 17.484375 19.15625 11.84375 
Q 23.34375 6.203125 30.609375 6.203125 
Q 37.796875 6.203125 41.984375 11.859375 
Q 46.1875 17.53125 46.1875 27.296875 
Q 46.1875 37.015625 41.984375 42.703125 
Q 37.796875 48.390625 30.609375 48.390625 
z
M 30.609375 56 
Q 42.328125 56 49.015625 48.375 
Q 55.71875 40.765625 55.71875 27.296875 
Q 55.71875 13.875 49.015625 6.21875 
Q 42.328125 -1.421875 30.609375 -1.421875 
Q 18.84375 -1.421875 12.171875 6.21875 
Q 5.515625 13.875 5.515625 27.296875 
Q 5.515625 40.765625 12.171875 48.375 
Q 18.84375 56 30.609375 56 
z
" id="DejaVuSans-111"/>
      <path d="M 54.890625 33.015625 
L 54.890625 0 
L 45.90625 0 
L 45.90625 32.71875 
Q 45.90625 40.484375 42.875 44.328125 
Q 39.84375 48.1875 33.796875 48.1875 
Q 26.515625 48.1875 22.3125 43.546875 
Q 18.109375 38.921875 18.109375 30.90625 
L 18.109375 0 
L 9.078125 0 
L 9.078125 54.6875 
L 18.109375 54.6875 
L 18.109375 46.1875 
Q 21.34375 51.125 25.703125 53.5625 
Q 30.078125 56 35.796875 56 
Q 45.21875 56 50.046875 50.171875 
Q 54.890625 44.34375 54.890625 33.015625 
z
" id="DejaVuSans-110"/>
     </defs>
     <g transform="translate(15.482656 198.402969)rotate(-90)scale(0.13 -0.13)">
      <use xlink:href="#DejaVuSans-67"/>
      <use x="69.824219" xlink:href="#DejaVuSans-111"/>
      <use x="131.005859" xlink:href="#DejaVuSans-117"/>
      <use x="194.384766" xlink:href="#DejaVuSans-110"/>
      <use x="257.763672" xlink:href="#DejaVuSans-116"/>
     </g>
    </g>
   </g>
   <g id="patch_303">
    <path d="M 54 315 
L 54 43.2 
" style="fill:none;stroke:#000000;stroke-linecap:square;stroke-linejoin:miter;stroke-width:0.8;"/>
   </g>
   <g id="patch_304">
    <path d="M 388.8 315 
L 388.8 43.2 
" style="fill:none;stroke:#000000;stroke-linecap:square;stroke-linejoin:miter;stroke-width:0.8;"/>
   </g>
   <g id="patch_305">
    <path d="M 54 315 
L 388.8 315 
" style="fill:none;stroke:#000000;stroke-linecap:square;stroke-linejoin:miter;stroke-width:0.8;"/>
   </g>
   <g id="patch_306">
    <path d="M 54 43.2 
L 388.8 43.2 
" style="fill:none;stroke:#000000;stroke-linecap:square;stroke-linejoin:miter;stroke-width:0.8;"/>
   </g>
  </g>
 </g>
 <defs>
  <clipPath id="p3e3434e096">
   <rect height="271.8" width="334.8" x="54" y="43.2"/>
  </clipPath>
 </defs>
</svg>
