<?xml version="1.0" encoding="utf-8" standalone="no"?>
<!DOCTYPE svg PUBLIC "-//W3C//DTD SVG 1.1//EN"
  "http://www.w3.org/Graphics/SVG/1.1/DTD/svg11.dtd">
<!-- Created with matplotlib (https://matplotlib.org/) -->
<svg height="360pt" version="1.1" viewBox="0 0 432 360" width="432pt" xmlns="http://www.w3.org/2000/svg" xmlns:xlink="http://www.w3.org/1999/xlink">
 <defs>
  <style type="text/css">
*{stroke-linecap:butt;stroke-linejoin:round;}
  </style>
 </defs>
 <g id="figure_1">
  <g id="patch_1">
   <path d="M 0 360 
L 432 360 
L 432 0 
L 0 0 
z
" style="fill:#ffffff;"/>
  </g>
  <g id="axes_1">
   <g id="patch_2">
    <path d="M 54 315 
L 388.8 315 
L 388.8 43.2 
L 54 43.2 
z
" style="fill:#ffffff;"/>
   </g>
   <g id="patch_3">
    <path clip-path="url(#p00046f7898)" d="M 69.218182 315 
L 70.232723 315 
L 70.232723 313.459184 
L 69.218182 313.459184 
z
" style="fill:#1f77b4;"/>
   </g>
   <g id="patch_4">
    <path clip-path="url(#p00046f7898)" d="M 70.232723 315 
L 71.247278 315 
L 71.247278 315 
L 70.232723 315 
z
" style="fill:#1f77b4;"/>
   </g>
   <g id="patch_5">
    <path clip-path="url(#p00046f7898)" d="M 71.247278 315 
L 72.261819 315 
L 72.261819 315 
L 71.247278 315 
z
" style="fill:#1f77b4;"/>
   </g>
   <g id="patch_6">
    <path clip-path="url(#p00046f7898)" d="M 72.261819 315 
L 73.27636 315 
L 73.27636 315 
L 72.261819 315 
z
" style="fill:#1f77b4;"/>
   </g>
   <g id="patch_7">
    <path clip-path="url(#p00046f7898)" d="M 73.276375 315 
L 74.29093 315 
L 74.29093 315 
L 73.276375 315 
z
" style="fill:#1f77b4;"/>
   </g>
   <g id="patch_8">
    <path clip-path="url(#p00046f7898)" d="M 74.290916 315 
L 75.305457 315 
L 75.305457 315 
L 74.290916 315 
z
" style="fill:#1f77b4;"/>
   </g>
   <g id="patch_9">
    <path clip-path="url(#p00046f7898)" d="M 75.305457 315 
L 76.319998 315 
L 76.319998 315 
L 75.305457 315 
z
" style="fill:#1f77b4;"/>
   </g>
   <g id="patch_10">
    <path clip-path="url(#p00046f7898)" d="M 76.319998 315 
L 77.334539 315 
L 77.334539 315 
L 76.319998 315 
z
" style="fill:#1f77b4;"/>
   </g>
   <g id="patch_11">
    <path clip-path="url(#p00046f7898)" d="M 77.334539 315 
L 78.349094 315 
L 78.349094 315 
L 77.334539 315 
z
" style="fill:#1f77b4;"/>
   </g>
   <g id="patch_12">
    <path clip-path="url(#p00046f7898)" d="M 78.349094 315 
L 79.363635 315 
L 79.363635 315 
L 78.349094 315 
z
" style="fill:#1f77b4;"/>
   </g>
   <g id="patch_13">
    <path clip-path="url(#p00046f7898)" d="M 79.363635 315 
L 80.378177 315 
L 80.378177 315 
L 79.363635 315 
z
" style="fill:#1f77b4;"/>
   </g>
   <g id="patch_14">
    <path clip-path="url(#p00046f7898)" d="M 80.378191 315 
L 81.392746 315 
L 81.392746 315 
L 80.378191 315 
z
" style="fill:#1f77b4;"/>
   </g>
   <g id="patch_15">
    <path clip-path="url(#p00046f7898)" d="M 81.392732 315 
L 82.407273 315 
L 82.407273 315 
L 81.392732 315 
z
" style="fill:#1f77b4;"/>
   </g>
   <g id="patch_16">
    <path clip-path="url(#p00046f7898)" d="M 82.407273 315 
L 83.421814 315 
L 83.421814 315 
L 82.407273 315 
z
" style="fill:#1f77b4;"/>
   </g>
   <g id="patch_17">
    <path clip-path="url(#p00046f7898)" d="M 83.421814 315 
L 84.436369 315 
L 84.436369 315 
L 83.421814 315 
z
" style="fill:#1f77b4;"/>
   </g>
   <g id="patch_18">
    <path clip-path="url(#p00046f7898)" d="M 84.436369 315 
L 85.45091 315 
L 85.45091 315 
L 84.436369 315 
z
" style="fill:#1f77b4;"/>
   </g>
   <g id="patch_19">
    <path clip-path="url(#p00046f7898)" d="M 85.45091 315 
L 86.465452 315 
L 86.465452 315 
L 85.45091 315 
z
" style="fill:#1f77b4;"/>
   </g>
   <g id="patch_20">
    <path clip-path="url(#p00046f7898)" d="M 86.465466 315 
L 87.480021 315 
L 87.480021 315 
L 86.465466 315 
z
" style="fill:#1f77b4;"/>
   </g>
   <g id="patch_21">
    <path clip-path="url(#p00046f7898)" d="M 87.480007 315 
L 88.494548 315 
L 88.494548 315 
L 87.480007 315 
z
" style="fill:#1f77b4;"/>
   </g>
   <g id="patch_22">
    <path clip-path="url(#p00046f7898)" d="M 88.494548 315 
L 89.509089 315 
L 89.509089 315 
L 88.494548 315 
z
" style="fill:#1f77b4;"/>
   </g>
   <g id="patch_23">
    <path clip-path="url(#p00046f7898)" d="M 89.509089 315 
L 90.52363 315 
L 90.52363 315 
L 89.509089 315 
z
" style="fill:#1f77b4;"/>
   </g>
   <g id="patch_24">
    <path clip-path="url(#p00046f7898)" d="M 90.52363 315 
L 91.538185 315 
L 91.538185 315 
L 90.52363 315 
z
" style="fill:#1f77b4;"/>
   </g>
   <g id="patch_25">
    <path clip-path="url(#p00046f7898)" d="M 91.538185 315 
L 92.552727 315 
L 92.552727 315 
L 91.538185 315 
z
" style="fill:#1f77b4;"/>
   </g>
   <g id="patch_26">
    <path clip-path="url(#p00046f7898)" d="M 92.552727 315 
L 93.567268 315 
L 93.567268 315 
L 92.552727 315 
z
" style="fill:#1f77b4;"/>
   </g>
   <g id="patch_27">
    <path clip-path="url(#p00046f7898)" d="M 93.567282 315 
L 94.581837 315 
L 94.581837 315 
L 93.567282 315 
z
" style="fill:#1f77b4;"/>
   </g>
   <g id="patch_28">
    <path clip-path="url(#p00046f7898)" d="M 94.581823 315 
L 95.596364 315 
L 95.596364 315 
L 94.581823 315 
z
" style="fill:#1f77b4;"/>
   </g>
   <g id="patch_29">
    <path clip-path="url(#p00046f7898)" d="M 95.596364 315 
L 96.610905 315 
L 96.610905 313.459184 
L 95.596364 313.459184 
z
" style="fill:#1f77b4;"/>
   </g>
   <g id="patch_30">
    <path clip-path="url(#p00046f7898)" d="M 96.610905 315 
L 97.62546 315 
L 97.62546 315 
L 96.610905 315 
z
" style="fill:#1f77b4;"/>
   </g>
   <g id="patch_31">
    <path clip-path="url(#p00046f7898)" d="M 97.62546 315 
L 98.640002 315 
L 98.640002 313.459184 
L 97.62546 313.459184 
z
" style="fill:#1f77b4;"/>
   </g>
   <g id="patch_32">
    <path clip-path="url(#p00046f7898)" d="M 98.640002 315 
L 99.654543 315 
L 99.654543 315 
L 98.640002 315 
z
" style="fill:#1f77b4;"/>
   </g>
   <g id="patch_33">
    <path clip-path="url(#p00046f7898)" d="M 99.654557 315 
L 100.669112 315 
L 100.669112 315 
L 99.654557 315 
z
" style="fill:#1f77b4;"/>
   </g>
   <g id="patch_34">
    <path clip-path="url(#p00046f7898)" d="M 100.669098 315 
L 101.683639 315 
L 101.683639 315 
L 100.669098 315 
z
" style="fill:#1f77b4;"/>
   </g>
   <g id="patch_35">
    <path clip-path="url(#p00046f7898)" d="M 101.683639 315 
L 102.69818 315 
L 102.69818 313.459184 
L 101.683639 313.459184 
z
" style="fill:#1f77b4;"/>
   </g>
   <g id="patch_36">
    <path clip-path="url(#p00046f7898)" d="M 102.69818 315 
L 103.712721 315 
L 103.712721 315 
L 102.69818 315 
z
" style="fill:#1f77b4;"/>
   </g>
   <g id="patch_37">
    <path clip-path="url(#p00046f7898)" d="M 103.712721 315 
L 104.727277 315 
L 104.727277 315 
L 103.712721 315 
z
" style="fill:#1f77b4;"/>
   </g>
   <g id="patch_38">
    <path clip-path="url(#p00046f7898)" d="M 104.727277 315 
L 105.741818 315 
L 105.741818 315 
L 104.727277 315 
z
" style="fill:#1f77b4;"/>
   </g>
   <g id="patch_39">
    <path clip-path="url(#p00046f7898)" d="M 105.741818 315 
L 106.756359 315 
L 106.756359 315 
L 105.741818 315 
z
" style="fill:#1f77b4;"/>
   </g>
   <g id="patch_40">
    <path clip-path="url(#p00046f7898)" d="M 106.756373 315 
L 107.770928 315 
L 107.770928 313.459184 
L 106.756373 313.459184 
z
" style="fill:#1f77b4;"/>
   </g>
   <g id="patch_41">
    <path clip-path="url(#p00046f7898)" d="M 107.770914 315 
L 108.785455 315 
L 108.785455 311.918367 
L 107.770914 311.918367 
z
" style="fill:#1f77b4;"/>
   </g>
   <g id="patch_42">
    <path clip-path="url(#p00046f7898)" d="M 108.785455 315 
L 109.799996 315 
L 109.799996 315 
L 108.785455 315 
z
" style="fill:#1f77b4;"/>
   </g>
   <g id="patch_43">
    <path clip-path="url(#p00046f7898)" d="M 109.799996 315 
L 110.814552 315 
L 110.814552 315 
L 109.799996 315 
z
" style="fill:#1f77b4;"/>
   </g>
   <g id="patch_44">
    <path clip-path="url(#p00046f7898)" d="M 110.814552 315 
L 111.829093 315 
L 111.829093 313.459184 
L 110.814552 313.459184 
z
" style="fill:#1f77b4;"/>
   </g>
   <g id="patch_45">
    <path clip-path="url(#p00046f7898)" d="M 111.829093 315 
L 112.843634 315 
L 112.843634 315 
L 111.829093 315 
z
" style="fill:#1f77b4;"/>
   </g>
   <g id="patch_46">
    <path clip-path="url(#p00046f7898)" d="M 112.843634 315 
L 113.858175 315 
L 113.858175 313.459184 
L 112.843634 313.459184 
z
" style="fill:#1f77b4;"/>
   </g>
   <g id="patch_47">
    <path clip-path="url(#p00046f7898)" d="M 113.858189 315 
L 114.872744 315 
L 114.872744 313.459184 
L 113.858189 313.459184 
z
" style="fill:#1f77b4;"/>
   </g>
   <g id="patch_48">
    <path clip-path="url(#p00046f7898)" d="M 114.87273 315 
L 115.887271 315 
L 115.887271 315 
L 114.87273 315 
z
" style="fill:#1f77b4;"/>
   </g>
   <g id="patch_49">
    <path clip-path="url(#p00046f7898)" d="M 115.887271 315 
L 116.901812 315 
L 116.901812 315 
L 115.887271 315 
z
" style="fill:#1f77b4;"/>
   </g>
   <g id="patch_50">
    <path clip-path="url(#p00046f7898)" d="M 116.901812 315 
L 117.916368 315 
L 117.916368 315 
L 116.901812 315 
z
" style="fill:#1f77b4;"/>
   </g>
   <g id="patch_51">
    <path clip-path="url(#p00046f7898)" d="M 117.916368 315 
L 118.930909 315 
L 118.930909 315 
L 117.916368 315 
z
" style="fill:#1f77b4;"/>
   </g>
   <g id="patch_52">
    <path clip-path="url(#p00046f7898)" d="M 118.930909 315 
L 119.94545 315 
L 119.94545 315 
L 118.930909 315 
z
" style="fill:#1f77b4;"/>
   </g>
   <g id="patch_53">
    <path clip-path="url(#p00046f7898)" d="M 119.945464 315 
L 120.960019 315 
L 120.960019 315 
L 119.945464 315 
z
" style="fill:#1f77b4;"/>
   </g>
   <g id="patch_54">
    <path clip-path="url(#p00046f7898)" d="M 120.960005 315 
L 121.974546 315 
L 121.974546 315 
L 120.960005 315 
z
" style="fill:#1f77b4;"/>
   </g>
   <g id="patch_55">
    <path clip-path="url(#p00046f7898)" d="M 121.974546 315 
L 122.989087 315 
L 122.989087 315 
L 121.974546 315 
z
" style="fill:#1f77b4;"/>
   </g>
   <g id="patch_56">
    <path clip-path="url(#p00046f7898)" d="M 122.989087 315 
L 124.003643 315 
L 124.003643 313.459184 
L 122.989087 313.459184 
z
" style="fill:#1f77b4;"/>
   </g>
   <g id="patch_57">
    <path clip-path="url(#p00046f7898)" d="M 124.003643 315 
L 125.018184 315 
L 125.018184 315 
L 124.003643 315 
z
" style="fill:#1f77b4;"/>
   </g>
   <g id="patch_58">
    <path clip-path="url(#p00046f7898)" d="M 125.018184 315 
L 126.032725 315 
L 126.032725 315 
L 125.018184 315 
z
" style="fill:#1f77b4;"/>
   </g>
   <g id="patch_59">
    <path clip-path="url(#p00046f7898)" d="M 126.032725 315 
L 127.047266 315 
L 127.047266 311.918367 
L 126.032725 311.918367 
z
" style="fill:#1f77b4;"/>
   </g>
   <g id="patch_60">
    <path clip-path="url(#p00046f7898)" d="M 127.04728 315 
L 128.061835 315 
L 128.061835 315 
L 127.04728 315 
z
" style="fill:#1f77b4;"/>
   </g>
   <g id="patch_61">
    <path clip-path="url(#p00046f7898)" d="M 128.061821 315 
L 129.076362 315 
L 129.076362 315 
L 128.061821 315 
z
" style="fill:#1f77b4;"/>
   </g>
   <g id="patch_62">
    <path clip-path="url(#p00046f7898)" d="M 129.076362 315 
L 130.090903 315 
L 130.090903 315 
L 129.076362 315 
z
" style="fill:#1f77b4;"/>
   </g>
   <g id="patch_63">
    <path clip-path="url(#p00046f7898)" d="M 130.090911 315 
L 131.105452 315 
L 131.105452 315 
L 130.090911 315 
z
" style="fill:#1f77b4;"/>
   </g>
   <g id="patch_64">
    <path clip-path="url(#p00046f7898)" d="M 131.105459 315 
L 132.12 315 
L 132.12 313.459184 
L 131.105459 313.459184 
z
" style="fill:#1f77b4;"/>
   </g>
   <g id="patch_65">
    <path clip-path="url(#p00046f7898)" d="M 132.12 315 
L 133.134541 315 
L 133.134541 315 
L 132.12 315 
z
" style="fill:#1f77b4;"/>
   </g>
   <g id="patch_66">
    <path clip-path="url(#p00046f7898)" d="M 133.134548 315 
L 134.149089 315 
L 134.149089 315 
L 133.134548 315 
z
" style="fill:#1f77b4;"/>
   </g>
   <g id="patch_67">
    <path clip-path="url(#p00046f7898)" d="M 134.149096 315 
L 135.163637 315 
L 135.163637 315 
L 134.149096 315 
z
" style="fill:#1f77b4;"/>
   </g>
   <g id="patch_68">
    <path clip-path="url(#p00046f7898)" d="M 135.163637 315 
L 136.178178 315 
L 136.178178 315 
L 135.163637 315 
z
" style="fill:#1f77b4;"/>
   </g>
   <g id="patch_69">
    <path clip-path="url(#p00046f7898)" d="M 136.178178 315 
L 137.19272 315 
L 137.19272 315 
L 136.178178 315 
z
" style="fill:#1f77b4;"/>
   </g>
   <g id="patch_70">
    <path clip-path="url(#p00046f7898)" d="M 137.192734 315 
L 138.207275 315 
L 138.207275 313.459184 
L 137.192734 313.459184 
z
" style="fill:#1f77b4;"/>
   </g>
   <g id="patch_71">
    <path clip-path="url(#p00046f7898)" d="M 138.207275 315 
L 139.221816 315 
L 139.221816 315 
L 138.207275 315 
z
" style="fill:#1f77b4;"/>
   </g>
   <g id="patch_72">
    <path clip-path="url(#p00046f7898)" d="M 139.221816 315 
L 140.236357 315 
L 140.236357 313.459184 
L 139.221816 313.459184 
z
" style="fill:#1f77b4;"/>
   </g>
   <g id="patch_73">
    <path clip-path="url(#p00046f7898)" d="M 140.236371 315 
L 141.250912 315 
L 141.250912 315 
L 140.236371 315 
z
" style="fill:#1f77b4;"/>
   </g>
   <g id="patch_74">
    <path clip-path="url(#p00046f7898)" d="M 141.250912 315 
L 142.265453 315 
L 142.265453 313.459184 
L 141.250912 313.459184 
z
" style="fill:#1f77b4;"/>
   </g>
   <g id="patch_75">
    <path clip-path="url(#p00046f7898)" d="M 142.265453 315 
L 143.279995 315 
L 143.279995 315 
L 142.265453 315 
z
" style="fill:#1f77b4;"/>
   </g>
   <g id="patch_76">
    <path clip-path="url(#p00046f7898)" d="M 143.280002 315 
L 144.294543 315 
L 144.294543 315 
L 143.280002 315 
z
" style="fill:#1f77b4;"/>
   </g>
   <g id="patch_77">
    <path clip-path="url(#p00046f7898)" d="M 144.29455 315 
L 145.309091 315 
L 145.309091 311.918367 
L 144.29455 311.918367 
z
" style="fill:#1f77b4;"/>
   </g>
   <g id="patch_78">
    <path clip-path="url(#p00046f7898)" d="M 145.309091 315 
L 146.323632 315 
L 146.323632 315 
L 145.309091 315 
z
" style="fill:#1f77b4;"/>
   </g>
   <g id="patch_79">
    <path clip-path="url(#p00046f7898)" d="M 146.323639 315 
L 147.33818 315 
L 147.33818 313.459184 
L 146.323639 313.459184 
z
" style="fill:#1f77b4;"/>
   </g>
   <g id="patch_80">
    <path clip-path="url(#p00046f7898)" d="M 147.338187 315 
L 148.352728 315 
L 148.352728 313.459184 
L 147.338187 313.459184 
z
" style="fill:#1f77b4;"/>
   </g>
   <g id="patch_81">
    <path clip-path="url(#p00046f7898)" d="M 148.352728 315 
L 149.36727 315 
L 149.36727 313.459184 
L 148.352728 313.459184 
z
" style="fill:#1f77b4;"/>
   </g>
   <g id="patch_82">
    <path clip-path="url(#p00046f7898)" d="M 149.36727 315 
L 150.381811 315 
L 150.381811 315 
L 149.36727 315 
z
" style="fill:#1f77b4;"/>
   </g>
   <g id="patch_83">
    <path clip-path="url(#p00046f7898)" d="M 150.381825 315 
L 151.396366 315 
L 151.396366 313.459184 
L 150.381825 313.459184 
z
" style="fill:#1f77b4;"/>
   </g>
   <g id="patch_84">
    <path clip-path="url(#p00046f7898)" d="M 151.396366 315 
L 152.410907 315 
L 152.410907 311.918367 
L 151.396366 311.918367 
z
" style="fill:#1f77b4;"/>
   </g>
   <g id="patch_85">
    <path clip-path="url(#p00046f7898)" d="M 152.410907 315 
L 153.425448 315 
L 153.425448 311.918367 
L 152.410907 311.918367 
z
" style="fill:#1f77b4;"/>
   </g>
   <g id="patch_86">
    <path clip-path="url(#p00046f7898)" d="M 153.425462 315 
L 154.440003 315 
L 154.440003 310.377551 
L 153.425462 310.377551 
z
" style="fill:#1f77b4;"/>
   </g>
   <g id="patch_87">
    <path clip-path="url(#p00046f7898)" d="M 154.440003 315 
L 155.454545 315 
L 155.454545 313.459184 
L 154.440003 313.459184 
z
" style="fill:#1f77b4;"/>
   </g>
   <g id="patch_88">
    <path clip-path="url(#p00046f7898)" d="M 155.454545 315 
L 156.469086 315 
L 156.469086 308.836735 
L 155.454545 308.836735 
z
" style="fill:#1f77b4;"/>
   </g>
   <g id="patch_89">
    <path clip-path="url(#p00046f7898)" d="M 156.469093 315 
L 157.483634 315 
L 157.483634 308.836735 
L 156.469093 308.836735 
z
" style="fill:#1f77b4;"/>
   </g>
   <g id="patch_90">
    <path clip-path="url(#p00046f7898)" d="M 157.483641 315 
L 158.498182 315 
L 158.498182 311.918367 
L 157.483641 311.918367 
z
" style="fill:#1f77b4;"/>
   </g>
   <g id="patch_91">
    <path clip-path="url(#p00046f7898)" d="M 158.498182 315 
L 159.512723 315 
L 159.512723 311.918367 
L 158.498182 311.918367 
z
" style="fill:#1f77b4;"/>
   </g>
   <g id="patch_92">
    <path clip-path="url(#p00046f7898)" d="M 159.51273 315 
L 160.527271 315 
L 160.527271 311.918367 
L 159.51273 311.918367 
z
" style="fill:#1f77b4;"/>
   </g>
   <g id="patch_93">
    <path clip-path="url(#p00046f7898)" d="M 160.527278 315 
L 161.54182 315 
L 161.54182 304.214286 
L 160.527278 304.214286 
z
" style="fill:#1f77b4;"/>
   </g>
   <g id="patch_94">
    <path clip-path="url(#p00046f7898)" d="M 161.54182 315 
L 162.556361 315 
L 162.556361 311.918367 
L 161.54182 311.918367 
z
" style="fill:#1f77b4;"/>
   </g>
   <g id="patch_95">
    <path clip-path="url(#p00046f7898)" d="M 162.556361 315 
L 163.570902 315 
L 163.570902 308.836735 
L 162.556361 308.836735 
z
" style="fill:#1f77b4;"/>
   </g>
   <g id="patch_96">
    <path clip-path="url(#p00046f7898)" d="M 163.570916 315 
L 164.585457 315 
L 164.585457 313.459184 
L 163.570916 313.459184 
z
" style="fill:#1f77b4;"/>
   </g>
   <g id="patch_97">
    <path clip-path="url(#p00046f7898)" d="M 164.585457 315 
L 165.599998 315 
L 165.599998 310.377551 
L 164.585457 310.377551 
z
" style="fill:#1f77b4;"/>
   </g>
   <g id="patch_98">
    <path clip-path="url(#p00046f7898)" d="M 165.599998 315 
L 166.614539 315 
L 166.614539 310.377551 
L 165.599998 310.377551 
z
" style="fill:#1f77b4;"/>
   </g>
   <g id="patch_99">
    <path clip-path="url(#p00046f7898)" d="M 166.614546 315 
L 167.629087 315 
L 167.629087 310.377551 
L 166.614546 310.377551 
z
" style="fill:#1f77b4;"/>
   </g>
   <g id="patch_100">
    <path clip-path="url(#p00046f7898)" d="M 167.629094 315 
L 168.643636 315 
L 168.643636 307.295918 
L 167.629094 307.295918 
z
" style="fill:#1f77b4;"/>
   </g>
   <g id="patch_101">
    <path clip-path="url(#p00046f7898)" d="M 168.643636 315 
L 169.658177 315 
L 169.658177 304.214286 
L 168.643636 304.214286 
z
" style="fill:#1f77b4;"/>
   </g>
   <g id="patch_102">
    <path clip-path="url(#p00046f7898)" d="M 169.658184 315 
L 170.672725 315 
L 170.672725 307.295918 
L 169.658184 307.295918 
z
" style="fill:#1f77b4;"/>
   </g>
   <g id="patch_103">
    <path clip-path="url(#p00046f7898)" d="M 170.672732 315 
L 171.687273 315 
L 171.687273 310.377551 
L 170.672732 310.377551 
z
" style="fill:#1f77b4;"/>
   </g>
   <g id="patch_104">
    <path clip-path="url(#p00046f7898)" d="M 171.687273 315 
L 172.701814 315 
L 172.701814 304.214286 
L 171.687273 304.214286 
z
" style="fill:#1f77b4;"/>
   </g>
   <g id="patch_105">
    <path clip-path="url(#p00046f7898)" d="M 172.701821 315 
L 173.716362 315 
L 173.716362 304.214286 
L 172.701821 304.214286 
z
" style="fill:#1f77b4;"/>
   </g>
   <g id="patch_106">
    <path clip-path="url(#p00046f7898)" d="M 173.716369 315 
L 174.730911 315 
L 174.730911 304.214286 
L 173.716369 304.214286 
z
" style="fill:#1f77b4;"/>
   </g>
   <g id="patch_107">
    <path clip-path="url(#p00046f7898)" d="M 174.730911 315 
L 175.745452 315 
L 175.745452 298.05102 
L 174.730911 298.05102 
z
" style="fill:#1f77b4;"/>
   </g>
   <g id="patch_108">
    <path clip-path="url(#p00046f7898)" d="M 175.745452 315 
L 176.759993 315 
L 176.759993 304.214286 
L 175.745452 304.214286 
z
" style="fill:#1f77b4;"/>
   </g>
   <g id="patch_109">
    <path clip-path="url(#p00046f7898)" d="M 176.760007 315 
L 177.774548 315 
L 177.774548 301.132653 
L 176.760007 301.132653 
z
" style="fill:#1f77b4;"/>
   </g>
   <g id="patch_110">
    <path clip-path="url(#p00046f7898)" d="M 177.774548 315 
L 178.789089 315 
L 178.789089 308.836735 
L 177.774548 308.836735 
z
" style="fill:#1f77b4;"/>
   </g>
   <g id="patch_111">
    <path clip-path="url(#p00046f7898)" d="M 178.789089 315 
L 179.80363 315 
L 179.80363 307.295918 
L 178.789089 307.295918 
z
" style="fill:#1f77b4;"/>
   </g>
   <g id="patch_112">
    <path clip-path="url(#p00046f7898)" d="M 179.803637 315 
L 180.818179 315 
L 180.818179 298.05102 
L 179.803637 298.05102 
z
" style="fill:#1f77b4;"/>
   </g>
   <g id="patch_113">
    <path clip-path="url(#p00046f7898)" d="M 180.818186 315 
L 181.832727 315 
L 181.832727 302.673469 
L 180.818186 302.673469 
z
" style="fill:#1f77b4;"/>
   </g>
   <g id="patch_114">
    <path clip-path="url(#p00046f7898)" d="M 181.832727 315 
L 182.847268 315 
L 182.847268 299.591837 
L 181.832727 299.591837 
z
" style="fill:#1f77b4;"/>
   </g>
   <g id="patch_115">
    <path clip-path="url(#p00046f7898)" d="M 182.847275 315 
L 183.861816 315 
L 183.861816 294.969388 
L 182.847275 294.969388 
z
" style="fill:#1f77b4;"/>
   </g>
   <g id="patch_116">
    <path clip-path="url(#p00046f7898)" d="M 183.861823 315 
L 184.876364 315 
L 184.876364 301.132653 
L 183.861823 301.132653 
z
" style="fill:#1f77b4;"/>
   </g>
   <g id="patch_117">
    <path clip-path="url(#p00046f7898)" d="M 184.876364 315 
L 185.890905 315 
L 185.890905 298.05102 
L 184.876364 298.05102 
z
" style="fill:#1f77b4;"/>
   </g>
   <g id="patch_118">
    <path clip-path="url(#p00046f7898)" d="M 185.890912 315 
L 186.905454 315 
L 186.905454 293.428571 
L 185.890912 293.428571 
z
" style="fill:#1f77b4;"/>
   </g>
   <g id="patch_119">
    <path clip-path="url(#p00046f7898)" d="M 186.905461 315 
L 187.920002 315 
L 187.920002 287.265306 
L 186.905461 287.265306 
z
" style="fill:#1f77b4;"/>
   </g>
   <g id="patch_120">
    <path clip-path="url(#p00046f7898)" d="M 187.920002 315 
L 188.934543 315 
L 188.934543 293.428571 
L 187.920002 293.428571 
z
" style="fill:#1f77b4;"/>
   </g>
   <g id="patch_121">
    <path clip-path="url(#p00046f7898)" d="M 188.93455 315 
L 189.949091 315 
L 189.949091 299.591837 
L 188.93455 299.591837 
z
" style="fill:#1f77b4;"/>
   </g>
   <g id="patch_122">
    <path clip-path="url(#p00046f7898)" d="M 189.949091 315 
L 190.963632 315 
L 190.963632 279.561224 
L 189.949091 279.561224 
z
" style="fill:#1f77b4;"/>
   </g>
   <g id="patch_123">
    <path clip-path="url(#p00046f7898)" d="M 190.963639 315 
L 191.97818 315 
L 191.97818 276.479592 
L 190.963639 276.479592 
z
" style="fill:#1f77b4;"/>
   </g>
   <g id="patch_124">
    <path clip-path="url(#p00046f7898)" d="M 191.978184 315 
L 192.992725 315 
L 192.992725 282.642857 
L 191.978184 282.642857 
z
" style="fill:#1f77b4;"/>
   </g>
   <g id="patch_125">
    <path clip-path="url(#p00046f7898)" d="M 192.992729 315 
L 194.00727 315 
L 194.00727 288.806122 
L 192.992729 288.806122 
z
" style="fill:#1f77b4;"/>
   </g>
   <g id="patch_126">
    <path clip-path="url(#p00046f7898)" d="M 194.007277 315 
L 195.021818 315 
L 195.021818 274.938776 
L 194.007277 274.938776 
z
" style="fill:#1f77b4;"/>
   </g>
   <g id="patch_127">
    <path clip-path="url(#p00046f7898)" d="M 195.021818 315 
L 196.036359 315 
L 196.036359 271.857143 
L 195.021818 271.857143 
z
" style="fill:#1f77b4;"/>
   </g>
   <g id="patch_128">
    <path clip-path="url(#p00046f7898)" d="M 196.036366 315 
L 197.050907 315 
L 197.050907 256.44898 
L 196.036366 256.44898 
z
" style="fill:#1f77b4;"/>
   </g>
   <g id="patch_129">
    <path clip-path="url(#p00046f7898)" d="M 197.050914 315 
L 198.065455 315 
L 198.065455 282.642857 
L 197.050914 282.642857 
z
" style="fill:#1f77b4;"/>
   </g>
   <g id="patch_130">
    <path clip-path="url(#p00046f7898)" d="M 198.065455 315 
L 199.079996 315 
L 199.079996 257.989796 
L 198.065455 257.989796 
z
" style="fill:#1f77b4;"/>
   </g>
   <g id="patch_131">
    <path clip-path="url(#p00046f7898)" d="M 199.080003 315 
L 200.094545 315 
L 200.094545 254.908163 
L 199.080003 254.908163 
z
" style="fill:#1f77b4;"/>
   </g>
   <g id="patch_132">
    <path clip-path="url(#p00046f7898)" d="M 200.094545 315 
L 201.109086 315 
L 201.109086 267.234694 
L 200.094545 267.234694 
z
" style="fill:#1f77b4;"/>
   </g>
   <g id="patch_133">
    <path clip-path="url(#p00046f7898)" d="M 201.109093 315 
L 202.123634 315 
L 202.123634 251.826531 
L 201.109093 251.826531 
z
" style="fill:#1f77b4;"/>
   </g>
   <g id="patch_134">
    <path clip-path="url(#p00046f7898)" d="M 202.123641 315 
L 203.138182 315 
L 203.138182 244.122449 
L 202.123641 244.122449 
z
" style="fill:#1f77b4;"/>
   </g>
   <g id="patch_135">
    <path clip-path="url(#p00046f7898)" d="M 203.138182 315 
L 204.152723 315 
L 204.152723 237.959184 
L 203.138182 237.959184 
z
" style="fill:#1f77b4;"/>
   </g>
   <g id="patch_136">
    <path clip-path="url(#p00046f7898)" d="M 204.15273 315 
L 205.167271 315 
L 205.167271 254.908163 
L 204.15273 254.908163 
z
" style="fill:#1f77b4;"/>
   </g>
   <g id="patch_137">
    <path clip-path="url(#p00046f7898)" d="M 205.167275 315 
L 206.181816 315 
L 206.181816 225.632653 
L 205.167275 225.632653 
z
" style="fill:#1f77b4;"/>
   </g>
   <g id="patch_138">
    <path clip-path="url(#p00046f7898)" d="M 206.18182 315 
L 207.196361 315 
L 207.196361 196.357143 
L 206.18182 196.357143 
z
" style="fill:#1f77b4;"/>
   </g>
   <g id="patch_139">
    <path clip-path="url(#p00046f7898)" d="M 207.196368 315 
L 208.210909 315 
L 208.210909 204.061224 
L 207.196368 204.061224 
z
" style="fill:#1f77b4;"/>
   </g>
   <g id="patch_140">
    <path clip-path="url(#p00046f7898)" d="M 208.210909 315 
L 209.22545 315 
L 209.22545 190.193878 
L 208.210909 190.193878 
z
" style="fill:#1f77b4;"/>
   </g>
   <g id="patch_141">
    <path clip-path="url(#p00046f7898)" d="M 209.225457 315 
L 210.239998 315 
L 210.239998 168.622449 
L 209.225457 168.622449 
z
" style="fill:#1f77b4;"/>
   </g>
   <g id="patch_142">
    <path clip-path="url(#p00046f7898)" d="M 210.240005 315 
L 211.254546 315 
L 211.254546 180.94898 
L 210.240005 180.94898 
z
" style="fill:#1f77b4;"/>
   </g>
   <g id="patch_143">
    <path clip-path="url(#p00046f7898)" d="M 211.254546 315 
L 212.269088 315 
L 212.269088 165.540816 
L 211.254546 165.540816 
z
" style="fill:#1f77b4;"/>
   </g>
   <g id="patch_144">
    <path clip-path="url(#p00046f7898)" d="M 212.269095 315 
L 213.283636 315 
L 213.283636 153.214286 
L 212.269095 153.214286 
z
" style="fill:#1f77b4;"/>
   </g>
   <g id="patch_145">
    <path clip-path="url(#p00046f7898)" d="M 213.283636 315 
L 214.298177 315 
L 214.298177 123.938776 
L 213.283636 123.938776 
z
" style="fill:#1f77b4;"/>
   </g>
   <g id="patch_146">
    <path clip-path="url(#p00046f7898)" d="M 214.298184 315 
L 215.312725 315 
L 215.312725 156.295918 
L 214.298184 156.295918 
z
" style="fill:#1f77b4;"/>
   </g>
   <g id="patch_147">
    <path clip-path="url(#p00046f7898)" d="M 215.312732 315 
L 216.327273 315 
L 216.327273 106.989796 
L 215.312732 106.989796 
z
" style="fill:#1f77b4;"/>
   </g>
   <g id="patch_148">
    <path clip-path="url(#p00046f7898)" d="M 216.327273 315 
L 217.341814 315 
L 217.341814 93.122449 
L 216.327273 93.122449 
z
" style="fill:#1f77b4;"/>
   </g>
   <g id="patch_149">
    <path clip-path="url(#p00046f7898)" d="M 217.341821 315 
L 218.356363 315 
L 218.356363 83.877551 
L 217.341821 83.877551 
z
" style="fill:#1f77b4;"/>
   </g>
   <g id="patch_150">
    <path clip-path="url(#p00046f7898)" d="M 218.356366 315 
L 219.370907 315 
L 219.370907 93.122449 
L 218.356366 93.122449 
z
" style="fill:#1f77b4;"/>
   </g>
   <g id="patch_151">
    <path clip-path="url(#p00046f7898)" d="M 219.370911 315 
L 220.385452 315 
L 220.385452 56.142857 
L 219.370911 56.142857 
z
" style="fill:#1f77b4;"/>
   </g>
   <g id="patch_152">
    <path clip-path="url(#p00046f7898)" d="M 220.385457 315 
L 221.399998 315 
L 221.399998 110.071429 
L 220.385457 110.071429 
z
" style="fill:#1f77b4;"/>
   </g>
   <g id="patch_153">
    <path clip-path="url(#p00046f7898)" d="M 221.400002 315 
L 222.414543 315 
L 222.414543 88.5 
L 221.400002 88.5 
z
" style="fill:#1f77b4;"/>
   </g>
   <g id="patch_154">
    <path clip-path="url(#p00046f7898)" d="M 222.414548 315 
L 223.429089 315 
L 223.429089 106.989796 
L 222.414548 106.989796 
z
" style="fill:#1f77b4;"/>
   </g>
   <g id="patch_155">
    <path clip-path="url(#p00046f7898)" d="M 223.429093 315 
L 224.443634 315 
L 224.443634 110.071429 
L 223.429093 110.071429 
z
" style="fill:#1f77b4;"/>
   </g>
   <g id="patch_156">
    <path clip-path="url(#p00046f7898)" d="M 224.443637 315 
L 225.458179 315 
L 225.458179 171.704082 
L 224.443637 171.704082 
z
" style="fill:#1f77b4;"/>
   </g>
   <g id="patch_157">
    <path clip-path="url(#p00046f7898)" d="M 225.458184 315 
L 226.472725 315 
L 226.472725 310.377551 
L 225.458184 310.377551 
z
" style="fill:#1f77b4;"/>
   </g>
   <g id="patch_158">
    <path clip-path="url(#p00046f7898)" d="M 226.47273 315 
L 227.487271 315 
L 227.487271 313.459184 
L 226.47273 313.459184 
z
" style="fill:#1f77b4;"/>
   </g>
   <g id="patch_159">
    <path clip-path="url(#p00046f7898)" d="M 227.487275 315 
L 228.501816 315 
L 228.501816 315 
L 227.487275 315 
z
" style="fill:#1f77b4;"/>
   </g>
   <g id="patch_160">
    <path clip-path="url(#p00046f7898)" d="M 228.50182 315 
L 229.516361 315 
L 229.516361 315 
L 228.50182 315 
z
" style="fill:#1f77b4;"/>
   </g>
   <g id="patch_161">
    <path clip-path="url(#p00046f7898)" d="M 229.516366 315 
L 230.530907 315 
L 230.530907 315 
L 229.516366 315 
z
" style="fill:#1f77b4;"/>
   </g>
   <g id="patch_162">
    <path clip-path="url(#p00046f7898)" d="M 230.530912 315 
L 231.545454 315 
L 231.545454 315 
L 230.530912 315 
z
" style="fill:#1f77b4;"/>
   </g>
   <g id="patch_163">
    <path clip-path="url(#p00046f7898)" d="M 231.545457 315 
L 232.559998 315 
L 232.559998 313.459184 
L 231.545457 313.459184 
z
" style="fill:#1f77b4;"/>
   </g>
   <g id="patch_164">
    <path clip-path="url(#p00046f7898)" d="M 232.560002 315 
L 233.574543 315 
L 233.574543 315 
L 232.560002 315 
z
" style="fill:#1f77b4;"/>
   </g>
   <g id="patch_165">
    <path clip-path="url(#p00046f7898)" d="M 233.574548 315 
L 234.589089 315 
L 234.589089 315 
L 233.574548 315 
z
" style="fill:#1f77b4;"/>
   </g>
   <g id="patch_166">
    <path clip-path="url(#p00046f7898)" d="M 234.589093 315 
L 235.603634 315 
L 235.603634 315 
L 234.589093 315 
z
" style="fill:#1f77b4;"/>
   </g>
   <g id="patch_167">
    <path clip-path="url(#p00046f7898)" d="M 235.603639 315 
L 236.61818 315 
L 236.61818 313.459184 
L 235.603639 313.459184 
z
" style="fill:#1f77b4;"/>
   </g>
   <g id="patch_168">
    <path clip-path="url(#p00046f7898)" d="M 236.618184 315 
L 237.632725 315 
L 237.632725 313.459184 
L 236.618184 313.459184 
z
" style="fill:#1f77b4;"/>
   </g>
   <g id="patch_169">
    <path clip-path="url(#p00046f7898)" d="M 237.632729 315 
L 238.647271 315 
L 238.647271 313.459184 
L 237.632729 313.459184 
z
" style="fill:#1f77b4;"/>
   </g>
   <g id="patch_170">
    <path clip-path="url(#p00046f7898)" d="M 238.647275 315 
L 239.661816 315 
L 239.661816 313.459184 
L 238.647275 313.459184 
z
" style="fill:#1f77b4;"/>
   </g>
   <g id="patch_171">
    <path clip-path="url(#p00046f7898)" d="M 239.661821 315 
L 240.676362 315 
L 240.676362 313.459184 
L 239.661821 313.459184 
z
" style="fill:#1f77b4;"/>
   </g>
   <g id="patch_172">
    <path clip-path="url(#p00046f7898)" d="M 240.676366 315 
L 241.690907 315 
L 241.690907 315 
L 240.676366 315 
z
" style="fill:#1f77b4;"/>
   </g>
   <g id="patch_173">
    <path clip-path="url(#p00046f7898)" d="M 241.690911 315 
L 242.705452 315 
L 242.705452 313.459184 
L 241.690911 313.459184 
z
" style="fill:#1f77b4;"/>
   </g>
   <g id="patch_174">
    <path clip-path="url(#p00046f7898)" d="M 242.705457 315 
L 243.719998 315 
L 243.719998 311.918367 
L 242.705457 311.918367 
z
" style="fill:#1f77b4;"/>
   </g>
   <g id="patch_175">
    <path clip-path="url(#p00046f7898)" d="M 243.720002 315 
L 244.734543 315 
L 244.734543 313.459184 
L 243.720002 313.459184 
z
" style="fill:#1f77b4;"/>
   </g>
   <g id="patch_176">
    <path clip-path="url(#p00046f7898)" d="M 244.734548 315 
L 245.749089 315 
L 245.749089 315 
L 244.734548 315 
z
" style="fill:#1f77b4;"/>
   </g>
   <g id="patch_177">
    <path clip-path="url(#p00046f7898)" d="M 245.749093 315 
L 246.763634 315 
L 246.763634 313.459184 
L 245.749093 313.459184 
z
" style="fill:#1f77b4;"/>
   </g>
   <g id="patch_178">
    <path clip-path="url(#p00046f7898)" d="M 246.763639 315 
L 247.77818 315 
L 247.77818 313.459184 
L 246.763639 313.459184 
z
" style="fill:#1f77b4;"/>
   </g>
   <g id="patch_179">
    <path clip-path="url(#p00046f7898)" d="M 247.778184 315 
L 248.792725 315 
L 248.792725 315 
L 247.778184 315 
z
" style="fill:#1f77b4;"/>
   </g>
   <g id="patch_180">
    <path clip-path="url(#p00046f7898)" d="M 248.79273 315 
L 249.807271 315 
L 249.807271 315 
L 248.79273 315 
z
" style="fill:#1f77b4;"/>
   </g>
   <g id="patch_181">
    <path clip-path="url(#p00046f7898)" d="M 249.807275 315 
L 250.821816 315 
L 250.821816 315 
L 249.807275 315 
z
" style="fill:#1f77b4;"/>
   </g>
   <g id="patch_182">
    <path clip-path="url(#p00046f7898)" d="M 250.821821 315 
L 251.836362 315 
L 251.836362 313.459184 
L 250.821821 313.459184 
z
" style="fill:#1f77b4;"/>
   </g>
   <g id="patch_183">
    <path clip-path="url(#p00046f7898)" d="M 251.836366 315 
L 252.850907 315 
L 252.850907 313.459184 
L 251.836366 313.459184 
z
" style="fill:#1f77b4;"/>
   </g>
   <g id="patch_184">
    <path clip-path="url(#p00046f7898)" d="M 252.850911 315 
L 253.865452 315 
L 253.865452 315 
L 252.850911 315 
z
" style="fill:#1f77b4;"/>
   </g>
   <g id="patch_185">
    <path clip-path="url(#p00046f7898)" d="M 253.865457 315 
L 254.879998 315 
L 254.879998 313.459184 
L 253.865457 313.459184 
z
" style="fill:#1f77b4;"/>
   </g>
   <g id="patch_186">
    <path clip-path="url(#p00046f7898)" d="M 254.880002 315 
L 255.894543 315 
L 255.894543 313.459184 
L 254.880002 313.459184 
z
" style="fill:#1f77b4;"/>
   </g>
   <g id="patch_187">
    <path clip-path="url(#p00046f7898)" d="M 255.894548 315 
L 256.909089 315 
L 256.909089 315 
L 255.894548 315 
z
" style="fill:#1f77b4;"/>
   </g>
   <g id="patch_188">
    <path clip-path="url(#p00046f7898)" d="M 256.909093 315 
L 257.923634 315 
L 257.923634 315 
L 256.909093 315 
z
" style="fill:#1f77b4;"/>
   </g>
   <g id="patch_189">
    <path clip-path="url(#p00046f7898)" d="M 257.923639 315 
L 258.93818 315 
L 258.93818 313.459184 
L 257.923639 313.459184 
z
" style="fill:#1f77b4;"/>
   </g>
   <g id="patch_190">
    <path clip-path="url(#p00046f7898)" d="M 258.938184 315 
L 259.952725 315 
L 259.952725 315 
L 258.938184 315 
z
" style="fill:#1f77b4;"/>
   </g>
   <g id="patch_191">
    <path clip-path="url(#p00046f7898)" d="M 259.952729 315 
L 260.96727 315 
L 260.96727 315 
L 259.952729 315 
z
" style="fill:#1f77b4;"/>
   </g>
   <g id="patch_192">
    <path clip-path="url(#p00046f7898)" d="M 260.967275 315 
L 261.981816 315 
L 261.981816 315 
L 260.967275 315 
z
" style="fill:#1f77b4;"/>
   </g>
   <g id="patch_193">
    <path clip-path="url(#p00046f7898)" d="M 261.981821 315 
L 262.996363 315 
L 262.996363 315 
L 261.981821 315 
z
" style="fill:#1f77b4;"/>
   </g>
   <g id="patch_194">
    <path clip-path="url(#p00046f7898)" d="M 262.996366 315 
L 264.010907 315 
L 264.010907 315 
L 262.996366 315 
z
" style="fill:#1f77b4;"/>
   </g>
   <g id="patch_195">
    <path clip-path="url(#p00046f7898)" d="M 264.010911 315 
L 265.025452 315 
L 265.025452 315 
L 264.010911 315 
z
" style="fill:#1f77b4;"/>
   </g>
   <g id="patch_196">
    <path clip-path="url(#p00046f7898)" d="M 265.025455 315 
L 266.039997 315 
L 266.039997 315 
L 265.025455 315 
z
" style="fill:#1f77b4;"/>
   </g>
   <g id="patch_197">
    <path clip-path="url(#p00046f7898)" d="M 266.040002 315 
L 267.054543 315 
L 267.054543 313.459184 
L 266.040002 313.459184 
z
" style="fill:#1f77b4;"/>
   </g>
   <g id="patch_198">
    <path clip-path="url(#p00046f7898)" d="M 267.054548 315 
L 268.069089 315 
L 268.069089 315 
L 267.054548 315 
z
" style="fill:#1f77b4;"/>
   </g>
   <g id="patch_199">
    <path clip-path="url(#p00046f7898)" d="M 268.069093 315 
L 269.083634 315 
L 269.083634 302.673469 
L 268.069093 302.673469 
z
" style="fill:#1f77b4;"/>
   </g>
   <g id="patch_200">
    <path clip-path="url(#p00046f7898)" d="M 269.083638 315 
L 270.098179 315 
L 270.098179 239.5 
L 269.083638 239.5 
z
" style="fill:#1f77b4;"/>
   </g>
   <g id="patch_201">
    <path clip-path="url(#p00046f7898)" d="M 270.098184 315 
L 271.112725 315 
L 271.112725 221.010204 
L 270.098184 221.010204 
z
" style="fill:#1f77b4;"/>
   </g>
   <g id="patch_202">
    <path clip-path="url(#p00046f7898)" d="M 271.11273 315 
L 272.127272 315 
L 272.127272 196.357143 
L 271.11273 196.357143 
z
" style="fill:#1f77b4;"/>
   </g>
   <g id="patch_203">
    <path clip-path="url(#p00046f7898)" d="M 272.127275 315 
L 273.141816 315 
L 273.141816 227.173469 
L 272.127275 227.173469 
z
" style="fill:#1f77b4;"/>
   </g>
   <g id="patch_204">
    <path clip-path="url(#p00046f7898)" d="M 273.14182 315 
L 274.156361 315 
L 274.156361 200.979592 
L 273.14182 200.979592 
z
" style="fill:#1f77b4;"/>
   </g>
   <g id="patch_205">
    <path clip-path="url(#p00046f7898)" d="M 274.156366 315 
L 275.170907 315 
L 275.170907 193.27551 
L 274.156366 193.27551 
z
" style="fill:#1f77b4;"/>
   </g>
   <g id="patch_206">
    <path clip-path="url(#p00046f7898)" d="M 275.170911 315 
L 276.185452 315 
L 276.185452 230.255102 
L 275.170911 230.255102 
z
" style="fill:#1f77b4;"/>
   </g>
   <g id="patch_207">
    <path clip-path="url(#p00046f7898)" d="M 276.185455 315 
L 277.199995 315 
L 277.199995 225.632653 
L 276.185455 225.632653 
z
" style="fill:#1f77b4;"/>
   </g>
   <g id="patch_208">
    <path clip-path="url(#p00046f7898)" d="M 277.200002 315 
L 278.214543 315 
L 278.214543 216.387755 
L 277.200002 216.387755 
z
" style="fill:#1f77b4;"/>
   </g>
   <g id="patch_209">
    <path clip-path="url(#p00046f7898)" d="M 278.21455 315 
L 279.229091 315 
L 279.229091 237.959184 
L 278.21455 237.959184 
z
" style="fill:#1f77b4;"/>
   </g>
   <g id="patch_210">
    <path clip-path="url(#p00046f7898)" d="M 279.229091 315 
L 280.243632 315 
L 280.243632 247.204082 
L 279.229091 247.204082 
z
" style="fill:#1f77b4;"/>
   </g>
   <g id="patch_211">
    <path clip-path="url(#p00046f7898)" d="M 280.243639 315 
L 281.25818 315 
L 281.25818 244.122449 
L 280.243639 244.122449 
z
" style="fill:#1f77b4;"/>
   </g>
   <g id="patch_212">
    <path clip-path="url(#p00046f7898)" d="M 281.258184 315 
L 282.272725 315 
L 282.272725 262.612245 
L 281.258184 262.612245 
z
" style="fill:#1f77b4;"/>
   </g>
   <g id="patch_213">
    <path clip-path="url(#p00046f7898)" d="M 282.272729 315 
L 283.28727 315 
L 283.28727 279.561224 
L 282.272729 279.561224 
z
" style="fill:#1f77b4;"/>
   </g>
   <g id="patch_214">
    <path clip-path="url(#p00046f7898)" d="M 283.287277 315 
L 284.301818 315 
L 284.301818 271.857143 
L 283.287277 271.857143 
z
" style="fill:#1f77b4;"/>
   </g>
   <g id="patch_215">
    <path clip-path="url(#p00046f7898)" d="M 284.301818 315 
L 285.316359 315 
L 285.316359 288.806122 
L 284.301818 288.806122 
z
" style="fill:#1f77b4;"/>
   </g>
   <g id="patch_216">
    <path clip-path="url(#p00046f7898)" d="M 285.316366 315 
L 286.330907 315 
L 286.330907 284.183673 
L 285.316366 284.183673 
z
" style="fill:#1f77b4;"/>
   </g>
   <g id="patch_217">
    <path clip-path="url(#p00046f7898)" d="M 286.330914 315 
L 287.345455 315 
L 287.345455 285.72449 
L 286.330914 285.72449 
z
" style="fill:#1f77b4;"/>
   </g>
   <g id="patch_218">
    <path clip-path="url(#p00046f7898)" d="M 287.345455 315 
L 288.359997 315 
L 288.359997 294.969388 
L 287.345455 294.969388 
z
" style="fill:#1f77b4;"/>
   </g>
   <g id="patch_219">
    <path clip-path="url(#p00046f7898)" d="M 288.360004 315 
L 289.374545 315 
L 289.374545 285.72449 
L 288.360004 285.72449 
z
" style="fill:#1f77b4;"/>
   </g>
   <g id="patch_220">
    <path clip-path="url(#p00046f7898)" d="M 289.374545 315 
L 290.389086 315 
L 290.389086 293.428571 
L 289.374545 293.428571 
z
" style="fill:#1f77b4;"/>
   </g>
   <g id="patch_221">
    <path clip-path="url(#p00046f7898)" d="M 290.389093 315 
L 291.403634 315 
L 291.403634 299.591837 
L 290.389093 299.591837 
z
" style="fill:#1f77b4;"/>
   </g>
   <g id="patch_222">
    <path clip-path="url(#p00046f7898)" d="M 291.403641 315 
L 292.418182 315 
L 292.418182 287.265306 
L 291.403641 287.265306 
z
" style="fill:#1f77b4;"/>
   </g>
   <g id="patch_223">
    <path clip-path="url(#p00046f7898)" d="M 292.418182 315 
L 293.432723 315 
L 293.432723 290.346939 
L 292.418182 290.346939 
z
" style="fill:#1f77b4;"/>
   </g>
   <g id="patch_224">
    <path clip-path="url(#p00046f7898)" d="M 293.43273 315 
L 294.447272 315 
L 294.447272 299.591837 
L 293.43273 299.591837 
z
" style="fill:#1f77b4;"/>
   </g>
   <g id="patch_225">
    <path clip-path="url(#p00046f7898)" d="M 294.447275 315 
L 295.461816 315 
L 295.461816 293.428571 
L 294.447275 293.428571 
z
" style="fill:#1f77b4;"/>
   </g>
   <g id="patch_226">
    <path clip-path="url(#p00046f7898)" d="M 295.46182 315 
L 296.476361 315 
L 296.476361 305.755102 
L 295.46182 305.755102 
z
" style="fill:#1f77b4;"/>
   </g>
   <g id="patch_227">
    <path clip-path="url(#p00046f7898)" d="M 296.476368 315 
L 297.490909 315 
L 297.490909 302.673469 
L 296.476368 302.673469 
z
" style="fill:#1f77b4;"/>
   </g>
   <g id="patch_228">
    <path clip-path="url(#p00046f7898)" d="M 297.490909 315 
L 298.50545 315 
L 298.50545 307.295918 
L 297.490909 307.295918 
z
" style="fill:#1f77b4;"/>
   </g>
   <g id="patch_229">
    <path clip-path="url(#p00046f7898)" d="M 298.505457 315 
L 299.519998 315 
L 299.519998 310.377551 
L 298.505457 310.377551 
z
" style="fill:#1f77b4;"/>
   </g>
   <g id="patch_230">
    <path clip-path="url(#p00046f7898)" d="M 299.520002 315 
L 300.534543 315 
L 300.534543 304.214286 
L 299.520002 304.214286 
z
" style="fill:#1f77b4;"/>
   </g>
   <g id="patch_231">
    <path clip-path="url(#p00046f7898)" d="M 300.534547 315 
L 301.549088 315 
L 301.549088 305.755102 
L 300.534547 305.755102 
z
" style="fill:#1f77b4;"/>
   </g>
   <g id="patch_232">
    <path clip-path="url(#p00046f7898)" d="M 301.549095 315 
L 302.563636 315 
L 302.563636 313.459184 
L 301.549095 313.459184 
z
" style="fill:#1f77b4;"/>
   </g>
   <g id="patch_233">
    <path clip-path="url(#p00046f7898)" d="M 302.563636 315 
L 303.578177 315 
L 303.578177 313.459184 
L 302.563636 313.459184 
z
" style="fill:#1f77b4;"/>
   </g>
   <g id="patch_234">
    <path clip-path="url(#p00046f7898)" d="M 303.578184 315 
L 304.592725 315 
L 304.592725 313.459184 
L 303.578184 313.459184 
z
" style="fill:#1f77b4;"/>
   </g>
   <g id="patch_235">
    <path clip-path="url(#p00046f7898)" d="M 304.592732 315 
L 305.607273 315 
L 305.607273 302.673469 
L 304.592732 302.673469 
z
" style="fill:#1f77b4;"/>
   </g>
   <g id="patch_236">
    <path clip-path="url(#p00046f7898)" d="M 305.607277 315 
L 306.621822 315 
L 306.621822 313.459184 
L 305.607277 313.459184 
z
" style="fill:#1f77b4;"/>
   </g>
   <g id="patch_237">
    <path clip-path="url(#p00046f7898)" d="M 306.621822 315 
L 307.636363 315 
L 307.636363 313.459184 
L 306.621822 313.459184 
z
" style="fill:#1f77b4;"/>
   </g>
   <g id="patch_238">
    <path clip-path="url(#p00046f7898)" d="M 307.636363 315 
L 308.650904 315 
L 308.650904 310.377551 
L 307.636363 310.377551 
z
" style="fill:#1f77b4;"/>
   </g>
   <g id="patch_239">
    <path clip-path="url(#p00046f7898)" d="M 308.650911 315 
L 309.665452 315 
L 309.665452 315 
L 308.650911 315 
z
" style="fill:#1f77b4;"/>
   </g>
   <g id="patch_240">
    <path clip-path="url(#p00046f7898)" d="M 309.665459 315 
L 310.68 315 
L 310.68 311.918367 
L 309.665459 311.918367 
z
" style="fill:#1f77b4;"/>
   </g>
   <g id="patch_241">
    <path clip-path="url(#p00046f7898)" d="M 310.68 315 
L 311.694541 315 
L 311.694541 311.918367 
L 310.68 311.918367 
z
" style="fill:#1f77b4;"/>
   </g>
   <g id="patch_242">
    <path clip-path="url(#p00046f7898)" d="M 311.694548 315 
L 312.709089 315 
L 312.709089 310.377551 
L 311.694548 310.377551 
z
" style="fill:#1f77b4;"/>
   </g>
   <g id="patch_243">
    <path clip-path="url(#p00046f7898)" d="M 312.709097 315 
L 313.723638 315 
L 313.723638 313.459184 
L 312.709097 313.459184 
z
" style="fill:#1f77b4;"/>
   </g>
   <g id="patch_244">
    <path clip-path="url(#p00046f7898)" d="M 313.723638 315 
L 314.738179 315 
L 314.738179 313.459184 
L 313.723638 313.459184 
z
" style="fill:#1f77b4;"/>
   </g>
   <g id="patch_245">
    <path clip-path="url(#p00046f7898)" d="M 314.738179 315 
L 315.75272 315 
L 315.75272 313.459184 
L 314.738179 313.459184 
z
" style="fill:#1f77b4;"/>
   </g>
   <g id="patch_246">
    <path clip-path="url(#p00046f7898)" d="M 315.752734 315 
L 316.767275 315 
L 316.767275 315 
L 315.752734 315 
z
" style="fill:#1f77b4;"/>
   </g>
   <g id="patch_247">
    <path clip-path="url(#p00046f7898)" d="M 316.767275 315 
L 317.781816 315 
L 317.781816 313.459184 
L 316.767275 313.459184 
z
" style="fill:#1f77b4;"/>
   </g>
   <g id="patch_248">
    <path clip-path="url(#p00046f7898)" d="M 317.781816 315 
L 318.796357 315 
L 318.796357 313.459184 
L 317.781816 313.459184 
z
" style="fill:#1f77b4;"/>
   </g>
   <g id="patch_249">
    <path clip-path="url(#p00046f7898)" d="M 318.796364 315 
L 319.810906 315 
L 319.810906 315 
L 318.796364 315 
z
" style="fill:#1f77b4;"/>
   </g>
   <g id="patch_250">
    <path clip-path="url(#p00046f7898)" d="M 319.810913 315 
L 320.825454 315 
L 320.825454 315 
L 319.810913 315 
z
" style="fill:#1f77b4;"/>
   </g>
   <g id="patch_251">
    <path clip-path="url(#p00046f7898)" d="M 320.825454 315 
L 321.839995 315 
L 321.839995 313.459184 
L 320.825454 313.459184 
z
" style="fill:#1f77b4;"/>
   </g>
   <g id="patch_252">
    <path clip-path="url(#p00046f7898)" d="M 321.840002 315 
L 322.854543 315 
L 322.854543 315 
L 321.840002 315 
z
" style="fill:#1f77b4;"/>
   </g>
   <g id="patch_253">
    <path clip-path="url(#p00046f7898)" d="M 322.85455 315 
L 323.869091 315 
L 323.869091 315 
L 322.85455 315 
z
" style="fill:#1f77b4;"/>
   </g>
   <g id="patch_254">
    <path clip-path="url(#p00046f7898)" d="M 323.869091 315 
L 324.883632 315 
L 324.883632 313.459184 
L 323.869091 313.459184 
z
" style="fill:#1f77b4;"/>
   </g>
   <g id="patch_255">
    <path clip-path="url(#p00046f7898)" d="M 324.883639 315 
L 325.898181 315 
L 325.898181 313.459184 
L 324.883639 313.459184 
z
" style="fill:#1f77b4;"/>
   </g>
   <g id="patch_256">
    <path clip-path="url(#p00046f7898)" d="M 325.898188 315 
L 326.912729 315 
L 326.912729 315 
L 325.898188 315 
z
" style="fill:#1f77b4;"/>
   </g>
   <g id="patch_257">
    <path clip-path="url(#p00046f7898)" d="M 326.912729 315 
L 327.92727 315 
L 327.92727 315 
L 326.912729 315 
z
" style="fill:#1f77b4;"/>
   </g>
   <g id="patch_258">
    <path clip-path="url(#p00046f7898)" d="M 327.92727 315 
L 328.941811 315 
L 328.941811 315 
L 327.92727 315 
z
" style="fill:#1f77b4;"/>
   </g>
   <g id="patch_259">
    <path clip-path="url(#p00046f7898)" d="M 328.941825 315 
L 329.956366 315 
L 329.956366 315 
L 328.941825 315 
z
" style="fill:#1f77b4;"/>
   </g>
   <g id="patch_260">
    <path clip-path="url(#p00046f7898)" d="M 329.956366 315 
L 330.970907 315 
L 330.970907 315 
L 329.956366 315 
z
" style="fill:#1f77b4;"/>
   </g>
   <g id="patch_261">
    <path clip-path="url(#p00046f7898)" d="M 330.970907 315 
L 331.985448 315 
L 331.985448 315 
L 330.970907 315 
z
" style="fill:#1f77b4;"/>
   </g>
   <g id="patch_262">
    <path clip-path="url(#p00046f7898)" d="M 331.985456 315 
L 332.999997 315 
L 332.999997 315 
L 331.985456 315 
z
" style="fill:#1f77b4;"/>
   </g>
   <g id="patch_263">
    <path clip-path="url(#p00046f7898)" d="M 333.000004 315 
L 334.014545 315 
L 334.014545 315 
L 333.000004 315 
z
" style="fill:#1f77b4;"/>
   </g>
   <g id="patch_264">
    <path clip-path="url(#p00046f7898)" d="M 334.014545 315 
L 335.029086 315 
L 335.029086 315 
L 334.014545 315 
z
" style="fill:#1f77b4;"/>
   </g>
   <g id="patch_265">
    <path clip-path="url(#p00046f7898)" d="M 335.029093 315 
L 336.043634 315 
L 336.043634 313.459184 
L 335.029093 313.459184 
z
" style="fill:#1f77b4;"/>
   </g>
   <g id="patch_266">
    <path clip-path="url(#p00046f7898)" d="M 336.043641 315 
L 337.058182 315 
L 337.058182 315 
L 336.043641 315 
z
" style="fill:#1f77b4;"/>
   </g>
   <g id="patch_267">
    <path clip-path="url(#p00046f7898)" d="M 337.058182 315 
L 338.072723 315 
L 338.072723 315 
L 337.058182 315 
z
" style="fill:#1f77b4;"/>
   </g>
   <g id="patch_268">
    <path clip-path="url(#p00046f7898)" d="M 338.072731 315 
L 339.087272 315 
L 339.087272 315 
L 338.072731 315 
z
" style="fill:#1f77b4;"/>
   </g>
   <g id="patch_269">
    <path clip-path="url(#p00046f7898)" d="M 339.087279 315 
L 340.10182 315 
L 340.10182 315 
L 339.087279 315 
z
" style="fill:#1f77b4;"/>
   </g>
   <g id="patch_270">
    <path clip-path="url(#p00046f7898)" d="M 340.10182 315 
L 341.116361 315 
L 341.116361 308.836735 
L 340.10182 308.836735 
z
" style="fill:#1f77b4;"/>
   </g>
   <g id="patch_271">
    <path clip-path="url(#p00046f7898)" d="M 341.116361 315 
L 342.130902 315 
L 342.130902 315 
L 341.116361 315 
z
" style="fill:#1f77b4;"/>
   </g>
   <g id="patch_272">
    <path clip-path="url(#p00046f7898)" d="M 342.130916 315 
L 343.145457 315 
L 343.145457 315 
L 342.130916 315 
z
" style="fill:#1f77b4;"/>
   </g>
   <g id="patch_273">
    <path clip-path="url(#p00046f7898)" d="M 343.145457 315 
L 344.159998 315 
L 344.159998 315 
L 343.145457 315 
z
" style="fill:#1f77b4;"/>
   </g>
   <g id="patch_274">
    <path clip-path="url(#p00046f7898)" d="M 344.159998 315 
L 345.17454 315 
L 345.17454 315 
L 344.159998 315 
z
" style="fill:#1f77b4;"/>
   </g>
   <g id="patch_275">
    <path clip-path="url(#p00046f7898)" d="M 345.174547 315 
L 346.189088 315 
L 346.189088 315 
L 345.174547 315 
z
" style="fill:#1f77b4;"/>
   </g>
   <g id="patch_276">
    <path clip-path="url(#p00046f7898)" d="M 346.189095 315 
L 347.203636 315 
L 347.203636 315 
L 346.189095 315 
z
" style="fill:#1f77b4;"/>
   </g>
   <g id="patch_277">
    <path clip-path="url(#p00046f7898)" d="M 347.203636 315 
L 348.218177 315 
L 348.218177 315 
L 347.203636 315 
z
" style="fill:#1f77b4;"/>
   </g>
   <g id="patch_278">
    <path clip-path="url(#p00046f7898)" d="M 348.218184 315 
L 349.232725 315 
L 349.232725 315 
L 348.218184 315 
z
" style="fill:#1f77b4;"/>
   </g>
   <g id="patch_279">
    <path clip-path="url(#p00046f7898)" d="M 349.232732 315 
L 350.247273 315 
L 350.247273 315 
L 349.232732 315 
z
" style="fill:#1f77b4;"/>
   </g>
   <g id="patch_280">
    <path clip-path="url(#p00046f7898)" d="M 350.247273 315 
L 351.261815 315 
L 351.261815 315 
L 350.247273 315 
z
" style="fill:#1f77b4;"/>
   </g>
   <g id="patch_281">
    <path clip-path="url(#p00046f7898)" d="M 351.261822 315 
L 352.276363 315 
L 352.276363 313.459184 
L 351.261822 313.459184 
z
" style="fill:#1f77b4;"/>
   </g>
   <g id="patch_282">
    <path clip-path="url(#p00046f7898)" d="M 352.27637 315 
L 353.290911 315 
L 353.290911 315 
L 352.27637 315 
z
" style="fill:#1f77b4;"/>
   </g>
   <g id="patch_283">
    <path clip-path="url(#p00046f7898)" d="M 353.290911 315 
L 354.305452 315 
L 354.305452 315 
L 353.290911 315 
z
" style="fill:#1f77b4;"/>
   </g>
   <g id="patch_284">
    <path clip-path="url(#p00046f7898)" d="M 354.305452 315 
L 355.319993 315 
L 355.319993 313.459184 
L 354.305452 313.459184 
z
" style="fill:#1f77b4;"/>
   </g>
   <g id="patch_285">
    <path clip-path="url(#p00046f7898)" d="M 355.320007 315 
L 356.334548 315 
L 356.334548 315 
L 355.320007 315 
z
" style="fill:#1f77b4;"/>
   </g>
   <g id="patch_286">
    <path clip-path="url(#p00046f7898)" d="M 356.334548 315 
L 357.34909 315 
L 357.34909 315 
L 356.334548 315 
z
" style="fill:#1f77b4;"/>
   </g>
   <g id="patch_287">
    <path clip-path="url(#p00046f7898)" d="M 357.34909 315 
L 358.363631 315 
L 358.363631 315 
L 357.34909 315 
z
" style="fill:#1f77b4;"/>
   </g>
   <g id="patch_288">
    <path clip-path="url(#p00046f7898)" d="M 358.363638 315 
L 359.378179 315 
L 359.378179 315 
L 358.363638 315 
z
" style="fill:#1f77b4;"/>
   </g>
   <g id="patch_289">
    <path clip-path="url(#p00046f7898)" d="M 359.378186 315 
L 360.392727 315 
L 360.392727 315 
L 359.378186 315 
z
" style="fill:#1f77b4;"/>
   </g>
   <g id="patch_290">
    <path clip-path="url(#p00046f7898)" d="M 360.392727 315 
L 361.407268 315 
L 361.407268 315 
L 360.392727 315 
z
" style="fill:#1f77b4;"/>
   </g>
   <g id="patch_291">
    <path clip-path="url(#p00046f7898)" d="M 361.407275 315 
L 362.421816 315 
L 362.421816 315 
L 361.407275 315 
z
" style="fill:#1f77b4;"/>
   </g>
   <g id="patch_292">
    <path clip-path="url(#p00046f7898)" d="M 362.421823 315 
L 363.436365 315 
L 363.436365 315 
L 362.421823 315 
z
" style="fill:#1f77b4;"/>
   </g>
   <g id="patch_293">
    <path clip-path="url(#p00046f7898)" d="M 363.436365 315 
L 364.450906 315 
L 364.450906 315 
L 363.436365 315 
z
" style="fill:#1f77b4;"/>
   </g>
   <g id="patch_294">
    <path clip-path="url(#p00046f7898)" d="M 364.450906 315 
L 365.465447 315 
L 365.465447 315 
L 364.450906 315 
z
" style="fill:#1f77b4;"/>
   </g>
   <g id="patch_295">
    <path clip-path="url(#p00046f7898)" d="M 365.465461 315 
L 366.480002 315 
L 366.480002 313.459184 
L 365.465461 313.459184 
z
" style="fill:#1f77b4;"/>
   </g>
   <g id="patch_296">
    <path clip-path="url(#p00046f7898)" d="M 366.480002 315 
L 367.494543 315 
L 367.494543 315 
L 366.480002 315 
z
" style="fill:#1f77b4;"/>
   </g>
   <g id="patch_297">
    <path clip-path="url(#p00046f7898)" d="M 367.494543 315 
L 368.509084 315 
L 368.509084 315 
L 367.494543 315 
z
" style="fill:#1f77b4;"/>
   </g>
   <g id="patch_298">
    <path clip-path="url(#p00046f7898)" d="M 368.509084 315 
L 369.52364 315 
L 369.52364 313.459184 
L 368.509084 313.459184 
z
" style="fill:#1f77b4;"/>
   </g>
   <g id="patch_299">
    <path clip-path="url(#p00046f7898)" d="M 369.52364 315 
L 370.538181 315 
L 370.538181 315 
L 369.52364 315 
z
" style="fill:#1f77b4;"/>
   </g>
   <g id="patch_300">
    <path clip-path="url(#p00046f7898)" d="M 370.538181 315 
L 371.552722 315 
L 371.552722 315 
L 370.538181 315 
z
" style="fill:#1f77b4;"/>
   </g>
   <g id="patch_301">
    <path clip-path="url(#p00046f7898)" d="M 371.552736 315 
L 372.567291 315 
L 372.567291 315 
L 371.552736 315 
z
" style="fill:#1f77b4;"/>
   </g>
   <g id="patch_302">
    <path clip-path="url(#p00046f7898)" d="M 372.567277 315 
L 373.581818 315 
L 373.581818 313.459184 
L 372.567277 313.459184 
z
" style="fill:#1f77b4;"/>
   </g>
   <g id="matplotlib.axis_1">
    <g id="xtick_1">
     <g id="line2d_1">
      <defs>
       <path d="M 0 0 
L 0 3.5 
" id="mfc7e502165" style="stroke:#000000;stroke-width:0.8;"/>
      </defs>
      <g>
       <use style="stroke:#000000;stroke-width:0.8;" x="68.745092" xlink:href="#mfc7e502165" y="315"/>
      </g>
     </g>
     <g id="text_1">
      <!-- 1.5 -->
      <defs>
       <path d="M 10.59375 35.5 
L 73.1875 35.5 
L 73.1875 27.203125 
L 10.59375 27.203125 
z
" id="DejaVuSans-8722"/>
       <path d="M 12.40625 8.296875 
L 28.515625 8.296875 
L 28.515625 63.921875 
L 10.984375 60.40625 
L 10.984375 69.390625 
L 28.421875 72.90625 
L 38.28125 72.90625 
L 38.28125 8.296875 
L 54.390625 8.296875 
L 54.390625 0 
L 12.40625 0 
z
" id="DejaVuSans-49"/>
       <path d="M 10.6875 12.40625 
L 21 12.40625 
L 21 0 
L 10.6875 0 
z
" id="DejaVuSans-46"/>
       <path d="M 10.796875 72.90625 
L 49.515625 72.90625 
L 49.515625 64.59375 
L 19.828125 64.59375 
L 19.828125 46.734375 
Q 21.96875 47.46875 24.109375 47.828125 
Q 26.265625 48.1875 28.421875 48.1875 
Q 40.625 48.1875 47.75 41.5 
Q 54.890625 34.8125 54.890625 23.390625 
Q 54.890625 11.625 47.5625 5.09375 
Q 40.234375 -1.421875 26.90625 -1.421875 
Q 22.3125 -1.421875 17.546875 -0.640625 
Q 12.796875 0.140625 7.71875 1.703125 
L 7.71875 11.625 
Q 12.109375 9.234375 16.796875 8.0625 
Q 21.484375 6.890625 26.703125 6.890625 
Q 35.15625 6.890625 40.078125 11.328125 
Q 45.015625 15.765625 45.015625 23.390625 
Q 45.015625 31 40.078125 35.4375 
Q 35.15625 39.890625 26.703125 39.890625 
Q 22.75 39.890625 18.8125 39.015625 
Q 14.890625 38.140625 10.796875 36.28125 
z
" id="DejaVuSans-53"/>
      </defs>
      <g transform="translate(52.961264 331.877969)scale(0.13 -0.13)">
       <use xlink:href="#DejaVuSans-8722"/>
       <use x="83.789062" xlink:href="#DejaVuSans-49"/>
       <use x="147.412109" xlink:href="#DejaVuSans-46"/>
       <use x="179.199219" xlink:href="#DejaVuSans-53"/>
      </g>
     </g>
    </g>
    <g id="xtick_2">
     <g id="line2d_2">
      <g>
       <use style="stroke:#000000;stroke-width:0.8;" x="128.183211" xlink:href="#mfc7e502165" y="315"/>
      </g>
     </g>
     <g id="text_2">
      <!-- 1.0 -->
      <defs>
       <path d="M 31.78125 66.40625 
Q 24.171875 66.40625 20.328125 58.90625 
Q 16.5 51.421875 16.5 36.375 
Q 16.5 21.390625 20.328125 13.890625 
Q 24.171875 6.390625 31.78125 6.390625 
Q 39.453125 6.390625 43.28125 13.890625 
Q 47.125 21.390625 47.125 36.375 
Q 47.125 51.421875 43.28125 58.90625 
Q 39.453125 66.40625 31.78125 66.40625 
z
M 31.78125 74.21875 
Q 44.046875 74.21875 50.515625 64.515625 
Q 56.984375 54.828125 56.984375 36.375 
Q 56.984375 17.96875 50.515625 8.265625 
Q 44.046875 -1.421875 31.78125 -1.421875 
Q 19.53125 -1.421875 13.0625 8.265625 
Q 6.59375 17.96875 6.59375 36.375 
Q 6.59375 54.828125 13.0625 64.515625 
Q 19.53125 74.21875 31.78125 74.21875 
z
" id="DejaVuSans-48"/>
      </defs>
      <g transform="translate(112.399383 331.877969)scale(0.13 -0.13)">
       <use xlink:href="#DejaVuSans-8722"/>
       <use x="83.789062" xlink:href="#DejaVuSans-49"/>
       <use x="147.412109" xlink:href="#DejaVuSans-46"/>
       <use x="179.199219" xlink:href="#DejaVuSans-48"/>
      </g>
     </g>
    </g>
    <g id="xtick_3">
     <g id="line2d_3">
      <g>
       <use style="stroke:#000000;stroke-width:0.8;" x="187.621331" xlink:href="#mfc7e502165" y="315"/>
      </g>
     </g>
     <g id="text_3">
      <!-- 0.5 -->
      <g transform="translate(171.837502 331.877969)scale(0.13 -0.13)">
       <use xlink:href="#DejaVuSans-8722"/>
       <use x="83.789062" xlink:href="#DejaVuSans-48"/>
       <use x="147.412109" xlink:href="#DejaVuSans-46"/>
       <use x="179.199219" xlink:href="#DejaVuSans-53"/>
      </g>
     </g>
    </g>
    <g id="xtick_4">
     <g id="line2d_4">
      <g>
       <use style="stroke:#000000;stroke-width:0.8;" x="247.05945" xlink:href="#mfc7e502165" y="315"/>
      </g>
     </g>
     <g id="text_4">
      <!-- 0.0 -->
      <g transform="translate(236.722418 331.877969)scale(0.13 -0.13)">
       <use xlink:href="#DejaVuSans-48"/>
       <use x="63.623047" xlink:href="#DejaVuSans-46"/>
       <use x="95.410156" xlink:href="#DejaVuSans-48"/>
      </g>
     </g>
    </g>
    <g id="xtick_5">
     <g id="line2d_5">
      <g>
       <use style="stroke:#000000;stroke-width:0.8;" x="306.497569" xlink:href="#mfc7e502165" y="315"/>
      </g>
     </g>
     <g id="text_5">
      <!-- 0.5 -->
      <g transform="translate(296.160538 331.877969)scale(0.13 -0.13)">
       <use xlink:href="#DejaVuSans-48"/>
       <use x="63.623047" xlink:href="#DejaVuSans-46"/>
       <use x="95.410156" xlink:href="#DejaVuSans-53"/>
      </g>
     </g>
    </g>
    <g id="xtick_6">
     <g id="line2d_6">
      <g>
       <use style="stroke:#000000;stroke-width:0.8;" x="365.935688" xlink:href="#mfc7e502165" y="315"/>
      </g>
     </g>
     <g id="text_6">
      <!-- 1.0 -->
      <g transform="translate(355.598657 331.877969)scale(0.13 -0.13)">
       <use xlink:href="#DejaVuSans-49"/>
       <use x="63.623047" xlink:href="#DejaVuSans-46"/>
       <use x="95.410156" xlink:href="#DejaVuSans-48"/>
      </g>
     </g>
    </g>
    <g id="text_7">
     <!-- Weight value -->
     <defs>
      <path d="M 3.328125 72.90625 
L 13.28125 72.90625 
L 28.609375 11.28125 
L 43.890625 72.90625 
L 54.984375 72.90625 
L 70.3125 11.28125 
L 85.59375 72.90625 
L 95.609375 72.90625 
L 77.296875 0 
L 64.890625 0 
L 49.515625 63.28125 
L 33.984375 0 
L 21.578125 0 
z
" id="DejaVuSans-87"/>
      <path d="M 56.203125 29.59375 
L 56.203125 25.203125 
L 14.890625 25.203125 
Q 15.484375 15.921875 20.484375 11.0625 
Q 25.484375 6.203125 34.421875 6.203125 
Q 39.59375 6.203125 44.453125 7.46875 
Q 49.3125 8.734375 54.109375 11.28125 
L 54.109375 2.78125 
Q 49.265625 0.734375 44.1875 -0.34375 
Q 39.109375 -1.421875 33.890625 -1.421875 
Q 20.796875 -1.421875 13.15625 6.1875 
Q 5.515625 13.8125 5.515625 26.8125 
Q 5.515625 40.234375 12.765625 48.109375 
Q 20.015625 56 32.328125 56 
Q 43.359375 56 49.78125 48.890625 
Q 56.203125 41.796875 56.203125 29.59375 
z
M 47.21875 32.234375 
Q 47.125 39.59375 43.09375 43.984375 
Q 39.0625 48.390625 32.421875 48.390625 
Q 24.90625 48.390625 20.390625 44.140625 
Q 15.875 39.890625 15.1875 32.171875 
z
" id="DejaVuSans-101"/>
      <path d="M 9.421875 54.6875 
L 18.40625 54.6875 
L 18.40625 0 
L 9.421875 0 
z
M 9.421875 75.984375 
L 18.40625 75.984375 
L 18.40625 64.59375 
L 9.421875 64.59375 
z
" id="DejaVuSans-105"/>
      <path d="M 45.40625 27.984375 
Q 45.40625 37.75 41.375 43.109375 
Q 37.359375 48.484375 30.078125 48.484375 
Q 22.859375 48.484375 18.828125 43.109375 
Q 14.796875 37.75 14.796875 27.984375 
Q 14.796875 18.265625 18.828125 12.890625 
Q 22.859375 7.515625 30.078125 7.515625 
Q 37.359375 7.515625 41.375 12.890625 
Q 45.40625 18.265625 45.40625 27.984375 
z
M 54.390625 6.78125 
Q 54.390625 -7.171875 48.1875 -13.984375 
Q 42 -20.796875 29.203125 -20.796875 
Q 24.46875 -20.796875 20.265625 -20.09375 
Q 16.0625 -19.390625 12.109375 -17.921875 
L 12.109375 -9.1875 
Q 16.0625 -11.328125 19.921875 -12.34375 
Q 23.78125 -13.375 27.78125 -13.375 
Q 36.625 -13.375 41.015625 -8.765625 
Q 45.40625 -4.15625 45.40625 5.171875 
L 45.40625 9.625 
Q 42.625 4.78125 38.28125 2.390625 
Q 33.9375 0 27.875 0 
Q 17.828125 0 11.671875 7.65625 
Q 5.515625 15.328125 5.515625 27.984375 
Q 5.515625 40.671875 11.671875 48.328125 
Q 17.828125 56 27.875 56 
Q 33.9375 56 38.28125 53.609375 
Q 42.625 51.21875 45.40625 46.390625 
L 45.40625 54.6875 
L 54.390625 54.6875 
z
" id="DejaVuSans-103"/>
      <path d="M 54.890625 33.015625 
L 54.890625 0 
L 45.90625 0 
L 45.90625 32.71875 
Q 45.90625 40.484375 42.875 44.328125 
Q 39.84375 48.1875 33.796875 48.1875 
Q 26.515625 48.1875 22.3125 43.546875 
Q 18.109375 38.921875 18.109375 30.90625 
L 18.109375 0 
L 9.078125 0 
L 9.078125 75.984375 
L 18.109375 75.984375 
L 18.109375 46.1875 
Q 21.34375 51.125 25.703125 53.5625 
Q 30.078125 56 35.796875 56 
Q 45.21875 56 50.046875 50.171875 
Q 54.890625 44.34375 54.890625 33.015625 
z
" id="DejaVuSans-104"/>
      <path d="M 18.3125 70.21875 
L 18.3125 54.6875 
L 36.8125 54.6875 
L 36.8125 47.703125 
L 18.3125 47.703125 
L 18.3125 18.015625 
Q 18.3125 11.328125 20.140625 9.421875 
Q 21.96875 7.515625 27.59375 7.515625 
L 36.8125 7.515625 
L 36.8125 0 
L 27.59375 0 
Q 17.1875 0 13.234375 3.875 
Q 9.28125 7.765625 9.28125 18.015625 
L 9.28125 47.703125 
L 2.6875 47.703125 
L 2.6875 54.6875 
L 9.28125 54.6875 
L 9.28125 70.21875 
z
" id="DejaVuSans-116"/>
      <path id="DejaVuSans-32"/>
      <path d="M 2.984375 54.6875 
L 12.5 54.6875 
L 29.59375 8.796875 
L 46.6875 54.6875 
L 56.203125 54.6875 
L 35.6875 0 
L 23.484375 0 
z
" id="DejaVuSans-118"/>
      <path d="M 34.28125 27.484375 
Q 23.390625 27.484375 19.1875 25 
Q 14.984375 22.515625 14.984375 16.5 
Q 14.984375 11.71875 18.140625 8.90625 
Q 21.296875 6.109375 26.703125 6.109375 
Q 34.1875 6.109375 38.703125 11.40625 
Q 43.21875 16.703125 43.21875 25.484375 
L 43.21875 27.484375 
z
M 52.203125 31.203125 
L 52.203125 0 
L 43.21875 0 
L 43.21875 8.296875 
Q 40.140625 3.328125 35.546875 0.953125 
Q 30.953125 -1.421875 24.3125 -1.421875 
Q 15.921875 -1.421875 10.953125 3.296875 
Q 6 8.015625 6 15.921875 
Q 6 25.140625 12.171875 29.828125 
Q 18.359375 34.515625 30.609375 34.515625 
L 43.21875 34.515625 
L 43.21875 35.40625 
Q 43.21875 41.609375 39.140625 45 
Q 35.0625 48.390625 27.6875 48.390625 
Q 23 48.390625 18.546875 47.265625 
Q 14.109375 46.140625 10.015625 43.890625 
L 10.015625 52.203125 
Q 14.9375 54.109375 19.578125 55.046875 
Q 24.21875 56 28.609375 56 
Q 40.484375 56 46.34375 49.84375 
Q 52.203125 43.703125 52.203125 31.203125 
z
" id="DejaVuSans-97"/>
      <path d="M 9.421875 75.984375 
L 18.40625 75.984375 
L 18.40625 0 
L 9.421875 0 
z
" id="DejaVuSans-108"/>
      <path d="M 8.5 21.578125 
L 8.5 54.6875 
L 17.484375 54.6875 
L 17.484375 21.921875 
Q 17.484375 14.15625 20.5 10.265625 
Q 23.53125 6.390625 29.59375 6.390625 
Q 36.859375 6.390625 41.078125 11.03125 
Q 45.3125 15.671875 45.3125 23.6875 
L 45.3125 54.6875 
L 54.296875 54.6875 
L 54.296875 0 
L 45.3125 0 
L 45.3125 8.40625 
Q 42.046875 3.421875 37.71875 1 
Q 33.40625 -1.421875 27.6875 -1.421875 
Q 18.265625 -1.421875 13.375 4.4375 
Q 8.5 10.296875 8.5 21.578125 
z
M 31.109375 56 
z
" id="DejaVuSans-117"/>
     </defs>
     <g transform="translate(178.557891 348.459531)scale(0.13 -0.13)">
      <use xlink:href="#DejaVuSans-87"/>
      <use x="98.798828" xlink:href="#DejaVuSans-101"/>
      <use x="160.322266" xlink:href="#DejaVuSans-105"/>
      <use x="188.105469" xlink:href="#DejaVuSans-103"/>
      <use x="251.582031" xlink:href="#DejaVuSans-104"/>
      <use x="314.960938" xlink:href="#DejaVuSans-116"/>
      <use x="354.169922" xlink:href="#DejaVuSans-32"/>
      <use x="385.957031" xlink:href="#DejaVuSans-118"/>
      <use x="445.136719" xlink:href="#DejaVuSans-97"/>
      <use x="506.416016" xlink:href="#DejaVuSans-108"/>
      <use x="534.199219" xlink:href="#DejaVuSans-117"/>
      <use x="597.578125" xlink:href="#DejaVuSans-101"/>
     </g>
    </g>
   </g>
   <g id="matplotlib.axis_2">
    <g id="ytick_1">
     <g id="line2d_7">
      <defs>
       <path d="M 0 0 
L -3.5 0 
" id="mf2b78b0ccf" style="stroke:#000000;stroke-width:0.8;"/>
      </defs>
      <g>
       <use style="stroke:#000000;stroke-width:0.8;" x="54" xlink:href="#mf2b78b0ccf" y="315"/>
      </g>
     </g>
     <g id="text_8">
      <!-- 0 -->
      <g transform="translate(38.72875 319.938984)scale(0.13 -0.13)">
       <use xlink:href="#DejaVuSans-48"/>
      </g>
     </g>
    </g>
    <g id="ytick_2">
     <g id="line2d_8">
      <g>
       <use style="stroke:#000000;stroke-width:0.8;" x="54" xlink:href="#mf2b78b0ccf" y="284.183673"/>
      </g>
     </g>
     <g id="text_9">
      <!-- 20 -->
      <defs>
       <path d="M 19.1875 8.296875 
L 53.609375 8.296875 
L 53.609375 0 
L 7.328125 0 
L 7.328125 8.296875 
Q 12.9375 14.109375 22.625 23.890625 
Q 32.328125 33.6875 34.8125 36.53125 
Q 39.546875 41.84375 41.421875 45.53125 
Q 43.3125 49.21875 43.3125 52.78125 
Q 43.3125 58.59375 39.234375 62.25 
Q 35.15625 65.921875 28.609375 65.921875 
Q 23.96875 65.921875 18.8125 64.3125 
Q 13.671875 62.703125 7.8125 59.421875 
L 7.8125 69.390625 
Q 13.765625 71.78125 18.9375 73 
Q 24.125 74.21875 28.421875 74.21875 
Q 39.75 74.21875 46.484375 68.546875 
Q 53.21875 62.890625 53.21875 53.421875 
Q 53.21875 48.921875 51.53125 44.890625 
Q 49.859375 40.875 45.40625 35.40625 
Q 44.1875 33.984375 37.640625 27.21875 
Q 31.109375 20.453125 19.1875 8.296875 
z
" id="DejaVuSans-50"/>
      </defs>
      <g transform="translate(30.4575 289.122658)scale(0.13 -0.13)">
       <use xlink:href="#DejaVuSans-50"/>
       <use x="63.623047" xlink:href="#DejaVuSans-48"/>
      </g>
     </g>
    </g>
    <g id="ytick_3">
     <g id="line2d_9">
      <g>
       <use style="stroke:#000000;stroke-width:0.8;" x="54" xlink:href="#mf2b78b0ccf" y="253.367347"/>
      </g>
     </g>
     <g id="text_10">
      <!-- 40 -->
      <defs>
       <path d="M 37.796875 64.3125 
L 12.890625 25.390625 
L 37.796875 25.390625 
z
M 35.203125 72.90625 
L 47.609375 72.90625 
L 47.609375 25.390625 
L 58.015625 25.390625 
L 58.015625 17.1875 
L 47.609375 17.1875 
L 47.609375 0 
L 37.796875 0 
L 37.796875 17.1875 
L 4.890625 17.1875 
L 4.890625 26.703125 
z
" id="DejaVuSans-52"/>
      </defs>
      <g transform="translate(30.4575 258.306331)scale(0.13 -0.13)">
       <use xlink:href="#DejaVuSans-52"/>
       <use x="63.623047" xlink:href="#DejaVuSans-48"/>
      </g>
     </g>
    </g>
    <g id="ytick_4">
     <g id="line2d_10">
      <g>
       <use style="stroke:#000000;stroke-width:0.8;" x="54" xlink:href="#mf2b78b0ccf" y="222.55102"/>
      </g>
     </g>
     <g id="text_11">
      <!-- 60 -->
      <defs>
       <path d="M 33.015625 40.375 
Q 26.375 40.375 22.484375 35.828125 
Q 18.609375 31.296875 18.609375 23.390625 
Q 18.609375 15.53125 22.484375 10.953125 
Q 26.375 6.390625 33.015625 6.390625 
Q 39.65625 6.390625 43.53125 10.953125 
Q 47.40625 15.53125 47.40625 23.390625 
Q 47.40625 31.296875 43.53125 35.828125 
Q 39.65625 40.375 33.015625 40.375 
z
M 52.59375 71.296875 
L 52.59375 62.3125 
Q 48.875 64.0625 45.09375 64.984375 
Q 41.3125 65.921875 37.59375 65.921875 
Q 27.828125 65.921875 22.671875 59.328125 
Q 17.53125 52.734375 16.796875 39.40625 
Q 19.671875 43.65625 24.015625 45.921875 
Q 28.375 48.1875 33.59375 48.1875 
Q 44.578125 48.1875 50.953125 41.515625 
Q 57.328125 34.859375 57.328125 23.390625 
Q 57.328125 12.15625 50.6875 5.359375 
Q 44.046875 -1.421875 33.015625 -1.421875 
Q 20.359375 -1.421875 13.671875 8.265625 
Q 6.984375 17.96875 6.984375 36.375 
Q 6.984375 53.65625 15.1875 63.9375 
Q 23.390625 74.21875 37.203125 74.21875 
Q 40.921875 74.21875 44.703125 73.484375 
Q 48.484375 72.75 52.59375 71.296875 
z
" id="DejaVuSans-54"/>
      </defs>
      <g transform="translate(30.4575 227.490005)scale(0.13 -0.13)">
       <use xlink:href="#DejaVuSans-54"/>
       <use x="63.623047" xlink:href="#DejaVuSans-48"/>
      </g>
     </g>
    </g>
    <g id="ytick_5">
     <g id="line2d_11">
      <g>
       <use style="stroke:#000000;stroke-width:0.8;" x="54" xlink:href="#mf2b78b0ccf" y="191.734694"/>
      </g>
     </g>
     <g id="text_12">
      <!-- 80 -->
      <defs>
       <path d="M 31.78125 34.625 
Q 24.75 34.625 20.71875 30.859375 
Q 16.703125 27.09375 16.703125 20.515625 
Q 16.703125 13.921875 20.71875 10.15625 
Q 24.75 6.390625 31.78125 6.390625 
Q 38.8125 6.390625 42.859375 10.171875 
Q 46.921875 13.96875 46.921875 20.515625 
Q 46.921875 27.09375 42.890625 30.859375 
Q 38.875 34.625 31.78125 34.625 
z
M 21.921875 38.8125 
Q 15.578125 40.375 12.03125 44.71875 
Q 8.5 49.078125 8.5 55.328125 
Q 8.5 64.0625 14.71875 69.140625 
Q 20.953125 74.21875 31.78125 74.21875 
Q 42.671875 74.21875 48.875 69.140625 
Q 55.078125 64.0625 55.078125 55.328125 
Q 55.078125 49.078125 51.53125 44.71875 
Q 48 40.375 41.703125 38.8125 
Q 48.828125 37.15625 52.796875 32.3125 
Q 56.78125 27.484375 56.78125 20.515625 
Q 56.78125 9.90625 50.3125 4.234375 
Q 43.84375 -1.421875 31.78125 -1.421875 
Q 19.734375 -1.421875 13.25 4.234375 
Q 6.78125 9.90625 6.78125 20.515625 
Q 6.78125 27.484375 10.78125 32.3125 
Q 14.796875 37.15625 21.921875 38.8125 
z
M 18.3125 54.390625 
Q 18.3125 48.734375 21.84375 45.5625 
Q 25.390625 42.390625 31.78125 42.390625 
Q 38.140625 42.390625 41.71875 45.5625 
Q 45.3125 48.734375 45.3125 54.390625 
Q 45.3125 60.0625 41.71875 63.234375 
Q 38.140625 66.40625 31.78125 66.40625 
Q 25.390625 66.40625 21.84375 63.234375 
Q 18.3125 60.0625 18.3125 54.390625 
z
" id="DejaVuSans-56"/>
      </defs>
      <g transform="translate(30.4575 196.673678)scale(0.13 -0.13)">
       <use xlink:href="#DejaVuSans-56"/>
       <use x="63.623047" xlink:href="#DejaVuSans-48"/>
      </g>
     </g>
    </g>
    <g id="ytick_6">
     <g id="line2d_12">
      <g>
       <use style="stroke:#000000;stroke-width:0.8;" x="54" xlink:href="#mf2b78b0ccf" y="160.918367"/>
      </g>
     </g>
     <g id="text_13">
      <!-- 100 -->
      <g transform="translate(22.18625 165.857352)scale(0.13 -0.13)">
       <use xlink:href="#DejaVuSans-49"/>
       <use x="63.623047" xlink:href="#DejaVuSans-48"/>
       <use x="127.246094" xlink:href="#DejaVuSans-48"/>
      </g>
     </g>
    </g>
    <g id="ytick_7">
     <g id="line2d_13">
      <g>
       <use style="stroke:#000000;stroke-width:0.8;" x="54" xlink:href="#mf2b78b0ccf" y="130.102041"/>
      </g>
     </g>
     <g id="text_14">
      <!-- 120 -->
      <g transform="translate(22.18625 135.041025)scale(0.13 -0.13)">
       <use xlink:href="#DejaVuSans-49"/>
       <use x="63.623047" xlink:href="#DejaVuSans-50"/>
       <use x="127.246094" xlink:href="#DejaVuSans-48"/>
      </g>
     </g>
    </g>
    <g id="ytick_8">
     <g id="line2d_14">
      <g>
       <use style="stroke:#000000;stroke-width:0.8;" x="54" xlink:href="#mf2b78b0ccf" y="99.285714"/>
      </g>
     </g>
     <g id="text_15">
      <!-- 140 -->
      <g transform="translate(22.18625 104.224699)scale(0.13 -0.13)">
       <use xlink:href="#DejaVuSans-49"/>
       <use x="63.623047" xlink:href="#DejaVuSans-52"/>
       <use x="127.246094" xlink:href="#DejaVuSans-48"/>
      </g>
     </g>
    </g>
    <g id="ytick_9">
     <g id="line2d_15">
      <g>
       <use style="stroke:#000000;stroke-width:0.8;" x="54" xlink:href="#mf2b78b0ccf" y="68.469388"/>
      </g>
     </g>
     <g id="text_16">
      <!-- 160 -->
      <g transform="translate(22.18625 73.408372)scale(0.13 -0.13)">
       <use xlink:href="#DejaVuSans-49"/>
       <use x="63.623047" xlink:href="#DejaVuSans-54"/>
       <use x="127.246094" xlink:href="#DejaVuSans-48"/>
      </g>
     </g>
    </g>
    <g id="text_17">
     <!-- Count -->
     <defs>
      <path d="M 64.40625 67.28125 
L 64.40625 56.890625 
Q 59.421875 61.53125 53.78125 63.8125 
Q 48.140625 66.109375 41.796875 66.109375 
Q 29.296875 66.109375 22.65625 58.46875 
Q 16.015625 50.828125 16.015625 36.375 
Q 16.015625 21.96875 22.65625 14.328125 
Q 29.296875 6.6875 41.796875 6.6875 
Q 48.140625 6.6875 53.78125 8.984375 
Q 59.421875 11.28125 64.40625 15.921875 
L 64.40625 5.609375 
Q 59.234375 2.09375 53.4375 0.328125 
Q 47.65625 -1.421875 41.21875 -1.421875 
Q 24.65625 -1.421875 15.125 8.703125 
Q 5.609375 18.84375 5.609375 36.375 
Q 5.609375 53.953125 15.125 64.078125 
Q 24.65625 74.21875 41.21875 74.21875 
Q 47.75 74.21875 53.53125 72.484375 
Q 59.328125 70.75 64.40625 67.28125 
z
" id="DejaVuSans-67"/>
      <path d="M 30.609375 48.390625 
Q 23.390625 48.390625 19.1875 42.75 
Q 14.984375 37.109375 14.984375 27.296875 
Q 14.984375 17.484375 19.15625 11.84375 
Q 23.34375 6.203125 30.609375 6.203125 
Q 37.796875 6.203125 41.984375 11.859375 
Q 46.1875 17.53125 46.1875 27.296875 
Q 46.1875 37.015625 41.984375 42.703125 
Q 37.796875 48.390625 30.609375 48.390625 
z
M 30.609375 56 
Q 42.328125 56 49.015625 48.375 
Q 55.71875 40.765625 55.71875 27.296875 
Q 55.71875 13.875 49.015625 6.21875 
Q 42.328125 -1.421875 30.609375 -1.421875 
Q 18.84375 -1.421875 12.171875 6.21875 
Q 5.515625 13.875 5.515625 27.296875 
Q 5.515625 40.765625 12.171875 48.375 
Q 18.84375 56 30.609375 56 
z
" id="DejaVuSans-111"/>
      <path d="M 54.890625 33.015625 
L 54.890625 0 
L 45.90625 0 
L 45.90625 32.71875 
Q 45.90625 40.484375 42.875 44.328125 
Q 39.84375 48.1875 33.796875 48.1875 
Q 26.515625 48.1875 22.3125 43.546875 
Q 18.109375 38.921875 18.109375 30.90625 
L 18.109375 0 
L 9.078125 0 
L 9.078125 54.6875 
L 18.109375 54.6875 
L 18.109375 46.1875 
Q 21.34375 51.125 25.703125 53.5625 
Q 30.078125 56 35.796875 56 
Q 45.21875 56 50.046875 50.171875 
Q 54.890625 44.34375 54.890625 33.015625 
z
" id="DejaVuSans-110"/>
     </defs>
     <g transform="translate(15.482656 198.402969)rotate(-90)scale(0.13 -0.13)">
      <use xlink:href="#DejaVuSans-67"/>
      <use x="69.824219" xlink:href="#DejaVuSans-111"/>
      <use x="131.005859" xlink:href="#DejaVuSans-117"/>
      <use x="194.384766" xlink:href="#DejaVuSans-110"/>
      <use x="257.763672" xlink:href="#DejaVuSans-116"/>
     </g>
    </g>
   </g>
   <g id="patch_303">
    <path d="M 54 315 
L 54 43.2 
" style="fill:none;stroke:#000000;stroke-linecap:square;stroke-linejoin:miter;stroke-width:0.8;"/>
   </g>
   <g id="patch_304">
    <path d="M 388.8 315 
L 388.8 43.2 
" style="fill:none;stroke:#000000;stroke-linecap:square;stroke-linejoin:miter;stroke-width:0.8;"/>
   </g>
   <g id="patch_305">
    <path d="M 54 315 
L 388.8 315 
" style="fill:none;stroke:#000000;stroke-linecap:square;stroke-linejoin:miter;stroke-width:0.8;"/>
   </g>
   <g id="patch_306">
    <path d="M 54 43.2 
L 388.8 43.2 
" style="fill:none;stroke:#000000;stroke-linecap:square;stroke-linejoin:miter;stroke-width:0.8;"/>
   </g>
  </g>
 </g>
 <defs>
  <clipPath id="p00046f7898">
   <rect height="271.8" width="334.8" x="54" y="43.2"/>
  </clipPath>
 </defs>
</svg>
